<svg xmlns="http://www.w3.org/2000/svg" xmlns:xlink="http://www.w3.org/1999/xlink" width="512" zoomAndPan="magnify" viewBox="0 0 384 383.999986" height="512" preserveAspectRatio="xMidYMid meet" version="1.0"><defs><clipPath id="1c2a7c7107"><path d="M 25.121094 38.820312 L 358.871094 38.820312 L 358.871094 345.570312 L 25.121094 345.570312 Z M 25.121094 38.820312 " clip-rule="nonzero"/></clipPath></defs><g clip-path="url(#1c2a7c7107)"><path fill="#ffffff" d="M 358.023438 214.046875 C 357.238281 212.964844 355.988281 212.320312 354.65625 212.320312 L 335.941406 212.320312 C 344.082031 198.707031 348.367188 183.257812 348.367188 167.179688 C 348.367188 143.617188 339.195312 121.464844 322.535156 104.8125 C 320.914062 103.191406 318.285156 103.191406 316.65625 104.8125 L 263.890625 157.578125 L 267.824219 136.222656 C 270.15625 123.570312 267.035156 111.664062 258.804688 101.773438 C 257.550781 100.265625 256.214844 98.882812 254.832031 97.585938 L 275.105469 70.558594 C 277.300781 67.628906 278.21875 64.015625 277.703125 60.375 C 277.183594 56.734375 275.285156 53.523438 272.359375 51.328125 C 266.300781 46.789062 257.675781 48.019531 253.128906 54.078125 L 239.832031 71.808594 L 239.832031 52.558594 C 239.832031 44.988281 233.671875 38.828125 226.097656 38.828125 C 218.527344 38.828125 212.367188 44.988281 212.367188 52.558594 L 212.367188 71.808594 L 199.070312 54.078125 C 194.527344 48.019531 185.898438 46.789062 179.839844 51.328125 C 176.914062 53.523438 175.015625 56.734375 174.496094 60.375 C 173.976562 64.015625 174.898438 67.628906 177.09375 70.558594 L 197.347656 97.566406 C 195.949219 98.859375 194.613281 100.257812 193.34375 101.773438 C 185.117188 111.660156 181.992188 123.570312 184.328125 136.222656 L 189.671875 165.234375 C 187.945312 164.097656 186.210938 163.046875 184.453125 162.0625 C 184.269531 154.925781 182.304688 147.929688 178.707031 141.691406 C 175.875 136.792969 172.21875 132.597656 167.8125 129.199219 C 171.714844 117.519531 170.476562 104.921875 164.253906 94.144531 C 153.953125 76.308594 132.757812 68.453125 113.605469 74.808594 C 113.15625 73.878906 112.671875 72.957031 112.152344 72.066406 C 106.414062 62.125 97.148438 55.015625 86.066406 52.046875 C 74.976562 49.078125 63.402344 50.601562 53.464844 56.339844 C 43.523438 62.078125 36.414062 71.347656 33.445312 82.429688 C 30.476562 93.515625 32 105.089844 37.738281 115.03125 C 38.257812 115.9375 38.816406 116.820312 39.40625 117.6875 C 24.441406 131.109375 20.695312 153.339844 30.953125 171.101562 C 37.140625 181.824219 47.378906 189.1875 59.375 191.675781 C 60.109375 197.234375 61.914062 202.535156 64.765625 207.476562 C 65.75 209.171875 66.835938 210.785156 68.019531 212.320312 L 29.480469 212.320312 C 28.144531 212.320312 26.890625 212.957031 26.117188 214.046875 C 25.332031 215.125 25.117188 216.515625 25.539062 217.785156 C 40.457031 262.886719 68.457031 296.101562 111.082031 319.261719 L 111.082031 333.335938 C 111.082031 340.085938 116.570312 345.582031 123.324219 345.582031 L 260.832031 345.582031 C 267.582031 345.582031 273.078125 340.089844 273.078125 333.335938 L 273.078125 319.261719 C 315.695312 296.101562 343.699219 262.886719 358.617188 217.785156 C 359.03125 216.515625 358.816406 215.125 358.042969 214.046875 Z M 319.523438 113.699219 C 332.796875 128.394531 340.058594 147.230469 340.058594 167.183594 C 340.058594 183.453125 335.222656 199.011719 326.078125 212.328125 L 313.453125 212.328125 C 324.070312 199.792969 330.015625 183.8125 330.015625 167.183594 C 330.015625 150.558594 323.785156 133.613281 312.40625 120.824219 L 319.53125 113.699219 Z M 287.328125 212.328125 C 283.441406 194.761719 267.742188 181.929688 249.398438 181.929688 C 231.054688 181.929688 215.355469 194.761719 211.46875 212.328125 L 201.230469 212.328125 C 205.265625 189.3125 225.609375 171.878906 249.398438 171.878906 C 273.1875 171.878906 293.53125 189.3125 297.566406 212.328125 Z M 278.753906 212.328125 L 220.035156 212.328125 C 223.726562 199.453125 235.609375 190.234375 249.390625 190.234375 C 263.171875 190.234375 275.058594 199.453125 278.746094 212.328125 Z M 288.292969 178.820312 C 285.175781 175.933594 281.777344 173.433594 278.179688 171.339844 L 321.558594 171.339844 C 320.609375 185.363281 314.878906 198.628906 305.367188 208.9375 C 302.945312 197.441406 297.039062 186.933594 288.292969 178.820312 Z M 270.191406 163.03125 L 306.511719 126.714844 C 315.417969 136.886719 320.65625 149.535156 321.550781 163.03125 Z M 259.773438 59.066406 C 261.566406 56.671875 264.980469 56.1875 267.375 57.980469 C 268.523438 58.84375 269.269531 60.113281 269.476562 61.558594 C 269.6875 63.003906 269.320312 64.429688 268.460938 65.582031 L 248.226562 92.5625 C 245.585938 90.949219 242.78125 89.667969 239.839844 88.710938 L 239.839844 85.660156 L 259.78125 59.066406 Z M 226.09375 47.140625 C 229.082031 47.140625 231.519531 49.578125 231.519531 52.566406 L 231.519531 86.941406 C 229.898438 86.761719 228.246094 86.671875 226.554688 86.671875 L 225.582031 86.671875 C 223.914062 86.671875 222.273438 86.761719 220.660156 86.941406 L 220.660156 52.574219 C 220.660156 49.582031 223.09375 47.148438 226.085938 47.148438 Z M 183.730469 65.582031 C 182.867188 64.429688 182.507812 63 182.714844 61.558594 C 182.921875 60.117188 183.667969 58.84375 184.816406 57.980469 C 187.214844 56.1875 190.617188 56.671875 192.417969 59.066406 L 212.359375 85.660156 L 212.359375 88.699219 C 209.410156 89.652344 206.601562 90.933594 203.957031 92.539062 L 183.730469 65.574219 Z M 198.136719 165.378906 L 214.949219 165.378906 C 217.238281 165.378906 219.101562 163.515625 219.101562 161.226562 C 219.101562 158.933594 217.238281 157.074219 214.949219 157.074219 L 196.605469 157.074219 L 192.488281 134.722656 C 192.347656 133.96875 192.238281 133.214844 192.148438 132.464844 L 208.941406 132.464844 C 211.230469 132.464844 213.09375 130.601562 213.09375 128.3125 C 213.09375 126.019531 211.230469 124.160156 208.941406 124.160156 L 192.148438 124.160156 C 192.921875 117.976562 195.464844 112.199219 199.71875 107.089844 C 206.324219 99.164062 215.265625 94.96875 225.582031 94.96875 L 226.554688 94.96875 C 236.875 94.96875 245.8125 99.15625 252.417969 107.089844 C 259.019531 115.023438 261.519531 124.574219 259.648438 134.722656 L 258.949219 138.527344 L 241.058594 138.527344 C 238.765625 138.527344 236.90625 140.390625 236.90625 142.683594 C 236.90625 144.972656 238.765625 146.835938 241.058594 146.835938 L 257.421875 146.835938 L 254.300781 163.785156 C 252.671875 163.648438 251.039062 163.570312 249.398438 163.570312 C 234.925781 163.570312 221.117188 168.992188 210.503906 178.828125 C 209.695312 179.574219 208.917969 180.351562 208.164062 181.140625 C 205.328125 178.085938 202.433594 175.277344 199.492188 172.714844 L 198.140625 165.378906 Z M 191.976562 177.769531 L 192.535156 177.664062 C 196.023438 180.578125 199.449219 183.878906 202.820312 187.578125 C 197.589844 194.898438 194.164062 203.359375 192.828125 212.328125 L 175.105469 212.328125 L 153.011719 184.273438 C 151.59375 182.476562 148.984375 182.164062 147.175781 183.582031 C 145.378906 185 145.066406 187.609375 146.484375 189.417969 L 164.53125 212.328125 L 125.414062 212.328125 C 120.921875 196.050781 122.703125 179.808594 130.835938 162.839844 C 154.125 157.847656 173.894531 162.414062 191.84375 177.109375 L 191.96875 177.769531 Z M 71.945312 203.332031 C 69.191406 198.554688 67.640625 193.363281 67.347656 187.894531 C 67.238281 185.894531 65.722656 184.253906 63.734375 184 C 52.917969 182.601562 43.585938 176.382812 38.136719 166.949219 C 29.300781 151.632812 33.355469 132.195312 47.574219 121.730469 C 48.492188 121.050781 49.09375 120.027344 49.234375 118.886719 C 49.371094 117.75 49.039062 116.609375 48.304688 115.726562 C 47.046875 114.210938 45.910156 112.578125 44.921875 110.871094 C 40.292969 102.855469 39.066406 93.507812 41.460938 84.566406 C 43.855469 75.625 49.59375 68.148438 57.609375 63.523438 C 65.625 58.894531 74.96875 57.667969 83.914062 60.0625 C 92.855469 62.457031 100.332031 68.195312 104.953125 76.210938 C 105.9375 77.914062 106.78125 79.707031 107.460938 81.554688 C 107.855469 82.628906 108.683594 83.492188 109.738281 83.9375 C 110.789062 84.378906 111.988281 84.371094 113.039062 83.910156 C 129.25 76.722656 148.175781 82.90625 157.054688 98.285156 C 162.53125 107.761719 163.222656 118.996094 158.972656 129.101562 C 158.195312 130.949219 158.847656 133.089844 160.523438 134.1875 C 165.078125 137.171875 168.773438 141.089844 171.515625 145.839844 C 173.679688 149.582031 175.105469 153.667969 175.757812 157.890625 C 160.894531 151.910156 144.746094 151.023438 127.046875 155.167969 C 125.851562 155.453125 124.839844 156.25 124.285156 157.34375 C 123.027344 159.839844 121.890625 162.324219 120.882812 164.804688 L 106.136719 139.269531 L 116.1875 99.988281 C 116.757812 97.765625 115.414062 95.503906 113.191406 94.933594 C 110.96875 94.367188 108.707031 95.710938 108.136719 97.933594 L 100.199219 128.984375 L 76.742188 88.351562 C 75.59375 86.367188 73.050781 85.6875 71.066406 86.832031 C 69.078125 87.980469 68.402344 90.519531 69.542969 92.507812 L 93 133.136719 L 62.144531 124.492188 C 59.933594 123.875 57.644531 125.164062 57.019531 127.371094 C 56.40625 129.578125 57.691406 131.871094 59.902344 132.492188 L 98.945312 143.429688 L 116.519531 173.871094 C 116.660156 174.105469 116.824219 174.320312 117 174.523438 L 86.015625 165.84375 C 83.808594 165.226562 81.515625 166.511719 80.894531 168.722656 C 80.277344 170.929688 81.566406 173.222656 83.773438 173.84375 L 115.691406 182.785156 C 114.027344 192.691406 114.417969 202.5 116.832031 212.335938 L 79.40625 212.335938 C 76.4375 209.789062 73.925781 206.769531 71.945312 203.335938 Z M 264.757812 333.335938 C 264.757812 335.503906 262.992188 337.273438 260.820312 337.273438 L 123.3125 337.273438 C 121.144531 337.273438 119.371094 335.507812 119.371094 333.335938 L 119.371094 320.945312 L 264.75 320.945312 L 264.75 333.335938 Z M 267.859375 312.640625 L 116.277344 312.640625 C 76.652344 291.4375 50.105469 261.292969 35.3125 220.636719 L 348.824219 220.636719 C 334.03125 261.292969 307.484375 291.4375 267.859375 312.640625 Z M 267.859375 312.640625 " fill-opacity="1" fill-rule="nonzero"/></g></svg>