<svg xmlns="http://www.w3.org/2000/svg" xmlns:xlink="http://www.w3.org/1999/xlink" width="512" zoomAndPan="magnify" viewBox="0 0 384 383.999986" height="512" preserveAspectRatio="xMidYMid meet" version="1.0"><defs><clipPath id="d713c05db6"><path d="M 31.027344 147 L 241 147 L 241 355.699219 L 31.027344 355.699219 Z M 31.027344 147 " clip-rule="nonzero"/></clipPath><clipPath id="d2ef7f8409"><path d="M 192 156 L 352.777344 156 L 352.777344 355.699219 L 192 355.699219 Z M 192 156 " clip-rule="nonzero"/></clipPath><clipPath id="e4fcf649c0"><path d="M 58 27.949219 L 240 27.949219 L 240 143 L 58 143 Z M 58 27.949219 " clip-rule="nonzero"/></clipPath></defs><g clip-path="url(#d713c05db6)"><path fill="#ffffff" d="M 126.128906 147.558594 C 218.121094 140.363281 275.5 245.148438 217.1875 317.5 C 170.042969 375.992188 77.324219 366.132812 42.675781 299.976562 C 8.617188 234.945312 53.339844 153.253906 126.128906 147.558594 Z M 130.199219 161.820312 C 69.390625 166.050781 28.074219 229.3125 52.171875 286.398438 C 80.566406 353.65625 174.0625 361.300781 212.734375 298.78125 C 250.917969 237.0625 202.050781 156.828125 130.199219 161.820312 Z M 130.199219 161.820312 " fill-opacity="1" fill-rule="nonzero"/></g><g clip-path="url(#d2ef7f8409)"><path fill="#ffffff" d="M 268.78125 205.773438 L 285.40625 205.773438 C 285.691406 205.773438 287.429688 207.0625 287.792969 207.464844 L 321.375 284.605469 L 322.597656 285.148438 C 328.589844 284.039062 345.25 276.558594 350.207031 280.171875 C 354.339844 283.1875 353.621094 289.828125 349.128906 291.972656 C 345.1875 293.859375 326.988281 299.316406 322.574219 300.03125 C 319.3125 300.558594 317.527344 300.667969 315.78125 297.644531 C 311.433594 290.113281 308.882812 279.207031 304.664062 271.414062 C 304.191406 270.539062 303.84375 269.613281 303.050781 268.953125 L 280.316406 268.953125 L 280.316406 286.613281 C 306.691406 290.417969 319.566406 321.933594 302.378906 343.003906 C 286.773438 362.136719 255.703125 359.160156 244.445312 337.125 C 233.4375 315.582031 247.164062 289.863281 270.75 286.550781 C 270.859375 282.382812 270.832031 278.195312 270.84375 274.019531 C 270.851562 271.644531 269.625 259.441406 273.191406 259.441406 L 298.640625 259.441406 L 280.324219 216.300781 L 240.367188 215.195312 C 234.480469 197.835938 223.761719 181.285156 210.058594 169.109375 C 204.65625 164.3125 198.460938 160.578125 192.769531 156.183594 L 254.1875 156.183594 C 256.410156 156.183594 261.984375 159.230469 263.71875 160.914062 C 265.257812 162.40625 268.777344 168.265625 268.777344 170.113281 L 268.777344 205.773438 Z M 270.816406 301.558594 C 242.839844 308.617188 255.800781 350.019531 283.019531 339.925781 C 301.152344 333.199219 299.332031 305.613281 280.316406 301.558594 L 280.316406 315.484375 C 280.316406 315.746094 282.089844 318.113281 282.3125 319.605469 C 283.828125 329.648438 270.5625 331.363281 268.417969 323.3125 C 267.074219 318.257812 270.816406 315.914062 270.816406 315.484375 Z M 270.816406 301.558594 " fill-opacity="1" fill-rule="nonzero"/></g><g clip-path="url(#e4fcf649c0)"><path fill="#ffffff" d="M 154.769531 127.65625 L 156.804688 142.597656 C 146.386719 141.078125 136.117188 140.015625 125.601562 141.234375 L 113.960938 52.6875 C 113.226562 44.789062 109.613281 40.859375 101.511719 40.667969 C 96.96875 40.5625 96.367188 42.992188 92.695312 43.4375 C 88.3125 43.972656 67.519531 44.0625 63.816406 43.105469 C 56.382812 41.179688 56.800781 29.25 65.5 28.449219 C 71.40625 27.902344 88.5 27.640625 93.996094 28.519531 C 96.375 28.898438 97.054688 30.851562 98.800781 31.183594 C 101.339844 31.667969 104.773438 30.894531 107.550781 31.257812 C 118.660156 32.691406 124.269531 44.027344 124.234375 54.300781 C 131.402344 53.734375 141.035156 51.191406 144.710938 59.273438 L 153.375 117.175781 L 161.109375 117.503906 C 162.664062 114.1875 164.796875 111.808594 168.671875 111.34375 L 233.117188 111.402344 C 243.496094 113.007812 239.359375 127.664062 233.160156 127.664062 L 154.777344 127.664062 Z M 154.769531 127.65625 " fill-opacity="1" fill-rule="nonzero"/></g><path fill="#ffffff" d="M 131.695312 168.414062 L 140.519531 168.414062 C 140.519531 168.414062 140.492188 233.851562 140.492188 233.851562 L 146.519531 236.246094 L 191.421875 190.449219 C 192.613281 189.613281 197.273438 194.722656 197.453125 195.382812 C 198.285156 198.488281 157.089844 235.511719 152.671875 241.425781 C 151.339844 243.414062 153.933594 245.699219 154.089844 247.890625 L 219.917969 247.890625 L 219.824219 255.609375 L 218.222656 256.722656 L 154.179688 256.8125 L 152.167969 261.941406 L 152.664062 263.203125 L 197.425781 308.5625 C 195.828125 310.128906 193.125 314.5625 190.75 313.464844 L 146.605469 268.5625 L 140.578125 270.367188 L 139.84375 335.523438 L 131.695312 335.523438 L 131.695312 270.984375 L 125.574219 268.585938 L 79.777344 313.808594 C 78.855469 313.804688 73.550781 309.125 74.304688 307.671875 L 118.847656 263.199219 C 120.226562 261.398438 118.179688 258.414062 117.101562 256.71875 L 51.617188 256.71875 L 51.617188 247.890625 L 117.105469 247.890625 C 118.183594 246.191406 120.226562 243.207031 118.847656 241.410156 L 73.34375 195.921875 L 79.6875 190.195312 L 125.609375 236.035156 C 126.632812 236.699219 131.695312 233.671875 131.695312 233.28125 L 131.695312 168.410156 Z M 132.867188 242.617188 C 121.28125 245.023438 124.597656 264.550781 137.289062 262.691406 C 150.734375 260.722656 148.058594 239.460938 132.867188 242.617188 Z M 132.867188 242.617188 " fill-opacity="1" fill-rule="nonzero"/><path fill="#ffffff" d="M 146.625 215.285156 L 146.625 169.09375 C 160.96875 170.890625 175.679688 176.269531 186.636719 185.808594 L 157.824219 215.285156 Z M 146.625 215.285156 " fill-opacity="1" fill-rule="nonzero"/><path fill="#ffffff" d="M 211.097656 215.28125 L 188.015625 215.621094 L 201.9375 201.035156 C 205.871094 205.144531 208.652344 210.210938 211.097656 215.28125 Z M 211.097656 215.28125 " fill-opacity="1" fill-rule="nonzero"/></svg>