<svg xmlns="http://www.w3.org/2000/svg" xmlns:xlink="http://www.w3.org/1999/xlink" width="512" zoomAndPan="magnify" viewBox="0 0 384 383.999986" height="512" preserveAspectRatio="xMidYMid meet" version="1.0"><defs><clipPath id="d06069d42c"><path d="M 67 223 L 317 223 L 317 349.703125 L 67 349.703125 Z M 67 223 " clip-rule="nonzero"/></clipPath><clipPath id="0a77056568"><path d="M 33.953125 157 L 349.703125 157 L 349.703125 235 L 33.953125 235 Z M 33.953125 157 " clip-rule="nonzero"/></clipPath><clipPath id="cefc404cac"><path d="M 304 157 L 349.703125 157 L 349.703125 192 L 304 192 Z M 304 157 " clip-rule="nonzero"/></clipPath><clipPath id="cb040c6bcd"><path d="M 33.953125 157 L 80 157 L 80 192 L 33.953125 192 Z M 33.953125 157 " clip-rule="nonzero"/></clipPath><clipPath id="d6f71dc8fb"><path d="M 282 33.953125 L 315 33.953125 L 315 85 L 282 85 Z M 282 33.953125 " clip-rule="nonzero"/></clipPath><clipPath id="a0d896df02"><path d="M 299 56 L 349.703125 56 L 349.703125 89 L 299 89 Z M 299 56 " clip-rule="nonzero"/></clipPath></defs><g clip-path="url(#d06069d42c)"><path fill="#ffffff" d="M 286.851562 350.042969 L 97.144531 350.042969 C 96.1875 350.039062 95.226562 349.992188 94.273438 349.898438 C 93.316406 349.800781 92.367188 349.660156 91.425781 349.472656 C 90.484375 349.285156 89.554688 349.050781 88.636719 348.769531 C 87.71875 348.492188 86.816406 348.167969 85.929688 347.800781 C 85.042969 347.433594 84.175781 347.019531 83.328125 346.570312 C 82.480469 346.117188 81.660156 345.621094 80.859375 345.089844 C 80.0625 344.554688 79.292969 343.984375 78.550781 343.375 C 77.808594 342.765625 77.097656 342.121094 76.417969 341.441406 C 75.738281 340.761719 75.09375 340.050781 74.488281 339.308594 C 73.878906 338.566406 73.304688 337.796875 72.773438 337 C 72.238281 336.199219 71.746094 335.378906 71.292969 334.53125 C 70.839844 333.683594 70.429688 332.820312 70.058594 331.933594 C 69.691406 331.046875 69.367188 330.140625 69.089844 329.222656 C 68.808594 328.304688 68.574219 327.375 68.386719 326.433594 C 68.199219 325.492188 68.058594 324.542969 67.964844 323.585938 C 67.867188 322.632812 67.820312 321.675781 67.820312 320.714844 L 67.820312 229.054688 C 67.820312 228.683594 67.855469 228.316406 67.925781 227.953125 C 68 227.589844 68.105469 227.238281 68.25 226.894531 C 68.390625 226.550781 68.5625 226.226562 68.769531 225.917969 C 68.976562 225.609375 69.210938 225.324219 69.472656 225.0625 C 69.734375 224.800781 70.019531 224.566406 70.328125 224.363281 C 70.636719 224.15625 70.960938 223.980469 71.304688 223.839844 C 71.644531 223.699219 72 223.589844 72.363281 223.519531 C 72.726562 223.445312 73.09375 223.410156 73.464844 223.410156 C 73.832031 223.410156 74.199219 223.445312 74.5625 223.519531 C 74.929688 223.589844 75.28125 223.699219 75.625 223.839844 C 75.964844 223.980469 76.289062 224.15625 76.597656 224.363281 C 76.90625 224.566406 77.191406 224.800781 77.453125 225.0625 C 77.714844 225.324219 77.949219 225.609375 78.15625 225.917969 C 78.363281 226.226562 78.535156 226.550781 78.679688 226.894531 C 78.820312 227.238281 78.925781 227.589844 79 227.953125 C 79.070312 228.316406 79.109375 228.683594 79.109375 229.054688 L 79.109375 320.714844 C 79.109375 321.304688 79.136719 321.894531 79.195312 322.480469 C 79.253906 323.070312 79.34375 323.652344 79.457031 324.230469 C 79.574219 324.8125 79.71875 325.382812 79.890625 325.949219 C 80.0625 326.511719 80.261719 327.070312 80.484375 327.613281 C 80.710938 328.160156 80.964844 328.691406 81.242188 329.214844 C 81.523438 329.734375 81.824219 330.238281 82.152344 330.730469 C 82.480469 331.222656 82.832031 331.695312 83.207031 332.152344 C 83.582031 332.609375 83.980469 333.046875 84.398438 333.464844 C 84.816406 333.882812 85.25 334.277344 85.707031 334.652344 C 86.164062 335.027344 86.636719 335.378906 87.128906 335.707031 C 87.621094 336.035156 88.125 336.339844 88.648438 336.617188 C 89.167969 336.894531 89.699219 337.148438 90.246094 337.375 C 90.792969 337.601562 91.347656 337.800781 91.910156 337.972656 C 92.476562 338.144531 93.050781 338.285156 93.628906 338.402344 C 94.207031 338.519531 94.789062 338.605469 95.378906 338.664062 C 95.964844 338.722656 96.554688 338.753906 97.144531 338.753906 L 286.851562 338.753906 C 287.441406 338.753906 288.03125 338.722656 288.617188 338.664062 C 289.207031 338.605469 289.789062 338.519531 290.367188 338.402344 C 290.945312 338.285156 291.519531 338.144531 292.082031 337.972656 C 292.648438 337.800781 293.203125 337.601562 293.75 337.375 C 294.292969 337.148438 294.828125 336.894531 295.347656 336.617188 C 295.871094 336.335938 296.375 336.035156 296.867188 335.707031 C 297.355469 335.378906 297.832031 335.027344 298.285156 334.652344 C 298.742188 334.277344 299.179688 333.878906 299.597656 333.460938 C 300.015625 333.046875 300.410156 332.609375 300.785156 332.152344 C 301.160156 331.695312 301.511719 331.222656 301.839844 330.730469 C 302.167969 330.238281 302.472656 329.734375 302.75 329.210938 C 303.027344 328.691406 303.28125 328.160156 303.507812 327.613281 C 303.734375 327.066406 303.933594 326.511719 304.105469 325.949219 C 304.277344 325.382812 304.421875 324.8125 304.535156 324.230469 C 304.652344 323.652344 304.738281 323.070312 304.796875 322.480469 C 304.855469 321.894531 304.886719 321.304688 304.886719 320.714844 L 304.886719 229.054688 C 304.886719 228.683594 304.921875 228.316406 304.996094 227.953125 C 305.066406 227.589844 305.171875 227.238281 305.316406 226.894531 C 305.457031 226.550781 305.632812 226.226562 305.835938 225.917969 C 306.042969 225.609375 306.277344 225.324219 306.539062 225.0625 C 306.800781 224.800781 307.085938 224.566406 307.394531 224.363281 C 307.703125 224.15625 308.027344 223.980469 308.371094 223.839844 C 308.710938 223.699219 309.066406 223.589844 309.429688 223.519531 C 309.792969 223.445312 310.160156 223.410156 310.53125 223.410156 C 310.902344 223.410156 311.269531 223.445312 311.632812 223.519531 C 311.996094 223.589844 312.347656 223.699219 312.691406 223.839844 C 313.03125 223.980469 313.359375 224.15625 313.667969 224.363281 C 313.972656 224.566406 314.257812 224.800781 314.523438 225.0625 C 314.785156 225.324219 315.019531 225.609375 315.222656 225.917969 C 315.429688 226.226562 315.601562 226.550781 315.746094 226.894531 C 315.886719 227.238281 315.996094 227.589844 316.066406 227.953125 C 316.140625 228.316406 316.175781 228.683594 316.175781 229.054688 L 316.175781 320.714844 C 316.171875 321.675781 316.125 322.632812 316.03125 323.585938 C 315.933594 324.542969 315.792969 325.492188 315.605469 326.433594 C 315.417969 327.375 315.183594 328.304688 314.90625 329.222656 C 314.625 330.140625 314.300781 331.042969 313.933594 331.929688 C 313.566406 332.816406 313.15625 333.683594 312.703125 334.53125 C 312.25 335.378906 311.757812 336.199219 311.222656 337 C 310.6875 337.796875 310.117188 338.566406 309.507812 339.308594 C 308.898438 340.050781 308.253906 340.761719 307.574219 341.441406 C 306.898438 342.121094 306.1875 342.765625 305.445312 343.375 C 304.703125 343.980469 303.933594 344.554688 303.132812 345.085938 C 302.335938 345.621094 301.515625 346.113281 300.667969 346.566406 C 299.820312 347.019531 298.953125 347.429688 298.066406 347.800781 C 297.179688 348.167969 296.277344 348.492188 295.359375 348.769531 C 294.441406 349.050781 293.511719 349.285156 292.570312 349.472656 C 291.628906 349.660156 290.679688 349.800781 289.722656 349.898438 C 288.769531 349.992188 287.808594 350.039062 286.851562 350.042969 Z M 286.851562 350.042969 " fill-opacity="1" fill-rule="nonzero"/></g><g clip-path="url(#0a77056568)"><path fill="#ffffff" d="M 344.398438 234.699219 L 39.597656 234.699219 C 39.355469 234.699219 39.117188 234.683594 38.875 234.652344 C 38.636719 234.621094 38.402344 234.578125 38.167969 234.515625 C 37.933594 234.453125 37.707031 234.378906 37.484375 234.289062 C 37.261719 234.199219 37.042969 234.09375 36.832031 233.976562 C 36.625 233.859375 36.421875 233.726562 36.226562 233.582031 C 36.035156 233.4375 35.851562 233.285156 35.679688 233.117188 C 35.503906 232.949219 35.34375 232.769531 35.191406 232.582031 C 35.042969 232.394531 34.902344 232.199219 34.777344 231.992188 C 34.652344 231.785156 34.539062 231.574219 34.441406 231.355469 C 34.34375 231.132812 34.261719 230.910156 34.191406 230.675781 C 34.121094 230.445312 34.066406 230.210938 34.027344 229.976562 C 33.988281 229.738281 33.964844 229.496094 33.957031 229.257812 C 33.949219 229.015625 33.953125 228.777344 33.976562 228.535156 C 34 228.296875 34.035156 228.058594 34.089844 227.824219 C 34.140625 227.589844 34.210938 227.355469 34.292969 227.128906 C 34.375 226.902344 34.46875 226.683594 34.582031 226.46875 L 68.445312 160.757812 C 68.683594 160.296875 68.980469 159.878906 69.332031 159.5 C 69.683594 159.121094 70.082031 158.792969 70.523438 158.523438 C 70.96875 158.253906 71.4375 158.050781 71.9375 157.910156 C 72.4375 157.769531 72.945312 157.699219 73.464844 157.699219 L 310.53125 157.699219 C 311.046875 157.699219 311.558594 157.769531 312.054688 157.910156 C 312.554688 158.050781 313.027344 158.253906 313.46875 158.523438 C 313.910156 158.792969 314.308594 159.121094 314.660156 159.5 C 315.015625 159.878906 315.308594 160.296875 315.546875 160.757812 L 349.414062 226.46875 C 349.523438 226.683594 349.621094 226.902344 349.703125 227.128906 C 349.785156 227.355469 349.851562 227.589844 349.90625 227.824219 C 349.957031 228.058594 349.996094 228.296875 350.015625 228.535156 C 350.039062 228.777344 350.046875 229.015625 350.035156 229.257812 C 350.027344 229.496094 350.003906 229.738281 349.964844 229.976562 C 349.925781 230.210938 349.871094 230.445312 349.800781 230.675781 C 349.734375 230.910156 349.648438 231.132812 349.550781 231.355469 C 349.453125 231.574219 349.339844 231.785156 349.214844 231.992188 C 349.089844 232.199219 348.953125 232.394531 348.800781 232.582031 C 348.652344 232.769531 348.488281 232.949219 348.316406 233.117188 C 348.140625 233.285156 347.957031 233.4375 347.765625 233.582031 C 347.570312 233.726562 347.371094 233.859375 347.160156 233.976562 C 346.949219 234.09375 346.734375 234.199219 346.511719 234.289062 C 346.285156 234.378906 346.058594 234.453125 345.824219 234.515625 C 345.59375 234.578125 345.355469 234.621094 345.117188 234.652344 C 344.878906 234.683594 344.636719 234.699219 344.398438 234.699219 Z M 48.855469 223.410156 L 335.136719 223.410156 L 307.089844 168.988281 L 76.902344 168.988281 Z M 48.855469 223.410156 " fill-opacity="1" fill-rule="nonzero"/></g><g clip-path="url(#cefc404cac)"><path fill="#ffffff" d="M 344.390625 191.074219 C 343.273438 191.078125 342.25 190.773438 341.316406 190.160156 L 307.449219 168.070312 C 307.128906 167.875 306.828125 167.648438 306.554688 167.390625 C 306.277344 167.132812 306.03125 166.851562 305.808594 166.542969 C 305.589844 166.238281 305.402344 165.910156 305.25 165.566406 C 305.09375 165.222656 304.976562 164.867188 304.894531 164.5 C 304.8125 164.132812 304.765625 163.757812 304.757812 163.382812 C 304.75 163.003906 304.777344 162.628906 304.84375 162.257812 C 304.914062 161.886719 305.015625 161.527344 305.15625 161.175781 C 305.292969 160.828125 305.464844 160.492188 305.671875 160.175781 C 305.878906 159.863281 306.113281 159.570312 306.378906 159.300781 C 306.640625 159.03125 306.929688 158.792969 307.242188 158.582031 C 307.554688 158.371094 307.886719 158.191406 308.234375 158.046875 C 308.582031 157.902344 308.941406 157.792969 309.3125 157.722656 C 309.683594 157.648438 310.054688 157.613281 310.433594 157.617188 C 310.8125 157.617188 311.183594 157.65625 311.554688 157.734375 C 311.921875 157.8125 312.28125 157.925781 312.625 158.074219 C 312.972656 158.222656 313.300781 158.402344 313.613281 158.617188 L 347.480469 180.703125 C 347.988281 181.039062 348.433594 181.441406 348.808594 181.917969 C 349.1875 182.394531 349.484375 182.917969 349.691406 183.488281 C 349.902344 184.058594 350.015625 184.648438 350.035156 185.257812 C 350.054688 185.863281 349.976562 186.460938 349.804688 187.042969 C 349.628906 187.625 349.367188 188.164062 349.019531 188.664062 C 348.671875 189.164062 348.253906 189.59375 347.765625 189.957031 C 347.28125 190.320312 346.746094 190.597656 346.167969 190.789062 C 345.59375 190.980469 345 191.078125 344.390625 191.074219 Z M 344.390625 191.074219 " fill-opacity="1" fill-rule="nonzero"/></g><g clip-path="url(#cb040c6bcd)"><path fill="#ffffff" d="M 39.601562 191.074219 C 38.996094 191.078125 38.402344 190.980469 37.824219 190.789062 C 37.246094 190.597656 36.714844 190.320312 36.226562 189.957031 C 35.742188 189.59375 35.324219 189.164062 34.976562 188.664062 C 34.625 188.167969 34.367188 187.625 34.191406 187.042969 C 34.019531 186.460938 33.941406 185.867188 33.960938 185.257812 C 33.980469 184.652344 34.09375 184.0625 34.300781 183.492188 C 34.511719 182.921875 34.804688 182.398438 35.183594 181.921875 C 35.558594 181.445312 36.003906 181.039062 36.511719 180.707031 L 70.378906 158.621094 C 70.6875 158.425781 71.015625 158.261719 71.359375 158.128906 C 71.699219 157.996094 72.054688 157.898438 72.414062 157.832031 C 72.777344 157.769531 73.140625 157.742188 73.507812 157.75 C 73.875 157.753906 74.238281 157.796875 74.597656 157.875 C 74.957031 157.953125 75.304688 158.066406 75.640625 158.210938 C 75.976562 158.359375 76.296875 158.535156 76.597656 158.746094 C 76.902344 158.953125 77.179688 159.1875 77.4375 159.453125 C 77.691406 159.714844 77.921875 160 78.121094 160.308594 C 78.324219 160.613281 78.492188 160.9375 78.628906 161.277344 C 78.765625 161.621094 78.871094 161.96875 78.9375 162.332031 C 79.007812 162.691406 79.042969 163.054688 79.039062 163.421875 C 79.039062 163.789062 79 164.152344 78.925781 164.511719 C 78.855469 164.875 78.746094 165.222656 78.605469 165.5625 C 78.464844 165.902344 78.292969 166.222656 78.085938 166.527344 C 77.882812 166.832031 77.652344 167.117188 77.394531 167.375 C 77.132812 167.636719 76.851562 167.867188 76.546875 168.074219 L 42.679688 190.160156 C 41.746094 190.773438 40.71875 191.078125 39.601562 191.074219 Z M 39.601562 191.074219 " fill-opacity="1" fill-rule="nonzero"/></g><path fill="#ffffff" d="M 283.832031 168.96875 C 283.265625 168.96875 282.710938 168.882812 282.171875 168.71875 C 281.628906 168.550781 281.125 168.308594 280.65625 167.992188 C 280.1875 167.671875 279.777344 167.292969 279.425781 166.851562 C 279.070312 166.40625 278.789062 165.921875 278.582031 165.398438 C 278.375 164.871094 278.246094 164.324219 278.203125 163.761719 C 278.160156 163.195312 278.199219 162.636719 278.324219 162.085938 C 278.449219 161.535156 278.652344 161.011719 278.933594 160.519531 C 279.214844 160.027344 279.558594 159.589844 279.972656 159.203125 C 288.828125 150.898438 296.449219 141.585938 302.832031 131.261719 C 311.050781 117.808594 314.25 106.003906 312.089844 97.121094 C 311.875 96.378906 311.625 95.648438 311.335938 94.929688 C 311.050781 94.210938 310.726562 93.511719 310.367188 92.824219 C 310.007812 92.140625 309.613281 91.476562 309.1875 90.828125 C 308.761719 90.183594 308.300781 89.5625 307.8125 88.960938 C 307.324219 88.363281 306.804688 87.792969 306.257812 87.246094 C 305.707031 86.699219 305.136719 86.179688 304.535156 85.691406 C 303.933594 85.203125 303.3125 84.746094 302.664062 84.324219 C 302.019531 83.898438 301.351562 83.507812 300.664062 83.148438 C 299.980469 82.792969 299.277344 82.46875 298.558594 82.183594 C 297.839844 81.898438 297.109375 81.648438 296.363281 81.433594 C 295.621094 81.222656 294.867188 81.050781 294.105469 80.914062 C 293.34375 80.777344 292.578125 80.679688 291.804688 80.621094 C 291.035156 80.5625 290.261719 80.542969 289.488281 80.566406 C 288.714844 80.585938 287.945312 80.644531 287.175781 80.742188 C 286.410156 80.839844 285.648438 80.976562 284.894531 81.152344 C 284.140625 81.328125 283.398438 81.539062 282.667969 81.789062 C 274.617188 84.871094 266.773438 92.59375 259.359375 104.742188 C 254.933594 112.105469 251.257812 119.824219 248.324219 127.898438 C 248.207031 128.257812 248.050781 128.601562 247.863281 128.925781 C 247.675781 129.253906 247.457031 129.558594 247.207031 129.84375 C 246.957031 130.125 246.679688 130.382812 246.378906 130.609375 C 246.078125 130.835938 245.757812 131.035156 245.417969 131.195312 C 245.078125 131.359375 244.726562 131.488281 244.359375 131.582031 C 243.992188 131.675781 243.621094 131.730469 243.246094 131.75 C 242.867188 131.765625 242.492188 131.746094 242.121094 131.691406 C 241.746094 131.632812 241.382812 131.539062 241.027344 131.410156 C 240.675781 131.28125 240.335938 131.117188 240.015625 130.917969 C 239.691406 130.71875 239.394531 130.492188 239.117188 130.234375 C 238.84375 129.976562 238.59375 129.695312 238.375 129.386719 C 238.15625 129.078125 237.972656 128.753906 237.816406 128.410156 C 237.664062 128.0625 237.546875 127.707031 237.464844 127.339844 C 237.382812 126.96875 237.335938 126.597656 237.328125 126.21875 C 237.320312 125.84375 237.351562 125.46875 237.417969 125.097656 C 237.488281 124.726562 237.589844 124.363281 237.730469 124.015625 C 240.90625 115.234375 244.902344 106.851562 249.726562 98.859375 C 258.476562 84.53125 268.195312 75.242188 278.632812 71.25 C 281.011719 70.320312 283.464844 69.6875 285.992188 69.34375 C 288.523438 69 291.054688 68.960938 293.59375 69.21875 C 296.132812 69.480469 298.605469 70.035156 301.011719 70.882812 C 303.421875 71.730469 305.695312 72.851562 307.835938 74.242188 C 309.71875 75.328125 311.472656 76.59375 313.101562 78.035156 C 314.726562 79.472656 316.195312 81.0625 317.503906 82.800781 C 318.8125 84.535156 319.933594 86.386719 320.867188 88.347656 C 321.804688 90.308594 322.535156 92.34375 323.0625 94.453125 C 325.984375 106.480469 322.421875 120.84375 312.472656 137.136719 C 305.550781 148.335938 297.289062 158.4375 287.6875 167.441406 C 286.605469 168.460938 285.320312 168.96875 283.832031 168.96875 Z M 283.832031 168.96875 " fill-opacity="1" fill-rule="nonzero"/><g clip-path="url(#d6f71dc8fb)"><path fill="#ffffff" d="M 304.871094 84.675781 C 304.085938 84.675781 303.335938 84.519531 302.617188 84.210938 C 301.902344 83.898438 301.273438 83.457031 300.742188 82.882812 C 296.992188 78.859375 278.488281 58.105469 282.601562 44.386719 C 283.007812 43.117188 283.582031 41.925781 284.320312 40.816406 C 285.058594 39.703125 285.9375 38.714844 286.949219 37.847656 C 287.964844 36.980469 289.074219 36.265625 290.289062 35.707031 C 291.5 35.148438 292.765625 34.765625 294.082031 34.558594 C 295.347656 34.136719 296.648438 33.898438 297.980469 33.839844 C 299.3125 33.78125 300.628906 33.902344 301.929688 34.210938 C 303.226562 34.519531 304.460938 34.996094 305.625 35.644531 C 306.789062 36.296875 307.84375 37.09375 308.789062 38.035156 C 318.726562 48.34375 311.792969 75.273438 310.304688 80.5625 C 310.136719 81.15625 309.878906 81.707031 309.53125 82.214844 C 309.1875 82.722656 308.765625 83.160156 308.277344 83.53125 C 307.785156 83.902344 307.25 84.1875 306.667969 84.382812 C 306.082031 84.582031 305.484375 84.679688 304.871094 84.679688 Z M 298.796875 45.242188 C 298.097656 45.253906 297.414062 45.347656 296.738281 45.523438 C 293.835938 46.230469 293.519531 47.277344 293.414062 47.625 C 292.367188 51.113281 296.308594 58.882812 301.816406 66.445312 C 303.242188 57.199219 303.1875 48.488281 300.660156 45.867188 C 300.136719 45.363281 299.515625 45.152344 298.796875 45.242188 Z M 298.796875 45.242188 " fill-opacity="1" fill-rule="nonzero"/></g><g clip-path="url(#a0d896df02)"><path fill="#ffffff" d="M 327.933594 88.207031 C 319.578125 87.992188 311.378906 86.742188 303.335938 84.464844 C 302.855469 84.328125 302.398438 84.132812 301.96875 83.875 C 301.542969 83.617188 301.152344 83.308594 300.804688 82.949219 C 300.457031 82.585938 300.164062 82.1875 299.921875 81.75 C 299.683594 81.308594 299.503906 80.847656 299.386719 80.363281 C 299.269531 79.875 299.214844 79.382812 299.230469 78.882812 C 299.242188 78.378906 299.320312 77.890625 299.464844 77.410156 C 299.609375 76.933594 299.8125 76.480469 300.078125 76.054688 C 300.339844 75.628906 300.65625 75.246094 301.023438 74.90625 C 305.042969 71.152344 325.792969 52.648438 339.515625 56.761719 C 340.785156 57.167969 341.976562 57.742188 343.085938 58.480469 C 344.199219 59.21875 345.1875 60.097656 346.054688 61.109375 C 346.921875 62.121094 347.636719 63.234375 348.195312 64.445312 C 348.757812 65.65625 349.140625 66.921875 349.347656 68.242188 C 349.769531 69.507812 350.007812 70.808594 350.066406 72.140625 C 350.125 73.472656 350 74.789062 349.691406 76.085938 C 349.386719 77.386719 348.90625 78.617188 348.257812 79.785156 C 347.609375 80.949219 346.8125 82.003906 345.871094 82.949219 C 344.601562 83.921875 343.253906 84.769531 341.828125 85.492188 C 340.40625 86.214844 338.925781 86.804688 337.390625 87.253906 C 335.859375 87.703125 334.296875 88.007812 332.707031 88.167969 C 331.117188 88.328125 329.523438 88.34375 327.933594 88.207031 Z M 317.453125 75.980469 C 326.703125 77.410156 335.417969 77.355469 338.035156 74.820312 C 338.296875 74.574219 339.082031 73.808594 338.378906 70.902344 C 337.671875 67.996094 336.621094 67.679688 336.277344 67.574219 C 332.761719 66.519531 325.015625 70.472656 317.453125 75.980469 Z M 317.453125 75.980469 " fill-opacity="1" fill-rule="nonzero"/></g><path fill="#ffffff" d="M 286.058594 108.21875 C 285 108.21875 284.023438 107.945312 283.121094 107.394531 L 260.90625 93.851562 C 260.589844 93.65625 260.292969 93.433594 260.023438 93.183594 C 259.75 92.933594 259.503906 92.65625 259.285156 92.359375 C 259.066406 92.058594 258.882812 91.742188 258.726562 91.40625 C 258.570312 91.070312 258.449219 90.71875 258.363281 90.359375 C 258.273438 90 258.222656 89.636719 258.207031 89.265625 C 258.191406 88.894531 258.214844 88.527344 258.269531 88.160156 C 258.328125 87.796875 258.421875 87.4375 258.546875 87.089844 C 258.675781 86.742188 258.835938 86.410156 259.027344 86.09375 C 259.21875 85.777344 259.441406 85.484375 259.691406 85.210938 C 259.945312 84.9375 260.21875 84.695312 260.519531 84.476562 C 260.816406 84.257812 261.132812 84.070312 261.46875 83.914062 C 261.804688 83.757812 262.152344 83.636719 262.515625 83.546875 C 262.875 83.460938 263.238281 83.410156 263.609375 83.394531 C 263.980469 83.378906 264.347656 83.398438 264.710938 83.453125 C 265.078125 83.511719 265.4375 83.601562 265.785156 83.730469 C 266.132812 83.855469 266.464844 84.015625 266.78125 84.210938 L 289 97.753906 C 289.527344 98.074219 289.988281 98.46875 290.382812 98.941406 C 290.78125 99.410156 291.089844 99.933594 291.316406 100.507812 C 291.542969 101.078125 291.667969 101.675781 291.699219 102.289062 C 291.730469 102.902344 291.664062 103.507812 291.496094 104.101562 C 291.328125 104.695312 291.074219 105.246094 290.726562 105.753906 C 290.378906 106.261719 289.960938 106.703125 289.46875 107.074219 C 288.976562 107.445312 288.441406 107.730469 287.855469 107.925781 C 287.273438 108.121094 286.671875 108.21875 286.058594 108.21875 Z M 286.058594 108.21875 " fill-opacity="1" fill-rule="nonzero"/><path fill="#ffffff" d="M 271.6875 131.785156 C 270.628906 131.785156 269.652344 131.511719 268.75 130.960938 L 245.910156 117.039062 C 245.59375 116.84375 245.300781 116.625 245.027344 116.371094 C 244.753906 116.121094 244.507812 115.847656 244.289062 115.546875 C 244.070312 115.246094 243.882812 114.929688 243.730469 114.59375 C 243.574219 114.257812 243.449219 113.910156 243.363281 113.550781 C 243.277344 113.1875 243.226562 112.824219 243.210938 112.453125 C 243.195312 112.082031 243.214844 111.714844 243.273438 111.347656 C 243.328125 110.980469 243.421875 110.625 243.546875 110.277344 C 243.675781 109.929688 243.835938 109.597656 244.027344 109.28125 C 244.222656 108.964844 244.445312 108.667969 244.695312 108.394531 C 244.945312 108.125 245.222656 107.878906 245.519531 107.660156 C 245.820312 107.441406 246.136719 107.253906 246.472656 107.097656 C 246.808594 106.941406 247.160156 106.820312 247.519531 106.730469 C 247.878906 106.644531 248.242188 106.59375 248.613281 106.578125 C 248.984375 106.5625 249.351562 106.582031 249.71875 106.640625 C 250.085938 106.699219 250.441406 106.789062 250.789062 106.917969 C 251.136719 107.042969 251.472656 107.203125 251.789062 107.398438 L 274.632812 121.320312 C 275.15625 121.640625 275.617188 122.035156 276.015625 122.507812 C 276.410156 122.980469 276.722656 123.5 276.949219 124.074219 C 277.171875 124.648438 277.300781 125.242188 277.332031 125.855469 C 277.363281 126.472656 277.296875 127.074219 277.128906 127.667969 C 276.960938 128.261719 276.707031 128.8125 276.359375 129.320312 C 276.011719 129.828125 275.59375 130.269531 275.101562 130.640625 C 274.609375 131.011719 274.074219 131.296875 273.488281 131.492188 C 272.90625 131.6875 272.304688 131.785156 271.6875 131.785156 Z M 271.6875 131.785156 " fill-opacity="1" fill-rule="nonzero"/><path fill="#ffffff" d="M 243.023438 168.96875 C 242.652344 168.96875 242.285156 168.929688 241.921875 168.859375 C 241.558594 168.785156 241.207031 168.679688 240.863281 168.539062 C 240.519531 168.394531 240.195312 168.222656 239.886719 168.015625 C 239.578125 167.808594 239.292969 167.578125 239.03125 167.3125 C 238.769531 167.050781 238.535156 166.765625 238.328125 166.457031 C 238.125 166.152344 237.949219 165.824219 237.808594 165.484375 C 237.667969 165.140625 237.558594 164.789062 237.488281 164.425781 C 237.414062 164.0625 237.378906 163.695312 237.378906 163.324219 L 237.378906 79.109375 L 167.726562 79.109375 L 167.726562 163.324219 C 167.726562 163.695312 167.691406 164.0625 167.617188 164.425781 C 167.542969 164.789062 167.4375 165.140625 167.296875 165.484375 C 167.152344 165.824219 166.980469 166.152344 166.773438 166.457031 C 166.570312 166.765625 166.335938 167.050781 166.074219 167.3125 C 165.808594 167.578125 165.523438 167.808594 165.21875 168.015625 C 164.910156 168.222656 164.582031 168.394531 164.242188 168.539062 C 163.898438 168.679688 163.546875 168.785156 163.183594 168.859375 C 162.820312 168.929688 162.453125 168.96875 162.082031 168.96875 C 161.710938 168.96875 161.34375 168.929688 160.980469 168.859375 C 160.617188 168.785156 160.261719 168.679688 159.921875 168.539062 C 159.578125 168.394531 159.253906 168.222656 158.945312 168.015625 C 158.636719 167.808594 158.351562 167.578125 158.089844 167.3125 C 157.828125 167.050781 157.59375 166.765625 157.386719 166.457031 C 157.183594 166.152344 157.007812 165.824219 156.867188 165.484375 C 156.722656 165.140625 156.617188 164.789062 156.546875 164.425781 C 156.472656 164.0625 156.4375 163.695312 156.4375 163.324219 L 156.4375 73.464844 C 156.4375 73.09375 156.472656 72.726562 156.546875 72.363281 C 156.617188 72 156.722656 71.644531 156.867188 71.304688 C 157.007812 70.960938 157.183594 70.636719 157.386719 70.328125 C 157.59375 70.019531 157.828125 69.734375 158.089844 69.472656 C 158.351562 69.210938 158.636719 68.976562 158.945312 68.769531 C 159.253906 68.5625 159.578125 68.390625 159.921875 68.25 C 160.261719 68.105469 160.617188 68 160.980469 67.925781 C 161.34375 67.855469 161.710938 67.820312 162.082031 67.820312 L 243.023438 67.820312 C 243.394531 67.820312 243.761719 67.855469 244.125 67.925781 C 244.488281 68 244.839844 68.105469 245.183594 68.25 C 245.523438 68.390625 245.851562 68.5625 246.160156 68.769531 C 246.464844 68.976562 246.75 69.210938 247.015625 69.472656 C 247.277344 69.734375 247.511719 70.019531 247.714844 70.328125 C 247.921875 70.636719 248.09375 70.960938 248.238281 71.304688 C 248.378906 71.644531 248.488281 72 248.558594 72.363281 C 248.632812 72.726562 248.667969 73.09375 248.667969 73.464844 L 248.667969 163.324219 C 248.667969 163.695312 248.632812 164.0625 248.558594 164.425781 C 248.488281 164.789062 248.378906 165.140625 248.238281 165.484375 C 248.09375 165.824219 247.921875 166.152344 247.714844 166.457031 C 247.511719 166.765625 247.277344 167.050781 247.015625 167.3125 C 246.75 167.578125 246.464844 167.808594 246.160156 168.015625 C 245.851562 168.222656 245.523438 168.394531 245.183594 168.539062 C 244.839844 168.679688 244.488281 168.785156 244.125 168.859375 C 243.761719 168.929688 243.394531 168.96875 243.023438 168.96875 Z M 243.023438 168.96875 " fill-opacity="1" fill-rule="nonzero"/><path fill="#ffffff" d="M 243.042969 79.109375 C 242.449219 79.109375 241.871094 79.019531 241.304688 78.835938 C 240.742188 78.652344 240.21875 78.386719 239.734375 78.039062 C 239.253906 77.6875 238.839844 77.273438 238.488281 76.796875 C 238.136719 76.316406 237.867188 75.792969 237.683594 75.230469 L 233.519531 62.605469 C 233.25 61.773438 232.855469 61.003906 232.339844 60.300781 C 231.824219 59.59375 231.214844 58.984375 230.503906 58.472656 C 229.796875 57.960938 229.027344 57.570312 228.195312 57.300781 C 227.363281 57.03125 226.511719 56.898438 225.636719 56.898438 L 179.460938 56.898438 C 178.589844 56.898438 177.734375 57.03125 176.902344 57.300781 C 176.074219 57.566406 175.304688 57.957031 174.59375 58.46875 C 173.886719 58.980469 173.273438 59.589844 172.757812 60.296875 C 172.242188 61 171.847656 61.769531 171.578125 62.601562 L 167.417969 75.226562 C 167.304688 75.582031 167.15625 75.925781 166.976562 76.25 C 166.796875 76.578125 166.585938 76.882812 166.34375 77.167969 C 166.101562 77.449219 165.835938 77.710938 165.542969 77.941406 C 165.25 78.171875 164.9375 78.371094 164.605469 78.542969 C 164.273438 78.710938 163.929688 78.847656 163.570312 78.949219 C 163.210938 79.050781 162.84375 79.113281 162.472656 79.144531 C 162.101562 79.171875 161.730469 79.164062 161.359375 79.117188 C 160.988281 79.074219 160.628906 78.992188 160.273438 78.875 C 159.917969 78.757812 159.578125 78.609375 159.253906 78.425781 C 158.929688 78.242188 158.628906 78.027344 158.34375 77.78125 C 158.0625 77.539062 157.808594 77.269531 157.578125 76.972656 C 157.351562 76.679688 157.152344 76.363281 156.988281 76.03125 C 156.820312 75.695312 156.6875 75.351562 156.589844 74.992188 C 156.492188 74.628906 156.433594 74.265625 156.40625 73.890625 C 156.382812 73.519531 156.394531 73.148438 156.445312 72.777344 C 156.492188 72.410156 156.578125 72.046875 156.695312 71.695312 L 160.855469 59.070312 C 161.175781 58.097656 161.566406 57.152344 162.035156 56.242188 C 162.503906 55.328125 163.039062 54.460938 163.644531 53.632812 C 164.246094 52.804688 164.914062 52.027344 165.640625 51.304688 C 166.367188 50.582031 167.144531 49.921875 167.972656 49.320312 C 168.804688 48.71875 169.675781 48.1875 170.589844 47.722656 C 171.503906 47.257812 172.449219 46.871094 173.425781 46.554688 C 174.398438 46.238281 175.394531 46.003906 176.40625 45.84375 C 177.417969 45.6875 178.4375 45.605469 179.460938 45.609375 L 225.636719 45.609375 C 226.664062 45.609375 227.679688 45.6875 228.695312 45.84375 C 229.707031 46.003906 230.699219 46.242188 231.675781 46.554688 C 232.652344 46.871094 233.59375 47.261719 234.507812 47.722656 C 235.421875 48.1875 236.296875 48.71875 237.125 49.320312 C 237.957031 49.921875 238.734375 50.582031 239.460938 51.304688 C 240.1875 52.027344 240.851562 52.804688 241.457031 53.632812 C 242.0625 54.460938 242.597656 55.328125 243.066406 56.242188 C 243.53125 57.152344 243.925781 58.097656 244.246094 59.070312 L 248.40625 71.695312 C 248.546875 72.121094 248.632812 72.554688 248.671875 73 C 248.707031 73.445312 248.691406 73.886719 248.621094 74.328125 C 248.554688 74.769531 248.433594 75.195312 248.265625 75.609375 C 248.09375 76.019531 247.878906 76.40625 247.617188 76.769531 C 247.355469 77.128906 247.054688 77.457031 246.714844 77.746094 C 246.378906 78.039062 246.007812 78.285156 245.613281 78.488281 C 245.214844 78.691406 244.800781 78.847656 244.367188 78.949219 C 243.933594 79.054688 243.492188 79.109375 243.046875 79.109375 Z M 243.042969 79.109375 " fill-opacity="1" fill-rule="nonzero"/><path fill="#ffffff" d="M 202.546875 142.484375 C 201.765625 142.484375 200.984375 142.445312 200.207031 142.367188 C 199.429688 142.292969 198.65625 142.175781 197.890625 142.023438 C 197.125 141.871094 196.367188 141.683594 195.621094 141.453125 C 194.871094 141.226562 194.136719 140.964844 193.414062 140.664062 C 192.691406 140.367188 191.988281 140.03125 191.296875 139.664062 C 190.609375 139.296875 189.9375 138.894531 189.289062 138.460938 C 188.640625 138.027344 188.011719 137.5625 187.410156 137.066406 C 186.804688 136.570312 186.226562 136.042969 185.671875 135.492188 C 185.121094 134.9375 184.597656 134.359375 184.101562 133.757812 C 183.605469 133.152344 183.140625 132.523438 182.707031 131.875 C 182.273438 131.226562 181.871094 130.554688 181.503906 129.867188 C 181.132812 129.175781 180.800781 128.472656 180.5 127.75 C 180.203125 127.027344 179.9375 126.292969 179.710938 125.542969 C 179.484375 124.796875 179.296875 124.039062 179.144531 123.273438 C 178.992188 122.503906 178.875 121.734375 178.800781 120.957031 C 178.722656 120.179688 178.683594 119.398438 178.683594 118.617188 C 178.683594 117.835938 178.722656 117.054688 178.800781 116.277344 C 178.878906 115.5 178.992188 114.726562 179.144531 113.960938 C 179.296875 113.195312 179.488281 112.4375 179.714844 111.6875 C 179.941406 110.941406 180.203125 110.207031 180.503906 109.484375 C 180.800781 108.761719 181.136719 108.054688 181.503906 107.367188 C 181.871094 106.679688 182.273438 106.007812 182.707031 105.359375 C 183.144531 104.707031 183.609375 104.082031 184.105469 103.476562 C 184.597656 102.875 185.125 102.296875 185.675781 101.742188 C 186.230469 101.191406 186.808594 100.664062 187.410156 100.171875 C 188.015625 99.675781 188.644531 99.210938 189.292969 98.773438 C 189.941406 98.339844 190.613281 97.941406 191.300781 97.570312 C 191.992188 97.203125 192.695312 96.867188 193.417969 96.570312 C 194.140625 96.269531 194.875 96.007812 195.625 95.78125 C 196.371094 95.554688 197.128906 95.363281 197.894531 95.210938 C 198.664062 95.058594 199.433594 94.945312 200.210938 94.867188 C 200.988281 94.792969 201.769531 94.753906 202.550781 94.753906 C 203.332031 94.753906 204.113281 94.792969 204.890625 94.867188 C 205.667969 94.945312 206.441406 95.058594 207.207031 95.210938 C 207.972656 95.367188 208.730469 95.554688 209.480469 95.78125 C 210.226562 96.007812 210.960938 96.273438 211.683594 96.570312 C 212.40625 96.871094 213.113281 97.203125 213.800781 97.574219 C 214.488281 97.941406 215.160156 98.34375 215.808594 98.777344 C 216.460938 99.210938 217.085938 99.675781 217.691406 100.171875 C 218.292969 100.667969 218.871094 101.191406 219.425781 101.746094 C 219.976562 102.296875 220.503906 102.875 221 103.480469 C 221.492188 104.082031 221.960938 104.710938 222.394531 105.359375 C 222.828125 106.011719 223.230469 106.679688 223.597656 107.371094 C 223.964844 108.058594 224.300781 108.765625 224.597656 109.488281 C 224.898438 110.207031 225.160156 110.945312 225.386719 111.691406 C 225.613281 112.4375 225.804688 113.195312 225.957031 113.964844 C 226.109375 114.730469 226.222656 115.5 226.300781 116.28125 C 226.375 117.058594 226.414062 117.835938 226.414062 118.617188 C 226.414062 119.398438 226.375 120.179688 226.296875 120.957031 C 226.21875 121.734375 226.105469 122.507812 225.953125 123.273438 C 225.800781 124.039062 225.609375 124.796875 225.382812 125.542969 C 225.152344 126.292969 224.890625 127.027344 224.589844 127.75 C 224.292969 128.46875 223.957031 129.175781 223.589844 129.863281 C 223.21875 130.554688 222.820312 131.222656 222.382812 131.871094 C 221.949219 132.523438 221.484375 133.148438 220.988281 133.753906 C 220.492188 134.355469 219.96875 134.933594 219.417969 135.488281 C 218.863281 136.039062 218.285156 136.5625 217.679688 137.058594 C 217.078125 137.554688 216.449219 138.019531 215.800781 138.453125 C 215.152344 138.890625 214.480469 139.289062 213.792969 139.660156 C 213.105469 140.027344 212.398438 140.363281 211.675781 140.660156 C 210.953125 140.960938 210.21875 141.222656 209.472656 141.449219 C 208.726562 141.679688 207.96875 141.867188 207.203125 142.019531 C 206.433594 142.175781 205.664062 142.289062 204.886719 142.367188 C 204.109375 142.445312 203.328125 142.484375 202.546875 142.484375 Z M 202.546875 106.042969 C 201.722656 106.042969 200.902344 106.125 200.09375 106.285156 C 199.285156 106.445312 198.496094 106.683594 197.734375 107 C 196.972656 107.316406 196.246094 107.703125 195.5625 108.164062 C 194.875 108.621094 194.238281 109.144531 193.65625 109.726562 C 193.070312 110.3125 192.550781 110.949219 192.09375 111.632812 C 191.632812 112.320312 191.246094 113.046875 190.929688 113.808594 C 190.613281 114.570312 190.375 115.359375 190.214844 116.167969 C 190.054688 116.976562 189.972656 117.796875 189.972656 118.621094 C 189.972656 119.445312 190.054688 120.265625 190.214844 121.074219 C 190.378906 121.882812 190.617188 122.671875 190.933594 123.433594 C 191.25 124.195312 191.636719 124.921875 192.09375 125.605469 C 192.554688 126.292969 193.074219 126.929688 193.660156 127.511719 C 194.242188 128.097656 194.878906 128.617188 195.566406 129.074219 C 196.25 129.535156 196.976562 129.921875 197.738281 130.238281 C 198.5 130.554688 199.289062 130.792969 200.097656 130.953125 C 200.90625 131.113281 201.726562 131.195312 202.550781 131.195312 C 203.378906 131.195312 204.195312 131.113281 205.003906 130.953125 C 205.816406 130.792969 206.601562 130.554688 207.363281 130.238281 C 208.125 129.921875 208.851562 129.535156 209.539062 129.074219 C 210.222656 128.617188 210.859375 128.09375 211.441406 127.511719 C 212.027344 126.925781 212.546875 126.292969 213.007812 125.605469 C 213.464844 124.917969 213.851562 124.195312 214.167969 123.429688 C 214.484375 122.667969 214.722656 121.882812 214.882812 121.070312 C 215.046875 120.261719 215.125 119.445312 215.125 118.617188 C 215.125 117.792969 215.042969 116.976562 214.882812 116.164062 C 214.71875 115.355469 214.480469 114.570312 214.164062 113.808594 C 213.847656 113.046875 213.460938 112.320312 213 111.632812 C 212.542969 110.949219 212.019531 110.3125 211.4375 109.730469 C 210.851562 109.144531 210.21875 108.625 209.53125 108.164062 C 208.84375 107.707031 208.121094 107.320312 207.359375 107.003906 C 206.59375 106.6875 205.808594 106.449219 205 106.285156 C 204.191406 106.125 203.371094 106.042969 202.546875 106.042969 Z M 202.546875 106.042969 " fill-opacity="1" fill-rule="nonzero"/><path fill="#ffffff" d="M 191.996094 326.722656 C 191.132812 326.722656 190.308594 326.53125 189.53125 326.15625 C 183.488281 322.972656 177.8125 319.238281 172.5 314.949219 C 167.1875 310.65625 162.339844 305.894531 157.957031 300.660156 C 155.925781 298.390625 154.164062 295.933594 152.675781 293.28125 C 151.183594 290.628906 150 287.84375 149.117188 284.933594 C 148.238281 282.019531 147.6875 279.046875 147.460938 276.011719 C 147.234375 272.976562 147.339844 269.953125 147.773438 266.941406 C 148.1875 265.050781 148.8125 263.234375 149.652344 261.492188 C 150.488281 259.75 151.519531 258.128906 152.738281 256.625 C 153.960938 255.125 155.339844 253.785156 156.875 252.609375 C 158.410156 251.429688 160.058594 250.449219 161.824219 249.660156 C 163.03125 249.046875 164.277344 248.53125 165.5625 248.105469 C 166.84375 247.683594 168.152344 247.359375 169.488281 247.132812 C 170.820312 246.910156 172.164062 246.785156 173.515625 246.765625 C 174.867188 246.742188 176.214844 246.824219 177.554688 247.007812 C 178.894531 247.1875 180.210938 247.472656 181.507812 247.855469 C 182.804688 248.238281 184.066406 248.714844 185.292969 249.289062 C 186.515625 249.863281 187.691406 250.527344 188.8125 251.277344 C 189.9375 252.027344 191 252.863281 191.996094 253.773438 C 192.996094 252.863281 194.054688 252.03125 195.179688 251.277344 C 196.304688 250.527344 197.476562 249.863281 198.703125 249.289062 C 199.925781 248.714844 201.1875 248.238281 202.484375 247.855469 C 203.78125 247.472656 205.097656 247.191406 206.4375 247.007812 C 207.777344 246.824219 209.125 246.746094 210.476562 246.765625 C 211.828125 246.789062 213.171875 246.910156 214.503906 247.136719 C 215.835938 247.359375 217.144531 247.683594 218.429688 248.105469 C 219.714844 248.53125 220.960938 249.046875 222.164062 249.660156 C 223.929688 250.449219 225.582031 251.433594 227.117188 252.609375 C 228.652344 253.785156 230.03125 255.125 231.253906 256.625 C 232.472656 258.128906 233.503906 259.75 234.34375 261.496094 C 235.183594 263.238281 235.808594 265.054688 236.21875 266.945312 C 236.65625 269.957031 236.761719 272.980469 236.535156 276.015625 C 236.308594 279.046875 235.753906 282.023438 234.875 284.933594 C 233.992188 287.847656 232.808594 290.628906 231.316406 293.28125 C 229.824219 295.933594 228.0625 298.394531 226.03125 300.660156 C 221.652344 305.894531 216.804688 310.65625 211.492188 314.949219 C 206.179688 319.238281 200.503906 322.972656 194.460938 326.15625 C 193.683594 326.53125 192.863281 326.722656 191.996094 326.722656 Z M 174.039062 258.042969 C 171.464844 258.074219 169.03125 258.671875 166.730469 259.828125 C 165.734375 260.246094 164.804688 260.773438 163.9375 261.417969 C 163.066406 262.058594 162.289062 262.792969 161.597656 263.625 C 160.910156 264.453125 160.328125 265.351562 159.855469 266.324219 C 159.382812 267.292969 159.03125 268.304688 158.800781 269.359375 C 158.574219 271.535156 158.574219 273.707031 158.804688 275.878906 C 159.035156 278.050781 159.488281 280.175781 160.167969 282.253906 C 160.84375 284.332031 161.730469 286.316406 162.824219 288.207031 C 163.921875 290.097656 165.199219 291.851562 166.664062 293.472656 C 173.878906 302.007812 182.324219 309.070312 191.996094 314.660156 C 201.671875 309.066406 210.113281 302.007812 217.324219 293.472656 C 218.789062 291.851562 220.070312 290.097656 221.167969 288.207031 C 222.261719 286.316406 223.148438 284.332031 223.824219 282.253906 C 224.503906 280.179688 224.957031 278.054688 225.1875 275.882812 C 225.417969 273.707031 225.417969 271.535156 225.191406 269.363281 C 224.964844 268.308594 224.613281 267.292969 224.140625 266.324219 C 223.667969 265.351562 223.085938 264.453125 222.394531 263.625 C 221.703125 262.792969 220.925781 262.058594 220.054688 261.417969 C 219.1875 260.773438 218.253906 260.246094 217.257812 259.828125 C 216.382812 259.410156 215.480469 259.070312 214.542969 258.8125 C 213.609375 258.550781 212.660156 258.378906 211.691406 258.285156 C 210.726562 258.195312 209.761719 258.1875 208.792969 258.265625 C 207.824219 258.347656 206.875 258.511719 205.933594 258.757812 C 204.996094 259.003906 204.085938 259.332031 203.207031 259.742188 C 202.328125 260.148438 201.488281 260.628906 200.695312 261.1875 C 199.898438 261.742188 199.160156 262.363281 198.472656 263.050781 C 197.789062 263.738281 197.167969 264.480469 196.613281 265.277344 C 196.339844 265.625 196.03125 265.941406 195.683594 266.222656 C 195.339844 266.503906 194.964844 266.738281 194.566406 266.933594 C 194.164062 267.128906 193.75 267.277344 193.316406 267.378906 C 192.882812 267.476562 192.441406 267.527344 191.996094 267.527344 C 191.550781 267.527344 191.113281 267.476562 190.679688 267.378906 C 190.246094 267.277344 189.828125 267.128906 189.429688 266.933594 C 189.027344 266.738281 188.65625 266.503906 188.308594 266.222656 C 187.964844 265.941406 187.652344 265.625 187.378906 265.277344 C 186.605469 264.214844 185.726562 263.25 184.738281 262.386719 C 183.75 261.523438 182.679688 260.777344 181.527344 260.152344 C 180.371094 259.527344 179.164062 259.035156 177.898438 258.679688 C 176.636719 258.324219 175.347656 258.113281 174.039062 258.042969 Z M 174.039062 258.042969 " fill-opacity="1" fill-rule="nonzero"/><path fill="#ffffff" d="M 104.230469 168.96875 C 103.710938 168.96875 103.195312 168.898438 102.695312 168.753906 C 102.191406 168.613281 101.71875 168.40625 101.273438 168.132812 C 100.828125 167.859375 100.425781 167.53125 100.074219 167.144531 C 99.71875 166.761719 99.425781 166.335938 99.1875 165.871094 C 97.679688 162.894531 96.539062 159.785156 95.769531 156.542969 C 95 153.296875 94.621094 150.007812 94.628906 146.671875 C 94.632812 145.253906 94.703125 143.835938 94.84375 142.425781 C 94.984375 141.011719 95.191406 139.609375 95.472656 138.21875 C 95.75 136.828125 96.09375 135.453125 96.507812 134.09375 C 96.921875 132.734375 97.398438 131.402344 97.941406 130.089844 C 98.488281 128.78125 99.09375 127.5 99.761719 126.246094 C 100.433594 124.996094 101.160156 123.78125 101.949219 122.601562 C 102.738281 121.421875 103.585938 120.28125 104.484375 119.183594 C 105.386719 118.085938 106.335938 117.039062 107.339844 116.035156 C 108.34375 115.03125 109.394531 114.078125 110.492188 113.175781 C 111.589844 112.277344 112.726562 111.433594 113.90625 110.644531 C 115.085938 109.855469 116.304688 109.125 117.554688 108.457031 C 118.804688 107.785156 120.085938 107.179688 121.398438 106.636719 C 122.707031 106.089844 124.042969 105.613281 125.402344 105.199219 C 126.757812 104.789062 128.132812 104.441406 129.527344 104.164062 C 130.917969 103.886719 132.320312 103.675781 133.730469 103.535156 C 135.144531 103.394531 136.558594 103.324219 137.980469 103.324219 C 140.496094 103.3125 142.992188 103.519531 145.472656 103.953125 C 147.949219 104.382812 150.371094 105.027344 152.734375 105.886719 C 155.101562 106.742188 157.371094 107.800781 159.550781 109.0625 C 161.726562 110.320312 163.777344 111.761719 165.699219 113.386719 C 165.996094 113.621094 166.261719 113.878906 166.507812 114.167969 C 166.75 114.457031 166.960938 114.765625 167.140625 115.097656 C 167.320312 115.425781 167.46875 115.769531 167.578125 116.132812 C 167.691406 116.492188 167.765625 116.859375 167.804688 117.230469 C 167.84375 117.605469 167.84375 117.980469 167.808594 118.355469 C 167.769531 118.730469 167.695312 119.097656 167.585938 119.457031 C 167.476562 119.820312 167.332031 120.164062 167.152344 120.496094 C 166.972656 120.828125 166.761719 121.136719 166.519531 121.425781 C 166.277344 121.714844 166.011719 121.976562 165.71875 122.210938 C 165.421875 122.445312 165.109375 122.652344 164.773438 122.824219 C 164.4375 122.996094 164.089844 123.132812 163.730469 123.234375 C 163.367188 123.339844 162.996094 123.40625 162.621094 123.433594 C 162.246094 123.460938 161.871094 123.453125 161.5 123.40625 C 161.125 123.359375 160.757812 123.277344 160.402344 123.160156 C 160.042969 123.039062 159.703125 122.886719 159.375 122.699219 C 159.050781 122.511719 158.746094 122.292969 158.460938 122.042969 C 157.042969 120.847656 155.527344 119.78125 153.917969 118.851562 C 152.308594 117.921875 150.628906 117.140625 148.882812 116.503906 C 147.136719 115.871094 145.347656 115.394531 143.515625 115.078125 C 141.683594 114.757812 139.839844 114.605469 137.980469 114.609375 C 136.929688 114.613281 135.882812 114.664062 134.839844 114.769531 C 133.792969 114.875 132.757812 115.027344 131.726562 115.234375 C 130.699219 115.4375 129.679688 115.695312 128.675781 116 C 127.671875 116.304688 126.6875 116.660156 125.714844 117.0625 C 124.746094 117.464844 123.800781 117.914062 122.875 118.410156 C 121.949219 118.902344 121.050781 119.441406 120.175781 120.027344 C 119.304688 120.609375 118.460938 121.234375 117.652344 121.902344 C 116.839844 122.566406 116.0625 123.269531 115.320312 124.011719 C 114.578125 124.753906 113.875 125.53125 113.207031 126.34375 C 112.542969 127.15625 111.917969 127.996094 111.332031 128.867188 C 110.75 129.742188 110.210938 130.640625 109.714844 131.566406 C 109.21875 132.492188 108.773438 133.4375 108.371094 134.410156 C 107.96875 135.378906 107.613281 136.363281 107.308594 137.371094 C 107.003906 138.375 106.746094 139.390625 106.542969 140.417969 C 106.335938 141.449219 106.179688 142.484375 106.078125 143.53125 C 105.972656 144.574219 105.921875 145.621094 105.917969 146.671875 C 105.902344 151.640625 107.015625 156.34375 109.265625 160.773438 C 109.375 160.988281 109.46875 161.210938 109.546875 161.433594 C 109.628906 161.660156 109.691406 161.890625 109.742188 162.125 C 109.792969 162.359375 109.832031 162.597656 109.851562 162.835938 C 109.871094 163.074219 109.875 163.316406 109.867188 163.554688 C 109.855469 163.796875 109.832031 164.03125 109.792969 164.269531 C 109.75 164.507812 109.695312 164.738281 109.625 164.96875 C 109.554688 165.199219 109.472656 165.421875 109.371094 165.640625 C 109.273438 165.859375 109.160156 166.070312 109.035156 166.277344 C 108.910156 166.480469 108.773438 166.675781 108.621094 166.863281 C 108.472656 167.050781 108.308594 167.226562 108.136719 167.394531 C 107.964844 167.558594 107.78125 167.714844 107.585938 167.855469 C 107.394531 168 107.195312 168.128906 106.984375 168.246094 C 106.773438 168.363281 106.558594 168.46875 106.335938 168.558594 C 106.113281 168.644531 105.886719 168.722656 105.65625 168.78125 C 105.421875 168.84375 105.1875 168.886719 104.949219 168.917969 C 104.710938 168.949219 104.472656 168.964844 104.230469 168.964844 Z M 104.230469 168.96875 " fill-opacity="1" fill-rule="nonzero"/><path fill="#ffffff" d="M 122.703125 117.863281 C 122.144531 117.863281 121.601562 117.78125 121.070312 117.621094 C 120.535156 117.460938 120.039062 117.226562 119.574219 116.917969 C 119.109375 116.609375 118.703125 116.242188 118.347656 115.8125 C 117.992188 115.382812 117.710938 114.910156 117.496094 114.398438 C 117.1875 113.632812 116.816406 112.898438 116.390625 112.195312 C 115.960938 111.492188 115.476562 110.828125 114.941406 110.203125 C 114.402344 109.578125 113.816406 109.003906 113.183594 108.472656 C 112.554688 107.945312 111.882812 107.472656 111.171875 107.054688 C 110.460938 106.636719 109.722656 106.277344 108.953125 105.980469 C 108.1875 105.683594 107.398438 105.453125 106.589844 105.285156 C 105.785156 105.117188 104.96875 105.015625 104.148438 104.980469 C 103.324219 104.949219 102.503906 104.980469 101.683594 105.082031 C 101.320312 105.136719 100.949219 105.152344 100.582031 105.132812 C 100.210938 105.117188 99.84375 105.0625 99.484375 104.972656 C 99.125 104.882812 98.78125 104.757812 98.445312 104.597656 C 98.109375 104.441406 97.792969 104.25 97.496094 104.03125 C 97.199219 103.808594 96.925781 103.5625 96.675781 103.285156 C 96.425781 103.011719 96.207031 102.714844 96.019531 102.398438 C 95.828125 102.078125 95.667969 101.746094 95.542969 101.398438 C 95.421875 101.046875 95.332031 100.691406 95.277344 100.324219 C 95.222656 99.957031 95.203125 99.589844 95.222656 99.21875 C 95.242188 98.847656 95.292969 98.484375 95.386719 98.125 C 95.476562 97.765625 95.597656 97.417969 95.757812 97.082031 C 95.917969 96.746094 96.105469 96.429688 96.328125 96.132812 C 96.546875 95.835938 96.796875 95.5625 97.070312 95.3125 C 97.34375 95.066406 97.640625 94.84375 97.957031 94.65625 C 98.277344 94.464844 98.609375 94.308594 98.957031 94.183594 C 99.308594 94.058594 99.664062 93.96875 100.03125 93.914062 C 101.46875 93.722656 102.90625 93.652344 104.355469 93.699219 C 105.800781 93.742188 107.234375 93.910156 108.65625 94.191406 C 110.078125 94.472656 111.464844 94.871094 112.820312 95.382812 C 114.171875 95.894531 115.476562 96.511719 116.730469 97.238281 C 117.984375 97.964844 119.167969 98.785156 120.285156 99.707031 C 121.402344 100.628906 122.4375 101.632812 123.390625 102.726562 C 124.339844 103.816406 125.199219 104.976562 125.957031 106.210938 C 126.71875 107.441406 127.375 108.726562 127.921875 110.066406 C 128.0625 110.410156 128.171875 110.761719 128.242188 111.125 C 128.3125 111.488281 128.347656 111.855469 128.347656 112.226562 C 128.347656 112.597656 128.308594 112.964844 128.234375 113.328125 C 128.164062 113.691406 128.054688 114.042969 127.914062 114.386719 C 127.769531 114.726562 127.59375 115.054688 127.386719 115.359375 C 127.179688 115.667969 126.945312 115.953125 126.683594 116.214844 C 126.421875 116.476562 126.136719 116.710938 125.828125 116.914062 C 125.519531 117.121094 125.191406 117.292969 124.851562 117.433594 C 124.164062 117.71875 123.449219 117.863281 122.703125 117.863281 Z M 122.703125 117.863281 " fill-opacity="1" fill-rule="nonzero"/><path fill="#ffffff" d="M 73.464844 168.988281 C 72.726562 168.988281 72.015625 168.851562 71.332031 168.570312 C 69.738281 167.917969 32.292969 152.328125 34.824219 126.714844 C 34.9375 125.109375 35.214844 123.535156 35.660156 121.988281 C 36.101562 120.441406 36.703125 118.957031 37.457031 117.539062 C 38.210938 116.117188 39.109375 114.792969 40.144531 113.558594 C 41.179688 112.328125 42.328125 111.214844 43.597656 110.226562 C 45.871094 108.609375 48.320312 107.320312 50.9375 106.363281 C 53.558594 105.402344 56.257812 104.800781 59.039062 104.5625 C 47.296875 89.042969 29.6875 60.859375 44.253906 47.144531 C 58.359375 33.882812 83.910156 50.625 98.71875 62.589844 C 98.800781 59.554688 99.316406 56.597656 100.261719 53.714844 C 101.207031 50.832031 102.546875 48.144531 104.277344 45.648438 C 105.109375 44.582031 106.050781 43.613281 107.09375 42.746094 C 108.136719 41.878906 109.261719 41.136719 110.464844 40.515625 C 111.671875 39.894531 112.929688 39.40625 114.238281 39.058594 C 115.550781 38.710938 116.882812 38.503906 118.238281 38.445312 C 140.335938 36.832031 162.976562 88.753906 167.292969 99.152344 C 167.429688 99.492188 167.53125 99.84375 167.597656 100.203125 C 167.667969 100.566406 167.699219 100.929688 167.695312 101.296875 C 167.691406 101.664062 167.652344 102.027344 167.578125 102.386719 C 167.503906 102.746094 167.394531 103.09375 167.253906 103.433594 C 167.109375 103.769531 166.9375 104.09375 166.730469 104.398438 C 166.523438 104.699219 166.292969 104.984375 166.03125 105.242188 C 165.773438 105.5 165.488281 105.730469 165.183594 105.9375 C 164.878906 106.140625 164.554688 106.3125 164.21875 106.453125 C 163.878906 106.59375 163.527344 106.699219 163.167969 106.773438 C 162.808594 106.847656 162.445312 106.882812 162.078125 106.886719 C 161.710938 106.886719 161.347656 106.851562 160.988281 106.785156 C 160.625 106.714844 160.277344 106.613281 159.933594 106.472656 C 159.59375 106.335938 159.269531 106.167969 158.964844 105.964844 C 158.65625 105.765625 158.371094 105.539062 158.109375 105.28125 C 157.847656 105.023438 157.609375 104.746094 157.402344 104.441406 C 157.195312 104.140625 157.015625 103.820312 156.871094 103.484375 C 145.910156 77.132812 128.394531 49.265625 118.996094 49.707031 C 117.859375 49.71875 116.78125 49.976562 115.765625 50.480469 C 114.746094 50.984375 113.886719 51.683594 113.1875 52.578125 C 108.789062 58.230469 109.835938 70.632812 110.550781 74.535156 C 110.660156 75.121094 110.671875 75.707031 110.59375 76.296875 C 110.515625 76.886719 110.347656 77.453125 110.089844 77.988281 C 109.832031 78.523438 109.5 79.007812 109.089844 79.441406 C 108.679688 79.871094 108.214844 80.226562 107.691406 80.511719 C 107.167969 80.796875 106.613281 80.992188 106.027344 81.101562 C 105.441406 81.207031 104.855469 81.222656 104.265625 81.148438 C 103.675781 81.070312 103.113281 80.902344 102.574219 80.648438 C 102.039062 80.390625 101.550781 80.058594 101.121094 79.652344 C 86.042969 65.398438 59.996094 47.835938 51.992188 55.363281 C 44.027344 62.859375 61.136719 90.390625 75.214844 106.636719 C 75.59375 107.074219 75.898438 107.5625 76.128906 108.09375 C 76.359375 108.628906 76.503906 109.183594 76.5625 109.761719 C 76.621094 110.339844 76.589844 110.914062 76.472656 111.484375 C 76.351562 112.050781 76.152344 112.589844 75.867188 113.097656 C 75.582031 113.601562 75.226562 114.054688 74.800781 114.453125 C 74.378906 114.847656 73.902344 115.171875 73.378906 115.421875 C 72.855469 115.671875 72.304688 115.839844 71.730469 115.917969 C 71.152344 116 70.578125 115.992188 70.007812 115.894531 C 66.648438 115.300781 63.292969 115.289062 59.929688 115.859375 C 56.570312 116.425781 53.402344 117.546875 50.429688 119.214844 C 49.113281 120.265625 48.070312 121.542969 47.308594 123.042969 C 46.542969 124.546875 46.128906 126.140625 46.054688 127.824219 C 44.640625 142.148438 66.902344 154.550781 75.601562 158.121094 C 76.207031 158.371094 76.75 158.710938 77.238281 159.148438 C 77.722656 159.585938 78.121094 160.09375 78.429688 160.667969 C 78.742188 161.246094 78.945312 161.855469 79.042969 162.503906 C 79.140625 163.148438 79.125 163.792969 79 164.433594 C 78.871094 165.074219 78.640625 165.675781 78.308594 166.238281 C 77.972656 166.800781 77.550781 167.289062 77.046875 167.703125 C 76.542969 168.117188 75.980469 168.4375 75.367188 168.65625 C 74.75 168.878906 74.117188 168.988281 73.464844 168.988281 Z M 73.464844 168.988281 " fill-opacity="1" fill-rule="nonzero"/><path fill="#ffffff" d="M 100.863281 145.683594 C 100.441406 145.683594 100.027344 145.636719 99.617188 145.546875 L 64.601562 137.65625 C 64.238281 137.574219 63.890625 137.457031 63.550781 137.308594 C 63.210938 137.15625 62.890625 136.976562 62.585938 136.761719 C 62.285156 136.550781 62.003906 136.308594 61.75 136.039062 C 61.492188 135.769531 61.265625 135.480469 61.066406 135.167969 C 60.867188 134.851562 60.703125 134.523438 60.570312 134.175781 C 60.4375 133.832031 60.339844 133.476562 60.273438 133.109375 C 60.210938 132.746094 60.183594 132.375 60.195312 132.007812 C 60.203125 131.636719 60.25 131.269531 60.328125 130.90625 C 60.410156 130.546875 60.527344 130.195312 60.679688 129.855469 C 60.828125 129.515625 61.011719 129.195312 61.222656 128.894531 C 61.4375 128.589844 61.679688 128.3125 61.949219 128.054688 C 62.21875 127.800781 62.507812 127.574219 62.820312 127.375 C 63.136719 127.175781 63.464844 127.011719 63.8125 126.878906 C 64.15625 126.746094 64.511719 126.648438 64.878906 126.585938 C 65.242188 126.523438 65.613281 126.496094 65.984375 126.503906 C 66.355469 126.515625 66.71875 126.558594 67.082031 126.640625 L 102.097656 134.53125 C 102.433594 134.609375 102.761719 134.714844 103.078125 134.847656 C 103.394531 134.984375 103.695312 135.148438 103.980469 135.335938 C 104.269531 135.527344 104.535156 135.742188 104.78125 135.980469 C 105.03125 136.222656 105.253906 136.480469 105.453125 136.761719 C 105.652344 137.042969 105.828125 137.335938 105.972656 137.648438 C 106.117188 137.960938 106.234375 138.285156 106.320312 138.617188 C 106.40625 138.949219 106.464844 139.289062 106.488281 139.632812 C 106.511719 139.976562 106.507812 140.316406 106.46875 140.660156 C 106.429688 141.003906 106.363281 141.339844 106.261719 141.667969 C 106.164062 141.996094 106.035156 142.316406 105.878906 142.621094 C 105.71875 142.925781 105.535156 143.21875 105.324219 143.488281 C 105.117188 143.761719 104.882812 144.011719 104.625 144.242188 C 104.367188 144.472656 104.09375 144.675781 103.800781 144.855469 C 103.507812 145.035156 103.199219 145.1875 102.878906 145.308594 C 102.554688 145.433594 102.226562 145.527344 101.886719 145.589844 C 101.546875 145.652344 101.207031 145.683594 100.863281 145.683594 Z M 100.863281 145.683594 " fill-opacity="1" fill-rule="nonzero"/><path fill="#ffffff" d="M 139.082031 114.632812 C 138.480469 114.632812 137.890625 114.539062 137.320312 114.347656 C 136.746094 114.160156 136.21875 113.886719 135.734375 113.527344 C 135.25 113.171875 134.832031 112.746094 134.484375 112.253906 C 134.132812 111.761719 133.871094 111.230469 133.691406 110.652344 L 124.636719 81.359375 C 124.527344 81.003906 124.453125 80.644531 124.417969 80.273438 C 124.378906 79.90625 124.375 79.539062 124.410156 79.167969 C 124.445312 78.800781 124.515625 78.4375 124.621094 78.082031 C 124.726562 77.726562 124.867188 77.382812 125.039062 77.058594 C 125.210938 76.730469 125.414062 76.421875 125.648438 76.132812 C 125.882812 75.847656 126.140625 75.582031 126.425781 75.347656 C 126.710938 75.109375 127.019531 74.902344 127.34375 74.726562 C 127.671875 74.550781 128.011719 74.40625 128.363281 74.296875 C 128.71875 74.1875 129.078125 74.113281 129.449219 74.078125 C 129.816406 74.039062 130.1875 74.035156 130.554688 74.070312 C 130.925781 74.105469 131.285156 74.175781 131.640625 74.28125 C 131.996094 74.386719 132.339844 74.527344 132.667969 74.699219 C 132.996094 74.871094 133.300781 75.074219 133.589844 75.308594 C 133.878906 75.542969 134.140625 75.800781 134.375 76.085938 C 134.613281 76.371094 134.820312 76.679688 134.996094 77.003906 C 135.171875 77.332031 135.316406 77.671875 135.425781 78.023438 L 144.480469 107.320312 C 144.609375 107.742188 144.6875 108.171875 144.71875 108.613281 C 144.746094 109.054688 144.722656 109.492188 144.648438 109.929688 C 144.574219 110.367188 144.453125 110.785156 144.28125 111.195312 C 144.105469 111.601562 143.890625 111.980469 143.625 112.335938 C 143.363281 112.695312 143.0625 113.015625 142.726562 113.300781 C 142.386719 113.585938 142.023438 113.828125 141.628906 114.027344 C 141.234375 114.226562 140.820312 114.375 140.390625 114.480469 C 139.960938 114.582031 139.523438 114.632812 139.082031 114.632812 Z M 139.082031 114.632812 " fill-opacity="1" fill-rule="nonzero"/></svg>