<svg xmlns="http://www.w3.org/2000/svg" xmlns:xlink="http://www.w3.org/1999/xlink" width="512" zoomAndPan="magnify" viewBox="0 0 384 383.999986" height="512" preserveAspectRatio="xMidYMid meet" version="1.0"><defs><clipPath id="53a9322a52"><path d="M 49 313 L 77 313 L 77 337.691406 L 49 337.691406 Z M 49 313 " clip-rule="nonzero"/></clipPath><clipPath id="8776d809fb"><path d="M 307 313 L 335 313 L 335 337.691406 L 307 337.691406 Z M 307 313 " clip-rule="nonzero"/></clipPath></defs><path fill="#ffffff" d="M 274.632812 233.5 C 275.992188 234.875 277.566406 235.933594 279.347656 236.679688 C 281.128906 237.429688 282.988281 237.808594 284.921875 237.816406 L 285.050781 237.816406 C 286.011719 237.8125 286.964844 237.714844 287.90625 237.519531 C 288.847656 237.328125 289.761719 237.046875 290.648438 236.675781 C 291.535156 236.304688 292.375 235.851562 293.175781 235.316406 C 293.972656 234.777344 294.710938 234.171875 295.386719 233.488281 C 296.066406 232.808594 296.671875 232.070312 297.207031 231.269531 C 297.738281 230.46875 298.1875 229.625 298.558594 228.738281 C 298.925781 227.851562 299.203125 226.933594 299.390625 225.992188 C 299.578125 225.050781 299.675781 224.097656 299.675781 223.136719 L 299.675781 192.332031 L 270.300781 210.671875 L 270.300781 223.101562 C 270.296875 225.054688 270.671875 226.933594 271.421875 228.738281 C 272.171875 230.539062 273.242188 232.128906 274.632812 233.5 Z M 274.632812 233.5 " fill-opacity="1" fill-rule="nonzero"/><path fill="#ffffff" d="M 70.753906 274.53125 L 71.160156 274.53125 C 71.839844 274.527344 72.519531 274.5 73.195312 274.453125 C 73.871094 274.402344 74.546875 274.332031 75.222656 274.238281 C 75.894531 274.148438 76.5625 274.03125 77.226562 273.894531 C 77.894531 273.757812 78.554688 273.601562 79.207031 273.421875 C 79.863281 273.242188 80.511719 273.039062 81.152344 272.820312 C 81.796875 272.597656 82.429688 272.355469 83.054688 272.089844 C 83.679688 271.828125 84.296875 271.542969 84.90625 271.238281 C 85.511719 270.9375 86.109375 270.613281 86.695312 270.269531 C 87.28125 269.925781 87.855469 269.566406 88.421875 269.1875 C 88.984375 268.804688 89.53125 268.40625 90.070312 267.992188 C 90.605469 267.574219 91.128906 267.140625 91.636719 266.691406 C 92.144531 266.242188 92.636719 265.773438 93.117188 265.292969 C 93.59375 264.808594 94.054688 264.3125 94.5 263.800781 C 94.945312 263.285156 95.375 262.757812 95.785156 262.21875 C 96.195312 261.679688 96.589844 261.125 96.964844 260.558594 C 97.339844 259.992188 97.695312 259.414062 98.03125 258.824219 C 98.371094 258.234375 98.6875 257.636719 98.984375 257.023438 C 99.28125 256.414062 99.558594 255.792969 99.816406 255.167969 C 100.074219 254.539062 100.3125 253.902344 100.527344 253.257812 C 100.742188 252.613281 100.9375 251.964844 101.109375 251.304688 C 101.285156 250.648438 101.4375 249.988281 101.566406 249.320312 C 101.695312 248.65625 101.804688 247.984375 101.890625 247.3125 C 101.976562 246.636719 102.042969 245.960938 102.082031 245.285156 C 102.125 244.605469 102.144531 243.925781 102.144531 243.25 C 102.140625 242.570312 102.117188 241.890625 102.070312 241.214844 C 102.023438 240.535156 101.957031 239.859375 101.863281 239.1875 C 101.773438 238.515625 101.660156 237.84375 101.527344 237.179688 C 101.394531 236.511719 101.238281 235.851562 101.058594 235.195312 C 100.882812 234.542969 100.683594 233.894531 100.464844 233.25 C 100.242188 232.609375 100.003906 231.972656 99.742188 231.347656 C 99.480469 230.71875 99.199219 230.101562 98.894531 229.492188 C 98.59375 228.882812 98.273438 228.285156 97.933594 227.699219 C 97.589844 227.113281 97.230469 226.535156 96.855469 225.972656 C 96.476562 225.410156 96.078125 224.855469 95.664062 224.320312 C 95.25 223.78125 94.816406 223.257812 94.371094 222.746094 C 93.921875 222.238281 93.457031 221.742188 92.976562 221.261719 C 92.492188 220.785156 91.996094 220.320312 91.488281 219.875 C 90.976562 219.425781 90.449219 218.996094 89.910156 218.582031 C 89.371094 218.171875 88.820312 217.777344 88.253906 217.398438 C 87.6875 217.023438 87.113281 216.664062 86.523438 216.328125 C 85.933594 215.988281 85.335938 215.667969 84.726562 215.367188 C 84.117188 215.070312 83.5 214.789062 82.871094 214.53125 C 82.242188 214.269531 81.609375 214.03125 80.964844 213.8125 C 80.320312 213.597656 79.671875 213.398438 79.015625 213.222656 C 78.359375 213.046875 77.699219 212.894531 77.03125 212.761719 C 76.367188 212.628906 75.695312 212.519531 75.023438 212.429688 C 74.347656 212.34375 73.671875 212.277344 72.996094 212.230469 C 72.316406 212.1875 71.640625 212.164062 70.960938 212.164062 C 70.28125 212.164062 69.601562 212.1875 68.925781 212.230469 C 68.246094 212.277344 67.570312 212.34375 66.898438 212.429688 C 66.226562 212.519531 65.554688 212.628906 64.890625 212.761719 C 64.222656 212.894531 63.5625 213.046875 62.90625 213.222656 C 62.25 213.398438 61.601562 213.597656 60.957031 213.8125 C 60.3125 214.03125 59.679688 214.269531 59.050781 214.53125 C 58.421875 214.789062 57.804688 215.070312 57.195312 215.367188 C 56.585938 215.667969 55.988281 215.988281 55.398438 216.328125 C 54.808594 216.664062 54.234375 217.023438 53.667969 217.398438 C 53.101562 217.777344 52.550781 218.171875 52.011719 218.582031 C 51.472656 218.996094 50.945312 219.425781 50.433594 219.875 C 49.921875 220.320312 49.425781 220.785156 48.945312 221.261719 C 48.464844 221.742188 48 222.238281 47.550781 222.746094 C 47.101562 223.257812 46.671875 223.78125 46.257812 224.320312 C 45.84375 224.855469 45.445312 225.410156 45.066406 225.972656 C 44.6875 226.535156 44.328125 227.113281 43.988281 227.699219 C 43.648438 228.285156 43.328125 228.882812 43.023438 229.492188 C 42.722656 230.101562 42.441406 230.71875 42.179688 231.347656 C 41.917969 231.972656 41.679688 232.609375 41.457031 233.25 C 41.238281 233.894531 41.039062 234.542969 40.863281 235.195312 C 40.683594 235.851562 40.527344 236.511719 40.394531 237.179688 C 40.257812 237.84375 40.148438 238.515625 40.054688 239.1875 C 39.964844 239.859375 39.898438 240.535156 39.851562 241.214844 C 39.804688 241.890625 39.78125 242.570312 39.777344 243.25 C 39.773438 243.925781 39.796875 244.605469 39.835938 245.285156 C 39.878906 245.960938 39.945312 246.636719 40.03125 247.3125 C 40.117188 247.984375 40.226562 248.65625 40.355469 249.320312 C 40.484375 249.988281 40.636719 250.648438 40.808594 251.304688 C 40.984375 251.964844 41.179688 252.613281 41.394531 253.257812 C 41.609375 253.902344 41.847656 254.539062 42.101562 255.167969 C 42.359375 255.792969 42.636719 256.414062 42.9375 257.023438 C 43.234375 257.636719 43.550781 258.234375 43.886719 258.824219 C 44.226562 259.414062 44.582031 259.992188 44.957031 260.558594 C 45.332031 261.125 45.722656 261.679688 46.136719 262.21875 C 46.546875 262.757812 46.972656 263.285156 47.417969 263.800781 C 47.863281 264.3125 48.328125 264.808594 48.804688 265.292969 C 49.28125 265.773438 49.777344 266.242188 50.285156 266.691406 C 50.792969 267.140625 51.316406 267.574219 51.851562 267.992188 C 52.386719 268.40625 52.9375 268.804688 53.5 269.1875 C 54.0625 269.566406 54.636719 269.925781 55.226562 270.269531 C 55.8125 270.613281 56.40625 270.9375 57.015625 271.238281 C 57.621094 271.542969 58.238281 271.828125 58.867188 272.089844 C 59.492188 272.355469 60.125 272.597656 60.765625 272.820312 C 61.410156 273.039062 62.058594 273.242188 62.710938 273.421875 C 63.367188 273.601562 64.027344 273.757812 64.691406 273.894531 C 65.359375 274.03125 66.027344 274.148438 66.699219 274.238281 C 67.371094 274.332031 68.046875 274.402344 68.726562 274.453125 C 69.402344 274.5 70.082031 274.527344 70.761719 274.53125 Z M 70.753906 274.53125 " fill-opacity="1" fill-rule="nonzero"/><path fill="#ffffff" d="M 105.125 260.070312 C 103.707031 262.960938 101.953125 265.632812 99.863281 268.078125 C 97.773438 270.527344 95.414062 272.679688 92.78125 274.53125 L 117.175781 274.53125 C 114.558594 272.703125 112.226562 270.5625 110.179688 268.109375 C 108.136719 265.65625 106.453125 262.976562 105.125 260.070312 Z M 105.125 260.070312 " fill-opacity="1" fill-rule="nonzero"/><path fill="#ffffff" d="M 367.863281 281.4375 L 71.355469 281.4375 C 71.214844 281.4375 71.085938 281.4375 70.953125 281.4375 C 70.824219 281.4375 70.683594 281.4375 70.554688 281.4375 L 16.132812 281.4375 C 15.855469 281.4375 15.574219 281.464844 15.300781 281.519531 C 15.023438 281.574219 14.757812 281.652344 14.5 281.761719 C 14.238281 281.867188 13.992188 282 13.761719 282.15625 C 13.527344 282.3125 13.3125 282.488281 13.113281 282.6875 C 12.914062 282.886719 12.738281 283.101562 12.582031 283.335938 C 12.425781 283.570312 12.292969 283.816406 12.1875 284.074219 C 12.078125 284.335938 11.996094 284.601562 11.941406 284.875 C 11.886719 285.152344 11.859375 285.429688 11.859375 285.710938 L 11.859375 302.785156 C 11.859375 303.066406 11.886719 303.34375 11.941406 303.621094 C 11.996094 303.894531 12.078125 304.164062 12.1875 304.421875 C 12.292969 304.679688 12.425781 304.929688 12.582031 305.160156 C 12.738281 305.394531 12.914062 305.609375 13.113281 305.808594 C 13.3125 306.007812 13.527344 306.183594 13.761719 306.339844 C 13.992188 306.496094 14.238281 306.628906 14.5 306.734375 C 14.757812 306.84375 15.023438 306.925781 15.300781 306.980469 C 15.574219 307.035156 15.855469 307.0625 16.132812 307.0625 L 367.863281 307.0625 C 368.144531 307.0625 368.421875 307.035156 368.699219 306.980469 C 368.972656 306.925781 369.238281 306.84375 369.5 306.734375 C 369.757812 306.628906 370.003906 306.496094 370.238281 306.339844 C 370.472656 306.183594 370.6875 306.007812 370.886719 305.808594 C 371.085938 305.609375 371.261719 305.394531 371.417969 305.160156 C 371.574219 304.929688 371.707031 304.679688 371.8125 304.421875 C 371.921875 304.164062 372 303.894531 372.054688 303.621094 C 372.109375 303.34375 372.136719 303.066406 372.136719 302.785156 L 372.136719 285.710938 C 372.136719 285.429688 372.109375 285.152344 372.054688 284.875 C 372 284.601562 371.921875 284.335938 371.8125 284.074219 C 371.707031 283.816406 371.574219 283.570312 371.417969 283.335938 C 371.261719 283.101562 371.085938 282.886719 370.886719 282.6875 C 370.6875 282.488281 370.472656 282.3125 370.238281 282.15625 C 370.003906 282 369.757812 281.867188 369.5 281.761719 C 369.238281 281.652344 368.972656 281.574219 368.699219 281.519531 C 368.421875 281.464844 368.144531 281.4375 367.863281 281.4375 Z M 367.863281 281.4375 " fill-opacity="1" fill-rule="nonzero"/><g clip-path="url(#53a9322a52)"><path fill="#ffffff" d="M 49.210938 313.964844 L 76.519531 313.964844 L 76.519531 337.023438 L 49.210938 337.023438 Z M 49.210938 313.964844 " fill-opacity="1" fill-rule="nonzero"/></g><path fill="#ffffff" d="M 263.039062 64.8125 C 263.039062 63.542969 262.976562 62.28125 262.851562 61.019531 C 262.726562 59.761719 262.542969 58.507812 262.296875 57.265625 C 262.046875 56.023438 261.742188 54.796875 261.375 53.585938 C 261.003906 52.375 260.578125 51.183594 260.09375 50.011719 C 259.609375 48.84375 259.070312 47.699219 258.472656 46.582031 C 257.875 45.464844 257.226562 44.382812 256.519531 43.328125 C 255.816406 42.273438 255.0625 41.257812 254.261719 40.28125 C 253.457031 39.300781 252.609375 38.363281 251.710938 37.46875 C 250.816406 36.574219 249.878906 35.722656 248.902344 34.921875 C 247.921875 34.117188 246.90625 33.363281 245.851562 32.660156 C 244.800781 31.957031 243.714844 31.304688 242.597656 30.707031 C 241.480469 30.113281 240.335938 29.570312 239.167969 29.085938 C 237.996094 28.601562 236.808594 28.175781 235.59375 27.808594 C 234.382812 27.441406 233.15625 27.132812 231.914062 26.886719 C 230.671875 26.640625 229.421875 26.453125 228.160156 26.328125 C 226.898438 26.203125 225.636719 26.144531 224.371094 26.144531 C 223.105469 26.144531 221.839844 26.203125 220.578125 26.328125 C 219.320312 26.453125 218.066406 26.640625 216.824219 26.886719 C 215.585938 27.132812 214.355469 27.441406 213.144531 27.808594 C 211.933594 28.175781 210.742188 28.601562 209.570312 29.085938 C 208.402344 29.570312 207.257812 30.113281 206.140625 30.707031 C 205.023438 31.304688 203.941406 31.957031 202.886719 32.660156 C 201.832031 33.363281 200.816406 34.117188 199.839844 34.921875 C 198.859375 35.722656 197.921875 36.574219 197.027344 37.46875 C 196.132812 38.363281 195.28125 39.300781 194.480469 40.28125 C 193.675781 41.257812 192.921875 42.273438 192.21875 43.328125 C 191.515625 44.382812 190.863281 45.464844 190.269531 46.582031 C 189.671875 47.699219 189.128906 48.84375 188.644531 50.011719 C 188.160156 51.183594 187.734375 52.375 187.367188 53.585938 C 187 54.796875 186.691406 56.023438 186.445312 57.265625 C 186.199219 58.507812 186.011719 59.761719 185.886719 61.019531 C 185.765625 62.28125 185.703125 63.542969 185.703125 64.8125 C 185.703125 66.078125 185.765625 67.339844 185.886719 68.601562 C 186.011719 69.863281 186.199219 71.113281 186.445312 72.355469 C 186.691406 73.597656 187 74.824219 187.367188 76.035156 C 187.734375 77.246094 188.160156 78.4375 188.644531 79.609375 C 189.128906 80.777344 189.671875 81.921875 190.269531 83.039062 C 190.863281 84.15625 191.515625 85.242188 192.21875 86.292969 C 192.921875 87.347656 193.675781 88.363281 194.480469 89.34375 C 195.28125 90.320312 196.132812 91.257812 197.027344 92.152344 C 197.921875 93.050781 198.859375 93.898438 199.839844 94.703125 C 200.816406 95.503906 201.835938 96.257812 202.886719 96.960938 C 203.941406 97.667969 205.023438 98.316406 206.140625 98.914062 C 207.257812 99.511719 208.402344 100.050781 209.570312 100.535156 C 210.742188 101.019531 211.933594 101.445312 213.144531 101.8125 C 214.355469 102.183594 215.585938 102.488281 216.824219 102.734375 C 218.066406 102.984375 219.320312 103.167969 220.578125 103.292969 C 221.839844 103.417969 223.105469 103.480469 224.371094 103.480469 C 225.636719 103.476562 226.898438 103.414062 228.15625 103.285156 C 229.417969 103.160156 230.667969 102.972656 231.910156 102.726562 C 233.148438 102.476562 234.375 102.167969 235.585938 101.796875 C 236.796875 101.429688 237.988281 101.003906 239.15625 100.515625 C 240.324219 100.03125 241.46875 99.492188 242.585938 98.894531 C 243.699219 98.296875 244.785156 97.644531 245.835938 96.941406 C 246.890625 96.238281 247.902344 95.484375 248.882812 94.679688 C 249.859375 93.878906 250.796875 93.027344 251.691406 92.132812 C 252.585938 91.238281 253.4375 90.300781 254.238281 89.324219 C 255.042969 88.34375 255.796875 87.328125 256.5 86.277344 C 257.203125 85.226562 257.855469 84.140625 258.453125 83.027344 C 259.050781 81.910156 259.589844 80.765625 260.078125 79.597656 C 260.5625 78.429688 260.988281 77.238281 261.359375 76.027344 C 261.726562 74.816406 262.035156 73.589844 262.285156 72.351562 C 262.53125 71.109375 262.71875 69.859375 262.847656 68.597656 C 262.972656 67.339844 263.035156 66.078125 263.039062 64.8125 Z M 263.039062 64.8125 " fill-opacity="1" fill-rule="nonzero"/><path fill="#ffffff" d="M 140.625 173.394531 L 140.625 211.316406 L 209.722656 211.316406 C 211.515625 211.3125 213.242188 210.964844 214.898438 210.28125 C 216.554688 209.597656 218.019531 208.625 219.292969 207.367188 C 220.226562 206.417969 221.003906 205.359375 221.625 204.183594 C 222.242188 203.007812 222.679688 201.769531 222.933594 200.464844 C 223.1875 199.160156 223.246094 197.847656 223.109375 196.523438 C 222.976562 195.203125 222.652344 193.929688 222.140625 192.703125 C 221.632812 191.476562 220.953125 190.347656 220.109375 189.324219 C 219.265625 188.296875 218.292969 187.414062 217.1875 186.675781 C 216.082031 185.9375 214.894531 185.375 213.625 184.988281 C 212.351562 184.597656 211.054688 184.402344 209.722656 184.398438 L 176.648438 184.398438 C 176.191406 184.398438 175.75 184.3125 175.328125 184.136719 C 174.90625 183.960938 174.53125 183.710938 174.207031 183.386719 C 173.882812 183.066406 173.632812 182.691406 173.460938 182.269531 C 173.285156 181.84375 173.195312 181.40625 173.195312 180.945312 L 173.195312 156.980469 C 173.195312 156.523438 173.285156 156.082031 173.460938 155.660156 C 173.632812 155.234375 173.882812 154.863281 174.207031 154.539062 C 174.53125 154.214844 174.90625 153.964844 175.328125 153.789062 C 175.75 153.613281 176.191406 153.527344 176.648438 153.527344 C 177.105469 153.527344 177.546875 153.613281 177.96875 153.789062 C 178.394531 153.964844 178.765625 154.214844 179.089844 154.539062 C 179.414062 154.863281 179.664062 155.234375 179.839844 155.660156 C 180.015625 156.082031 180.101562 156.523438 180.101562 156.980469 L 180.101562 177.496094 L 209.722656 177.496094 C 211.472656 177.5 213.1875 177.726562 214.875 178.171875 C 216.566406 178.621094 218.167969 179.277344 219.6875 180.136719 C 221.207031 181 222.59375 182.039062 223.84375 183.261719 C 225.09375 184.480469 226.167969 185.835938 227.070312 187.335938 C 227.609375 185.636719 228.300781 184.003906 229.144531 182.433594 C 229.984375 180.863281 230.960938 179.382812 232.078125 177.992188 C 233.191406 176.601562 234.421875 175.324219 235.773438 174.164062 C 237.121094 173 238.566406 171.96875 240.105469 171.074219 L 289.078125 142.664062 C 289.683594 142.3125 290.332031 142.097656 290.960938 141.800781 C 289.597656 139.425781 288.078125 137.148438 286.414062 134.972656 C 284.746094 132.792969 282.945312 130.734375 281.007812 128.796875 C 279.074219 126.855469 277.015625 125.050781 274.84375 123.382812 C 272.667969 121.710938 270.394531 120.191406 268.019531 118.820312 C 265.648438 117.449219 263.191406 116.242188 260.660156 115.195312 C 258.125 114.144531 255.535156 113.269531 252.886719 112.5625 C 250.238281 111.855469 247.554688 111.324219 244.835938 110.96875 C 242.117188 110.617188 239.386719 110.441406 236.648438 110.445312 L 203.570312 110.445312 C 201.511719 110.449219 199.457031 110.550781 197.402344 110.753906 C 195.351562 110.960938 193.316406 111.261719 191.296875 111.667969 C 189.277344 112.070312 187.277344 112.574219 185.308594 113.171875 C 183.335938 113.773438 181.398438 114.464844 179.492188 115.257812 C 177.589844 116.046875 175.730469 116.925781 173.914062 117.898438 C 172.09375 118.871094 170.332031 119.929688 168.617188 121.074219 C 166.902344 122.222656 165.25 123.449219 163.65625 124.753906 C 162.066406 126.0625 160.539062 127.445312 159.082031 128.902344 C 157.625 130.359375 156.242188 131.886719 154.933594 133.480469 C 153.628906 135.070312 152.402344 136.726562 151.253906 138.4375 C 150.109375 140.152344 149.050781 141.917969 148.078125 143.734375 C 147.105469 145.550781 146.226562 147.410156 145.433594 149.316406 C 144.644531 151.21875 143.949219 153.15625 143.351562 155.128906 C 142.75 157.101562 142.25 159.097656 141.847656 161.117188 C 141.441406 163.136719 141.140625 165.175781 140.933594 167.226562 C 140.730469 169.277344 140.628906 171.332031 140.625 173.394531 Z M 140.625 173.394531 " fill-opacity="1" fill-rule="nonzero"/><g clip-path="url(#8776d809fb)"><path fill="#ffffff" d="M 307.480469 313.964844 L 334.789062 313.964844 L 334.789062 337.023438 L 307.480469 337.023438 Z M 307.480469 313.964844 " fill-opacity="1" fill-rule="nonzero"/></g><path fill="#ffffff" d="M 138.511719 274.53125 L 328.25 274.53125 C 329.226562 274.550781 330.199219 274.484375 331.164062 274.324219 C 332.128906 274.164062 333.070312 273.914062 333.988281 273.578125 C 334.90625 273.242188 335.785156 272.824219 336.625 272.324219 C 337.464844 271.824219 338.253906 271.25 338.984375 270.601562 C 339.71875 269.953125 340.382812 269.242188 340.984375 268.472656 C 341.585938 267.699219 342.109375 266.878906 342.554688 266.007812 C 343 265.136719 343.363281 264.234375 343.640625 263.296875 C 343.917969 262.359375 344.109375 261.402344 344.207031 260.429688 C 344.234375 259.925781 344.238281 259.421875 344.214844 258.914062 C 344.191406 258.410156 344.140625 257.90625 344.066406 257.40625 C 343.992188 256.90625 343.890625 256.410156 343.765625 255.921875 C 343.640625 255.433594 343.492188 254.949219 343.316406 254.476562 C 343.140625 254 342.945312 253.535156 342.722656 253.082031 C 342.5 252.625 342.253906 252.183594 341.988281 251.753906 C 341.722656 251.324219 341.433594 250.910156 341.125 250.507812 C 340.816406 250.109375 340.488281 249.726562 340.140625 249.359375 C 339.789062 248.992188 339.425781 248.644531 339.039062 248.3125 C 338.65625 247.984375 338.257812 247.675781 337.84375 247.386719 C 337.425781 247.097656 336.996094 246.832031 336.554688 246.585938 C 336.113281 246.339844 335.660156 246.117188 335.195312 245.921875 C 334.730469 245.722656 334.253906 245.546875 333.773438 245.394531 C 333.289062 245.246094 332.800781 245.121094 332.304688 245.019531 C 331.808594 244.917969 331.308594 244.84375 330.804688 244.792969 C 330.300781 244.746094 329.796875 244.71875 329.292969 244.722656 L 266.851562 244.722656 C 266.390625 244.722656 265.953125 244.632812 265.527344 244.460938 C 265.105469 244.285156 264.730469 244.035156 264.410156 243.710938 C 264.085938 243.386719 263.835938 243.015625 263.660156 242.589844 C 263.484375 242.167969 263.398438 241.726562 263.398438 241.269531 L 263.398438 208.71875 C 263.410156 208.203125 263.535156 207.714844 263.769531 207.253906 C 263.855469 207.109375 263.949219 206.96875 264.054688 206.835938 C 264.257812 206.542969 264.5 206.289062 264.785156 206.074219 C 264.867188 206.003906 264.910156 205.894531 265.007812 205.839844 L 310.074219 177.722656 C 310.550781 177.433594 311.011719 177.125 311.457031 176.792969 C 311.902344 176.460938 312.328125 176.109375 312.742188 175.734375 C 313.152344 175.359375 313.542969 174.964844 313.914062 174.554688 C 314.285156 174.140625 314.636719 173.710938 314.96875 173.265625 C 315.296875 172.816406 315.605469 172.355469 315.886719 171.878906 C 316.171875 171.402344 316.433594 170.910156 316.667969 170.410156 C 316.90625 169.90625 317.117188 169.390625 317.300781 168.867188 C 317.488281 168.34375 317.648438 167.8125 317.78125 167.273438 C 317.914062 166.734375 318.023438 166.191406 318.101562 165.640625 C 318.183594 165.09375 318.234375 164.539062 318.261719 163.984375 C 318.289062 163.429688 318.285156 162.875 318.257812 162.320312 C 318.230469 161.765625 318.175781 161.214844 318.09375 160.664062 C 318.007812 160.113281 317.898438 159.570312 317.765625 159.03125 C 317.628906 158.492188 317.464844 157.964844 317.277344 157.441406 C 317.089844 156.917969 316.875 156.40625 316.636719 155.902344 C 316.398438 155.402344 316.136719 154.914062 315.851562 154.4375 C 315.5625 153.960938 315.253906 153.5 314.921875 153.054688 C 314.589844 152.609375 314.238281 152.179688 313.863281 151.769531 C 313.492188 151.359375 313.097656 150.96875 312.6875 150.59375 C 312.273438 150.222656 311.84375 149.871094 311.398438 149.542969 C 310.949219 149.210938 310.488281 148.902344 310.011719 148.617188 C 309.535156 148.332031 309.046875 148.074219 308.542969 147.835938 C 308.039062 147.597656 307.527344 147.386719 307.003906 147.199219 C 306.480469 147.015625 305.949219 146.855469 305.410156 146.71875 C 304.871094 146.585938 304.328125 146.476562 303.777344 146.398438 C 303.226562 146.316406 302.675781 146.261719 302.121094 146.234375 C 301.566406 146.210938 301.011719 146.210938 300.457031 146.238281 C 299.902344 146.265625 299.351562 146.320312 298.800781 146.402344 C 298.25 146.484375 297.707031 146.59375 297.167969 146.730469 C 296.628906 146.863281 296.097656 147.027344 295.574219 147.214844 C 295.054688 147.402344 294.539062 147.613281 294.039062 147.851562 C 293.535156 148.089844 293.046875 148.351562 292.570312 148.636719 L 243.59375 177.050781 C 241.914062 178.023438 240.390625 179.195312 239.019531 180.570312 C 237.652344 181.941406 236.480469 183.464844 235.511719 185.144531 C 234.542969 186.824219 233.804688 188.601562 233.300781 190.476562 C 232.800781 192.347656 232.546875 194.253906 232.546875 196.195312 L 232.546875 208.421875 C 232.542969 209.066406 232.480469 209.703125 232.351562 210.335938 C 232.226562 210.96875 232.039062 211.582031 231.792969 212.175781 C 231.546875 212.769531 231.242188 213.335938 230.882812 213.871094 C 230.527344 214.40625 230.117188 214.902344 229.664062 215.355469 C 229.207031 215.8125 228.710938 216.21875 228.175781 216.578125 C 227.640625 216.933594 227.074219 217.238281 226.480469 217.484375 C 225.886719 217.730469 225.273438 217.917969 224.640625 218.042969 C 224.007812 218.167969 223.371094 218.234375 222.726562 218.234375 L 137.199219 218.234375 C 136.261719 218.234375 135.324219 218.28125 134.386719 218.375 C 133.453125 218.46875 132.523438 218.605469 131.605469 218.792969 C 130.683594 218.980469 129.773438 219.210938 128.875 219.488281 C 127.976562 219.769531 127.097656 220.089844 126.230469 220.457031 C 125.363281 220.820312 124.519531 221.230469 123.695312 221.679688 C 122.871094 222.132812 122.070312 222.621094 121.296875 223.152344 C 120.519531 223.683594 119.773438 224.253906 119.054688 224.859375 C 118.335938 225.464844 117.648438 226.105469 116.996094 226.777344 C 116.339844 227.453125 115.722656 228.160156 115.136719 228.894531 C 114.554688 229.632812 114.007812 230.394531 113.5 231.1875 C 112.996094 231.980469 112.527344 232.792969 112.101562 233.632812 C 111.679688 234.46875 111.296875 235.328125 110.957031 236.203125 C 110.617188 237.078125 110.320312 237.96875 110.070312 238.875 C 109.820312 239.78125 109.617188 240.699219 109.457031 241.625 C 109.300781 242.550781 109.1875 243.484375 109.125 244.421875 C 109.058594 245.359375 109.039062 246.296875 109.070312 247.234375 C 109.125 248.160156 109.222656 249.078125 109.363281 249.992188 C 109.507812 250.902344 109.691406 251.808594 109.917969 252.703125 C 110.148438 253.601562 110.417969 254.484375 110.730469 255.351562 C 111.046875 256.222656 111.398438 257.074219 111.792969 257.914062 C 112.1875 258.75 112.621094 259.5625 113.09375 260.359375 C 113.566406 261.152344 114.078125 261.921875 114.621094 262.667969 C 115.167969 263.414062 115.75 264.132812 116.363281 264.824219 C 116.980469 265.515625 117.625 266.171875 118.304688 266.800781 C 118.980469 267.429688 119.6875 268.023438 120.421875 268.585938 C 121.160156 269.148438 121.917969 269.671875 122.703125 270.160156 C 123.488281 270.648438 124.296875 271.097656 125.125 271.507812 C 125.953125 271.921875 126.796875 272.292969 127.660156 272.621094 C 128.523438 272.953125 129.402344 273.242188 130.292969 273.488281 C 131.183594 273.734375 132.085938 273.9375 132.996094 274.097656 C 133.90625 274.257812 134.820312 274.375 135.742188 274.445312 C 136.664062 274.519531 137.589844 274.546875 138.511719 274.53125 Z M 235.570312 257.523438 C 235.757812 257.109375 236.011719 256.742188 236.328125 256.417969 C 236.828125 255.921875 237.421875 255.601562 238.113281 255.464844 C 238.804688 255.324219 239.476562 255.386719 240.128906 255.652344 C 240.539062 255.847656 240.90625 256.101562 241.230469 256.417969 C 241.902344 257.082031 242.246094 257.886719 242.269531 258.828125 C 242.25 259.796875 241.902344 260.625 241.230469 261.320312 C 240.890625 261.613281 240.523438 261.867188 240.128906 262.082031 C 239.675781 262.214844 239.214844 262.28125 238.746094 262.28125 C 237.8125 262.289062 237.003906 261.96875 236.328125 261.320312 C 235.65625 260.625 235.3125 259.796875 235.292969 258.828125 C 235.320312 258.378906 235.414062 257.945312 235.570312 257.523438 Z M 159.917969 255.402344 L 207.371094 255.402344 C 207.828125 255.402344 208.269531 255.492188 208.691406 255.667969 C 209.113281 255.84375 209.488281 256.089844 209.8125 256.414062 C 210.132812 256.738281 210.382812 257.113281 210.558594 257.535156 C 210.734375 257.957031 210.820312 258.398438 210.820312 258.855469 C 210.820312 259.316406 210.734375 259.753906 210.558594 260.179688 C 210.382812 260.601562 210.132812 260.972656 209.8125 261.296875 C 209.488281 261.621094 209.113281 261.871094 208.691406 262.046875 C 208.269531 262.222656 207.828125 262.308594 207.371094 262.308594 L 159.917969 262.308594 C 159.460938 262.308594 159.019531 262.222656 158.597656 262.046875 C 158.175781 261.871094 157.800781 261.621094 157.476562 261.296875 C 157.152344 260.972656 156.902344 260.601562 156.730469 260.179688 C 156.554688 259.753906 156.464844 259.316406 156.464844 258.855469 C 156.464844 258.398438 156.554688 257.957031 156.730469 257.535156 C 156.902344 257.113281 157.152344 256.738281 157.476562 256.414062 C 157.800781 256.089844 158.175781 255.84375 158.597656 255.667969 C 159.019531 255.492188 159.460938 255.402344 159.917969 255.402344 Z M 159.917969 255.402344 " fill-opacity="1" fill-rule="nonzero"/></svg>