<svg xmlns="http://www.w3.org/2000/svg" xmlns:xlink="http://www.w3.org/1999/xlink" width="512" zoomAndPan="magnify" viewBox="0 0 384 383.999986" height="512" preserveAspectRatio="xMidYMid meet" version="1.0"><defs><clipPath id="359d0a232f"><path d="M 16.199219 16.199219 L 367.949219 16.199219 L 367.949219 367.949219 L 16.199219 367.949219 Z M 16.199219 16.199219 " clip-rule="nonzero"/></clipPath></defs><g clip-path="url(#359d0a232f)"><path fill="#ffffff" d="M 131.964844 52.890625 C 131.964844 46.46875 137.160156 41.25 143.582031 41.25 C 150.007812 41.25 155.203125 46.46875 155.203125 52.890625 C 155.203125 59.308594 150.007812 64.507812 143.582031 64.507812 C 137.160156 64.507812 131.964844 59.292969 131.964844 52.890625 Z M 365.78125 308.320312 C 362.5625 321.636719 356.457031 334.097656 347.632812 345.359375 C 341.457031 353.242188 334.421875 361.109375 324.832031 365.289062 C 320.59375 367.136719 316.691406 367.789062 312.996094 367.789062 C 308.574219 367.789062 304.453125 366.855469 300.40625 365.949219 C 299.246094 365.683594 298.058594 365.414062 296.839844 365.164062 C 295.238281 364.832031 293.9375 364.832031 292.339844 365.164062 C 291.109375 365.421875 289.925781 365.683594 288.765625 365.949219 C 281.335938 367.625 273.652344 369.359375 264.335938 365.289062 C 258.023438 362.53125 252.828125 358.1875 248.253906 353.304688 C 248.191406 353.304688 248.128906 353.3125 248.066406 353.3125 L 39.082031 353.3125 C 26.460938 353.3125 16.199219 343.050781 16.199219 330.429688 L 16.199219 78.015625 C 16.199219 65.398438 26.460938 55.136719 39.082031 55.136719 L 86.085938 55.136719 C 87.101562 47.714844 93.476562 41.976562 101.167969 41.976562 L 108.097656 41.976562 C 110.472656 41.976562 112.40625 40.566406 113.148438 38.296875 C 117.429688 25.089844 129.660156 16.207031 143.582031 16.207031 C 157.507812 16.207031 169.714844 25.089844 174 38.308594 C 174.738281 40.566406 176.683594 41.976562 179.070312 41.976562 L 185.976562 41.976562 C 193.671875 41.976562 200.050781 47.710938 201.066406 55.136719 L 233.132812 55.136719 C 242.679688 32.292969 265.253906 16.203125 291.515625 16.203125 C 326.386719 16.203125 354.761719 44.578125 354.761719 79.453125 C 354.761719 114.328125 326.386719 142.722656 291.515625 142.722656 C 284.320312 142.722656 277.402344 141.507812 270.949219 139.285156 L 270.949219 162.460938 C 272.765625 163.113281 274.453125 163.894531 275.964844 164.820312 C 288.539062 172.492188 293.710938 187.765625 289.199219 201.183594 C 293.007812 205.0625 296.304688 209.472656 299.089844 214.414062 C 304.214844 201.804688 310.996094 189.785156 319.550781 178.148438 C 321.347656 175.703125 324.789062 175.179688 327.238281 176.976562 C 329.683594 178.773438 330.207031 182.214844 328.410156 184.664062 C 315.71875 201.929688 307.1875 220.074219 302.449219 239.894531 L 305.078125 239.109375 C 322.734375 233.84375 339.007812 237.15625 350.90625 248.4375 C 365.402344 262.175781 371.238281 285.6875 365.78125 308.320312 Z M 293.871094 229.40625 C 291.324219 222.339844 287.902344 216.308594 283.554688 211.257812 C 280.179688 215.285156 275.863281 218.351562 270.949219 220.226562 L 270.949219 236.75 C 275.207031 236.984375 279.609375 237.769531 284.09375 239.109375 L 289.628906 240.765625 C 290.058594 240.894531 290.484375 241.007812 290.90625 241.105469 C 291.753906 237.144531 292.75 233.246094 293.875 229.410156 Z M 235.097656 251.777344 L 235.097656 209.8125 C 227.601562 200.496094 221.667969 186.789062 217.011719 176.015625 C 215.820312 173.257812 214.695312 170.65625 213.707031 168.511719 C 212.9375 166.847656 213.046875 164.914062 214.003906 163.34375 C 214.957031 161.777344 216.628906 160.789062 218.460938 160.710938 C 220.816406 160.609375 223.628906 160.417969 226.609375 160.214844 C 229.292969 160.035156 232.15625 159.839844 235.101562 159.679688 L 235.101562 108.03125 C 232.410156 102.742188 230.441406 97.019531 229.328125 91.003906 L 201.214844 91.003906 L 201.214844 93.71875 C 201.214844 102.117188 194.382812 108.953125 185.980469 108.953125 L 101.175781 108.953125 C 92.777344 108.953125 85.949219 102.117188 85.949219 93.71875 L 85.949219 91.003906 L 53.003906 91.003906 C 52.519531 91.003906 52.082031 91.441406 52.082031 91.925781 L 52.082031 316.503906 C 52.082031 316.996094 52.511719 317.425781 53.003906 317.425781 L 226.109375 317.425781 C 225.054688 314.4375 224.148438 311.402344 223.402344 308.316406 C 218.359375 287.417969 222.960938 265.785156 235.101562 251.773438 Z M 246.09375 242.53125 C 250.367188 240.007812 255.019531 238.292969 259.949219 237.394531 L 259.949219 222.296875 C 259.890625 222.296875 259.832031 222.300781 259.773438 222.300781 C 255.042969 222.300781 250.382812 221.199219 246.09375 219.0625 Z M 270.234375 174.210938 C 268.664062 173.253906 266.707031 172.515625 264.484375 171.949219 C 264.242188 171.90625 264.007812 171.851562 263.777344 171.777344 C 253.613281 169.417969 238.25 170.453125 227.347656 171.191406 C 227.207031 171.203125 227.0625 171.210938 226.921875 171.222656 C 226.984375 171.363281 227.042969 171.507812 227.105469 171.65625 C 231.472656 181.753906 237.644531 196.019531 244.460938 203.941406 C 244.625 204.097656 244.769531 204.269531 244.910156 204.445312 C 246.386719 206.09375 247.890625 207.4375 249.414062 208.371094 C 253.972656 211.15625 259.34375 211.996094 264.539062 210.738281 C 268.910156 209.679688 272.707031 207.242188 275.464844 203.777344 C 269.859375 199.652344 263.238281 196.574219 255.542969 194.511719 C 252.609375 193.726562 250.863281 190.710938 251.652344 187.78125 C 252.4375 184.847656 255.449219 183.101562 258.386719 183.890625 C 266.410156 186.039062 273.527344 189.199219 279.71875 193.34375 C 280.464844 185.917969 277.015625 178.351562 270.234375 174.214844 Z M 259.949219 134.269531 C 254.839844 131.3125 250.175781 127.65625 246.09375 123.441406 L 246.09375 159.320312 C 250.8125 159.296875 255.527344 159.472656 259.949219 160.015625 Z M 239.261719 79.457031 C 239.261719 108.277344 262.699219 131.726562 291.515625 131.726562 C 320.328125 131.726562 343.765625 108.277344 343.765625 79.457031 C 343.765625 50.632812 320.328125 27.203125 291.515625 27.203125 C 262.699219 27.203125 239.261719 50.644531 239.261719 79.457031 Z M 228.261719 79.457031 C 228.261719 74.886719 228.753906 70.429688 229.675781 66.132812 L 201.207031 66.132812 L 201.207031 80.011719 L 228.269531 80.011719 C 228.269531 79.824219 228.261719 79.640625 228.261719 79.457031 Z M 96.9375 93.722656 C 96.9375 96.054688 98.835938 97.957031 101.167969 97.957031 L 185.972656 97.957031 C 188.308594 97.957031 190.207031 96.054688 190.207031 93.722656 L 190.207031 57.210938 C 190.207031 54.875 188.308594 52.976562 185.972656 52.976562 L 179.0625 52.976562 C 171.867188 52.976562 165.773438 48.554688 163.542969 41.707031 C 160.730469 33.027344 152.707031 27.203125 143.582031 27.203125 C 134.460938 27.203125 126.417969 33.027344 123.609375 41.699219 C 121.371094 48.554688 115.289062 52.976562 108.097656 52.976562 L 101.167969 52.976562 C 98.835938 52.976562 96.9375 54.875 96.9375 57.210938 Z M 39.082031 342.3125 L 239.25 342.3125 C 236.011719 337.855469 233.183594 333.222656 230.785156 328.433594 L 53 328.433594 C 46.425781 328.433594 41.074219 323.082031 41.074219 316.507812 L 41.074219 91.929688 C 41.074219 85.355469 46.425781 80.007812 53 80.007812 L 85.945312 80.007812 L 85.945312 66.125 L 39.085938 66.125 C 32.53125 66.125 27.199219 71.457031 27.199219 78.011719 L 27.199219 330.421875 C 27.199219 336.976562 32.53125 342.308594 39.085938 342.308594 Z M 343.34375 256.421875 C 334.289062 247.835938 322.148438 245.496094 308.226562 249.648438 L 302.703125 251.300781 C 302.703125 251.300781 302.695312 251.300781 302.691406 251.300781 C 300.867188 251.839844 299.066406 252.183594 297.261719 252.363281 C 296.644531 252.601562 295.980469 252.734375 295.292969 252.734375 C 294.96875 252.734375 294.632812 252.703125 294.304688 252.644531 C 294.078125 252.605469 293.859375 252.542969 293.644531 252.476562 C 291.273438 252.394531 288.890625 252.015625 286.480469 251.300781 L 280.945312 249.644531 C 267.035156 245.488281 254.894531 247.835938 245.839844 256.421875 C 234.328125 267.332031 229.601562 287.15625 234.085938 305.746094 C 236.929688 317.515625 242.351562 328.5625 250.195312 338.578125 C 255.476562 345.3125 261.375 351.992188 268.738281 355.210938 C 274.75 357.839844 279.613281 356.738281 286.34375 355.21875 C 287.570312 354.941406 288.824219 354.660156 290.109375 354.398438 C 291.632812 354.082031 293.105469 353.921875 294.582031 353.921875 C 296.058594 353.921875 297.539062 354.082031 299.074219 354.402344 C 300.347656 354.664062 301.597656 354.945312 302.828125 355.222656 C 309.558594 356.746094 314.421875 357.839844 320.433594 355.214844 C 327.789062 352.007812 333.691406 345.324219 338.976562 338.585938 C 346.820312 328.566406 352.242188 317.519531 355.085938 305.746094 C 359.570312 287.160156 354.851562 267.335938 343.339844 256.425781 Z M 278.492188 257.894531 C 264.855469 253.808594 256.210938 258.4375 251.355469 263.035156 C 240.828125 273.015625 239.296875 290.664062 242.453125 303.730469 C 243.058594 306.25 245.3125 307.941406 247.792969 307.941406 C 248.21875 307.941406 248.65625 307.894531 249.089844 307.789062 C 252.042969 307.078125 253.859375 304.105469 253.140625 301.152344 C 250.332031 289.527344 252.765625 276.855469 258.921875 271.019531 C 262.910156 267.238281 268.4375 266.371094 275.335938 268.433594 C 278.246094 269.300781 281.308594 267.648438 282.179688 264.738281 C 283.050781 261.832031 281.398438 258.765625 278.488281 257.898438 Z M 102.621094 131.71875 L 102.621094 163.523438 C 102.621094 166.5625 100.160156 169.023438 97.125 169.023438 L 65.339844 169.023438 C 62.304688 169.023438 59.84375 166.5625 59.84375 163.523438 L 59.84375 131.71875 C 59.84375 128.679688 62.304688 126.21875 65.339844 126.21875 L 97.125 126.21875 C 100.160156 126.21875 102.621094 128.679688 102.621094 131.71875 Z M 91.621094 137.214844 L 70.832031 137.214844 L 70.832031 158.019531 L 91.621094 158.019531 Z M 119.621094 141.1875 L 221.828125 141.1875 C 224.863281 141.1875 227.324219 138.726562 227.324219 135.691406 C 227.324219 132.652344 224.863281 130.191406 221.828125 130.191406 L 119.621094 130.191406 C 116.585938 130.191406 114.125 132.652344 114.125 135.691406 C 114.125 138.726562 116.585938 141.1875 119.621094 141.1875 Z M 119.621094 165.050781 L 203.394531 165.050781 C 206.433594 165.050781 208.894531 162.585938 208.894531 159.550781 C 208.894531 156.515625 206.433594 154.050781 203.394531 154.050781 L 119.621094 154.050781 C 116.585938 154.050781 114.125 156.515625 114.125 159.550781 C 114.125 162.585938 116.585938 165.050781 119.621094 165.050781 Z M 102.621094 197.292969 L 102.621094 229.101562 C 102.621094 232.136719 100.160156 234.597656 97.125 234.597656 L 65.339844 234.597656 C 62.304688 234.597656 59.84375 232.136719 59.84375 229.101562 L 59.84375 197.292969 C 59.84375 194.257812 62.304688 191.796875 65.339844 191.796875 L 97.125 191.796875 C 100.160156 191.796875 102.621094 194.257812 102.621094 197.292969 Z M 91.621094 202.792969 L 70.832031 202.792969 L 70.832031 223.597656 L 91.621094 223.597656 Z M 119.621094 206.761719 L 203.394531 206.761719 C 206.433594 206.761719 208.894531 204.300781 208.894531 201.261719 C 208.894531 198.226562 206.433594 195.765625 203.394531 195.765625 L 119.621094 195.765625 C 116.585938 195.765625 114.125 198.226562 114.125 201.261719 C 114.125 204.300781 116.585938 206.761719 119.621094 206.761719 Z M 221.832031 219.628906 L 119.625 219.628906 C 116.589844 219.628906 114.128906 222.089844 114.128906 225.128906 C 114.128906 228.164062 116.589844 230.625 119.625 230.625 L 221.832031 230.625 C 224.867188 230.625 227.328125 228.164062 227.328125 225.128906 C 227.328125 222.089844 224.867188 219.628906 221.832031 219.628906 Z M 102.621094 262.867188 L 102.621094 294.667969 C 102.621094 297.707031 100.160156 300.167969 97.125 300.167969 L 65.339844 300.167969 C 62.304688 300.167969 59.84375 297.707031 59.84375 294.667969 L 59.84375 262.867188 C 59.84375 259.832031 62.304688 257.371094 65.339844 257.371094 L 97.125 257.371094 C 100.160156 257.371094 102.621094 259.832031 102.621094 262.867188 Z M 91.621094 268.367188 L 70.832031 268.367188 L 70.832031 289.171875 L 91.621094 289.171875 Z M 203.398438 261.339844 L 119.625 261.339844 C 116.589844 261.339844 114.128906 263.800781 114.128906 266.835938 C 114.128906 269.875 116.589844 272.335938 119.625 272.335938 L 203.398438 272.335938 C 206.4375 272.335938 208.898438 269.875 208.898438 266.835938 C 208.898438 263.800781 206.4375 261.339844 203.398438 261.339844 Z M 203.398438 285.203125 L 119.625 285.203125 C 116.589844 285.203125 114.128906 287.664062 114.128906 290.699219 C 114.128906 293.738281 116.589844 296.199219 119.625 296.199219 L 203.398438 296.199219 C 206.4375 296.199219 208.898438 293.738281 208.898438 290.699219 C 208.898438 287.664062 206.4375 285.203125 203.398438 285.203125 Z M 253.160156 91.039062 L 253.160156 67.894531 C 253.160156 64.855469 255.621094 62.394531 258.65625 62.394531 L 274.429688 62.394531 L 274.429688 46.601562 C 274.429688 43.5625 276.890625 41.101562 279.929688 41.101562 L 303.074219 41.101562 C 306.109375 41.101562 308.570312 43.5625 308.570312 46.601562 L 308.570312 62.394531 L 324.367188 62.394531 C 327.402344 62.394531 329.863281 64.855469 329.863281 67.894531 L 329.863281 91.039062 C 329.863281 94.074219 327.402344 96.535156 324.367188 96.535156 L 308.570312 96.535156 L 308.570312 112.3125 C 308.570312 115.351562 306.109375 117.8125 303.074219 117.8125 L 279.929688 117.8125 C 276.890625 117.8125 274.429688 115.351562 274.429688 112.3125 L 274.429688 96.535156 L 258.65625 96.535156 C 255.621094 96.535156 253.160156 94.074219 253.160156 91.039062 Z M 264.15625 85.539062 L 279.929688 85.539062 C 282.964844 85.539062 285.425781 88 285.425781 91.039062 L 285.425781 106.816406 L 297.574219 106.816406 L 297.574219 91.039062 C 297.574219 88 300.035156 85.539062 303.074219 85.539062 L 318.867188 85.539062 L 318.867188 73.390625 L 303.074219 73.390625 C 300.035156 73.390625 297.574219 70.929688 297.574219 67.894531 L 297.574219 52.097656 L 285.425781 52.097656 L 285.425781 67.894531 C 285.425781 70.929688 282.964844 73.390625 279.929688 73.390625 L 264.15625 73.390625 Z M 264.15625 85.539062 " fill-opacity="1" fill-rule="nonzero"/></g></svg>