<svg xmlns="http://www.w3.org/2000/svg" xmlns:xlink="http://www.w3.org/1999/xlink" width="512" zoomAndPan="magnify" viewBox="0 0 384 383.999986" height="512" preserveAspectRatio="xMidYMid meet" version="1.0"><defs><clipPath id="d7dd6d65a7"><path d="M 26.101562 31.078125 L 357.601562 31.078125 L 357.601562 352.828125 L 26.101562 352.828125 Z M 26.101562 31.078125 " clip-rule="nonzero"/></clipPath></defs><g clip-path="url(#d7dd6d65a7)"><path fill="#ffffff" d="M 316.730469 140.734375 C 318.808594 138.640625 320.648438 136.007812 321.753906 133.28125 C 333.445312 104.621094 344.957031 75.878906 356.539062 47.175781 C 357.773438 44.128906 359.003906 41.070312 356.136719 38.261719 C 353.28125 35.464844 350.246094 36.769531 347.199219 37.992188 C 324.730469 47.054688 302.492188 56.734375 279.710938 64.917969 C 263.710938 70.660156 250.703125 79.589844 239.148438 91.953125 C 222.460938 109.816406 204.800781 126.765625 187.683594 143.894531 C 186.773438 144.808594 185.355469 144.992188 184.242188 144.339844 C 174.402344 138.578125 164.828125 132.976562 155.277344 127.390625 C 154.269531 126.800781 153.734375 125.652344 153.914062 124.496094 C 156.015625 111.066406 150.371094 104.296875 134.507812 100.683594 C 133.585938 100.476562 132.832031 99.816406 132.492188 98.9375 C 130.066406 92.585938 128.078125 86.296875 125.105469 80.511719 C 119.050781 68.738281 109.09375 62.421875 95.734375 61.882812 C 91.242188 61.703125 86.742188 61.824219 82.25 61.773438 C 72.5625 61.648438 63.648438 58.773438 56.734375 52.085938 C 51.402344 46.90625 47.378906 40.382812 42.433594 34.761719 C 40.835938 32.945312 38.132812 30.984375 36.03125 31.078125 C 34.234375 31.15625 31.664062 33.789062 30.984375 35.8125 C 23.085938 59.453125 24.363281 82.351562 37.996094 103.714844 C 50.28125 122.949219 68.324219 134.21875 90.21875 139.585938 C 93.476562 140.386719 95.28125 141.332031 95.949219 145.128906 C 97.4375 153.609375 105.140625 159.664062 113.820312 159.855469 C 115.636719 159.898438 117.460938 159.683594 119.121094 159.492188 C 120.234375 159.359375 121.320312 159.90625 121.890625 160.871094 C 127.503906 170.453125 133.03125 179.878906 138.765625 189.65625 C 139.457031 190.835938 139.199219 192.332031 138.171875 193.234375 C 138.078125 193.320312 137.980469 193.40625 137.894531 193.496094 C 110.304688 221.070312 82.703125 248.644531 55.144531 276.253906 C 44.660156 286.765625 44.675781 299.300781 55.09375 309.734375 C 64.625 319.273438 74.179688 328.789062 83.683594 338.34375 C 95.472656 350.183594 107.4375 350.167969 119.242188 338.328125 C 144.585938 312.914062 169.953125 287.539062 195.632812 261.832031 C 196.746094 260.71875 198.5625 260.71875 199.664062 261.847656 C 199.671875 261.859375 199.671875 261.859375 199.683594 261.867188 C 229.402344 292.679688 263.761719 317.179688 301.996094 336.222656 C 313.890625 342.148438 326.269531 347.136719 338.5625 352.226562 C 343.6875 354.347656 347.808594 351.347656 347.269531 346.398438 C 347.078125 344.675781 346.398438 342.984375 345.757812 341.351562 C 325.894531 290.605469 297.210938 245.59375 258.332031 207.265625 C 257.835938 206.777344 257.253906 206.386719 256.613281 206.039062 C 254.960938 205.136719 254.667969 202.886719 255.996094 201.554688 C 277.203125 180.367188 297.019531 160.601562 316.730469 140.734375 Z M 315.714844 63.429688 C 322.074219 60.859375 328.371094 58.3125 335.183594 55.558594 C 337.496094 54.621094 339.804688 56.925781 338.875 59.242188 C 336.175781 66.003906 333.671875 72.273438 331.273438 78.261719 C 330.535156 80.113281 328.15625 80.640625 326.703125 79.277344 C 322.75 75.566406 318.859375 71.910156 314.835938 68.132812 C 313.324219 66.714844 313.792969 64.203125 315.714844 63.429688 Z M 272.613281 80.726562 C 280.171875 77.6875 287.738281 74.671875 295.558594 71.546875 C 296.855469 71.023438 298.332031 71.527344 299.042969 72.726562 C 304.714844 82.25 312.117188 89.929688 321.648438 95.742188 C 322.828125 96.460938 323.316406 97.929688 322.804688 99.214844 C 319.09375 108.511719 315.652344 117.652344 311.519531 126.460938 C 310.980469 127.617188 308.921875 128.066406 306.636719 128.578125 C 304.914062 128.960938 303.265625 127.703125 303.1875 125.9375 C 303.054688 122.992188 302.953125 120.5625 302.847656 118.136719 C 302.570312 111.628906 300.71875 109.882812 294.34375 110.015625 C 292.242188 110.058594 290.136719 110.039062 287.75 110.03125 C 286.238281 110.023438 284.996094 108.832031 284.925781 107.328125 C 284.796875 104.550781 284.671875 101.707031 284.527344 98.867188 C 284.246094 93.613281 282.285156 91.746094 277.027344 91.769531 C 275.429688 91.777344 273.824219 91.890625 272.222656 91.96875 C 271.40625 92.011719 270.589844 92.046875 269.78125 92.089844 C 268.453125 92.160156 267.261719 91.300781 266.90625 90.023438 C 265.257812 84.046875 266.089844 83.359375 272.613281 80.726562 Z M 102.5625 125.453125 C 99.667969 129.082031 96.644531 129.335938 92.535156 128.179688 C 65.363281 120.535156 45.894531 104.84375 39.472656 76.316406 C 38.300781 71.085938 38.160156 65.628906 38.054688 60.164062 C 41.269531 58.792969 41.460938 58.703125 44.675781 57.332031 C 52.695312 65.34375 62.191406 70.964844 73.882812 72.683594 C 79.566406 73.515625 85.394531 73.457031 91.164062 73.472656 C 104.941406 73.527344 112.066406 78.253906 117.289062 91.152344 C 122.777344 104.714844 122.710938 105.046875 112.667969 115.148438 C 109.269531 118.554688 105.542969 121.707031 102.5625 125.453125 Z M 120.269531 145.53125 C 115.984375 149.664062 109.992188 148.925781 108 143.863281 C 107.296875 142.0625 107.582031 138.839844 108.792969 137.484375 C 115.6875 129.710938 122.8125 122.117188 130.320312 114.921875 C 131.953125 113.359375 135.765625 112.707031 137.957031 113.453125 C 139.746094 114.070312 141.046875 116.128906 142.535156 118.09375 C 143.195312 118.960938 143.289062 120.136719 142.796875 121.101562 C 141.804688 123.039062 141.101562 124.652344 139.945312 125.84375 C 133.507812 132.53125 126.941406 139.09375 120.269531 145.53125 Z M 138.5625 166.378906 C 135.964844 161.785156 131.5625 156.660156 132.109375 152.289062 C 132.640625 148.050781 138.71875 144.679688 141.890625 140.558594 C 144.707031 136.902344 147.496094 136.695312 151.203125 138.902344 C 158.640625 143.332031 166.183594 147.578125 173.652344 151.941406 C 173.730469 151.984375 173.808594 152.035156 173.898438 152.089844 C 175.441406 153.054688 175.667969 155.226562 174.375 156.503906 C 166.5625 164.207031 158.859375 171.808594 150.824219 179.742188 C 149.535156 181.011719 147.398438 180.765625 146.433594 179.238281 C 143.8125 175.066406 141.066406 170.792969 138.5625 166.378906 Z M 96.871094 252.832031 C 148.035156 201.757812 199.394531 150.492188 250.722656 99.25 C 252.207031 97.765625 254.761719 98.355469 255.414062 100.355469 C 257.367188 106.382812 264.472656 103.757812 270.207031 103.914062 C 271.605469 103.949219 272.769531 105.019531 272.9375 106.410156 C 273.441406 110.71875 273.273438 114.617188 269.355469 118.519531 C 218.222656 169.308594 167.3125 220.320312 116.332031 271.265625 C 116.082031 271.519531 115.828125 271.761719 115.566406 272.003906 C 114.4375 273.054688 112.683594 273.019531 111.597656 271.917969 C 106.550781 266.75 101.597656 261.683594 96.847656 256.820312 C 95.761719 255.707031 95.777344 253.925781 96.871094 252.832031 Z M 114.308594 326.617188 C 112.570312 328.363281 110.703125 330.238281 108.773438 332.046875 C 104.101562 336.414062 98.695312 336.589844 94.230469 332.203125 C 83.589844 321.75 73.03125 311.203125 62.574219 300.570312 C 57.855469 295.773438 57.941406 290.484375 62.417969 285.636719 C 64.199219 283.707031 65.996094 281.796875 67.691406 279.996094 C 68.785156 278.832031 70.636719 278.808594 71.765625 279.9375 C 86.046875 294.269531 100.070312 308.328125 114.308594 322.621094 C 115.410156 323.722656 115.410156 325.511719 114.308594 326.617188 Z M 129.191406 311.550781 C 128.746094 311.960938 128.296875 312.367188 127.859375 312.777344 C 126.738281 313.800781 125.011719 313.765625 123.933594 312.6875 C 109.964844 298.691406 95.960938 284.664062 81.773438 270.441406 C 80.695312 269.363281 80.660156 267.636719 81.695312 266.515625 C 82.101562 266.070312 82.511719 265.628906 82.917969 265.183594 C 84.015625 264.003906 85.875 263.960938 87.011719 265.105469 C 101.199219 279.320312 115.125 293.28125 129.277344 307.460938 C 130.414062 308.605469 130.378906 310.464844 129.191406 311.550781 Z M 328.371094 330.144531 C 329.457031 332.523438 327.007812 334.980469 324.621094 333.894531 C 280.460938 313.898438 241.660156 288.101562 208.585938 254.167969 C 207.5 253.058594 207.507812 251.285156 208.605469 250.191406 C 220.714844 238 232.53125 226.109375 244.519531 214.039062 C 245.613281 212.9375 247.394531 212.929688 248.507812 214.007812 C 282.492188 247.0625 308.277344 285.914062 328.371094 330.144531 Z M 142.160156 297.347656 C 141.058594 298.449219 139.277344 298.449219 138.164062 297.355469 C 133.890625 293.132812 129.25 288.554688 124.253906 283.621094 C 123.125 282.507812 123.132812 280.691406 124.253906 279.582031 C 133.578125 270.421875 143.1875 261.058594 152.679688 251.578125 C 194.375 209.957031 236.101562 168.371094 277.574219 126.539062 C 281.121094 122.960938 284.648438 121.984375 288.644531 122.195312 C 289.921875 122.265625 291.007812 123.167969 291.277344 124.417969 C 292.386719 129.734375 289.296875 136.746094 294.714844 139.769531 C 296.367188 140.691406 296.695312 142.921875 295.359375 144.261719 C 244.328125 195.257812 193.105469 246.4375 142.160156 297.347656 Z M 142.160156 297.347656 " fill-opacity="1" fill-rule="nonzero"/></g></svg>