<svg xmlns="http://www.w3.org/2000/svg" xmlns:xlink="http://www.w3.org/1999/xlink" width="512" zoomAndPan="magnify" viewBox="0 0 384 383.999986" height="512" preserveAspectRatio="xMidYMid meet" version="1.0"><defs><clipPath id="7221119352"><path d="M 33.0625 30.4375 L 351 30.4375 L 351 353.6875 L 33.0625 353.6875 Z M 33.0625 30.4375 " clip-rule="nonzero"/></clipPath></defs><g clip-path="url(#7221119352)"><path fill="#ffffff" d="M 57.539062 322.671875 C 57.539062 319.882812 59.800781 317.621094 62.59375 317.621094 L 203.699219 317.621094 C 206.488281 317.621094 208.75 319.882812 208.75 322.671875 C 208.75 325.464844 206.488281 327.726562 203.699219 327.726562 L 62.59375 327.726562 C 59.800781 327.726562 57.539062 325.464844 57.539062 322.671875 Z M 214.394531 245.996094 C 227.972656 238.382812 238.164062 227.515625 244.691406 213.6875 C 245.527344 211.917969 247.304688 210.789062 249.261719 210.789062 L 292.75 210.789062 C 294.703125 210.789062 296.484375 211.917969 297.320312 213.6875 C 303.84375 227.511719 314.039062 238.382812 327.617188 245.996094 C 329.625 247.121094 330.617188 249.460938 330.03125 251.6875 C 319.921875 290.128906 301.984375 315.90625 273.582031 332.8125 C 272.785156 333.285156 271.890625 333.523438 270.996094 333.523438 C 270.101562 333.523438 269.207031 333.285156 268.410156 332.8125 C 240.019531 315.902344 222.085938 290.125 211.980469 251.691406 C 211.390625 249.460938 212.382812 247.121094 214.394531 245.996094 Z M 253.335938 258.582031 C 251.359375 256.609375 248.160156 256.609375 246.1875 258.582031 C 244.214844 260.554688 244.214844 263.757812 246.1875 265.730469 L 263.324219 282.867188 C 264.3125 283.851562 265.605469 284.347656 266.898438 284.347656 C 268.191406 284.347656 269.484375 283.855469 270.472656 282.867188 L 295.820312 257.539062 C 297.792969 255.566406 297.796875 252.367188 295.824219 250.390625 C 293.851562 248.417969 290.652344 248.417969 288.675781 250.390625 L 266.902344 272.148438 Z M 66.878906 187.023438 L 66.878906 178.8125 C 66.878906 176.023438 69.140625 173.757812 71.929688 173.757812 L 73.898438 173.757812 L 85.472656 153.6875 L 76.457031 153.6875 C 73.667969 153.6875 71.402344 151.425781 71.402344 148.636719 C 71.402344 145.84375 73.667969 143.582031 76.457031 143.582031 L 123.839844 143.582031 C 125.570312 137.609375 130.289062 132.898438 136.265625 131.167969 L 136.265625 124.71875 C 136.265625 121.925781 138.53125 119.664062 141.320312 119.664062 C 144.113281 119.664062 146.375 121.925781 146.375 124.71875 L 146.375 131.171875 C 152.34375 132.902344 157.054688 137.613281 158.785156 143.582031 L 206.167969 143.582031 C 208.957031 143.582031 211.21875 145.84375 211.21875 148.636719 C 211.21875 151.425781 208.957031 153.6875 206.167969 153.6875 L 197.15625 153.6875 L 208.746094 173.757812 L 210.691406 173.757812 C 213.484375 173.757812 215.746094 176.023438 215.746094 178.8125 L 215.746094 187.023438 C 215.746094 194.347656 209.789062 200.304688 202.464844 200.304688 L 174.324219 200.304688 C 167.011719 200.304688 161.058594 194.347656 161.058594 187.023438 L 161.058594 178.8125 C 161.058594 176.023438 163.324219 173.757812 166.113281 173.757812 L 168.0625 173.757812 L 179.652344 153.6875 L 158.785156 153.6875 C 157.058594 159.667969 152.34375 164.382812 146.375 166.117188 L 146.375 217.445312 L 158.226562 217.445312 C 161.015625 217.445312 163.277344 219.707031 163.277344 222.496094 C 163.277344 225.289062 161.015625 227.550781 158.226562 227.550781 L 124.398438 227.550781 C 121.605469 227.550781 119.34375 225.289062 119.34375 222.496094 C 119.34375 219.707031 121.605469 217.445312 124.398438 217.445312 L 136.265625 217.445312 L 136.265625 166.117188 C 130.289062 164.386719 125.570312 159.667969 123.839844 153.6875 L 102.972656 153.6875 L 114.5625 173.757812 L 116.511719 173.757812 C 119.300781 173.757812 121.5625 176.023438 121.5625 178.8125 L 121.5625 187.023438 C 121.5625 194.347656 115.613281 200.304688 108.300781 200.304688 L 80.160156 200.304688 C 72.835938 200.304688 66.878906 194.347656 66.878906 187.023438 Z M 179.734375 173.757812 L 197.074219 173.757812 L 188.402344 158.742188 Z M 133.226562 148.636719 C 133.226562 153.097656 136.855469 156.730469 141.320312 156.730469 C 145.773438 156.730469 149.398438 153.097656 149.398438 148.636719 C 149.398438 144.179688 145.773438 140.558594 141.320312 140.558594 C 136.855469 140.558594 133.226562 144.179688 133.226562 148.636719 Z M 85.5625 173.757812 L 102.890625 173.757812 L 94.222656 158.746094 Z M 33.105469 335.285156 L 33.105469 95.453125 C 33.105469 85.386719 41.300781 77.199219 51.375 77.199219 L 79.738281 77.199219 L 79.738281 65.613281 C 79.738281 62.824219 82 60.5625 84.792969 60.5625 L 106.503906 60.5625 C 108.960938 43.550781 123.640625 30.4375 141.320312 30.4375 C 158.992188 30.4375 173.664062 43.550781 176.121094 60.5625 L 197.832031 60.5625 C 200.621094 60.5625 202.886719 62.824219 202.886719 65.613281 L 202.886719 77.199219 L 231.265625 77.199219 C 241.332031 77.199219 249.519531 85.386719 249.519531 95.453125 L 249.519531 193.507812 L 305.894531 193.507812 C 308.214844 193.507812 310.238281 195.085938 310.800781 197.339844 C 315.566406 216.425781 327.488281 228.644531 347.25 234.695312 C 349.714844 235.449219 351.214844 237.9375 350.734375 240.46875 C 340.023438 296.921875 315.386719 332.695312 273.191406 353.054688 C 272.5 353.390625 271.746094 353.558594 270.996094 353.558594 C 270.246094 353.558594 269.492188 353.390625 268.796875 353.054688 C 261.535156 349.546875 254.800781 345.570312 248.558594 341.121094 C 246.121094 348.34375 239.292969 353.558594 231.265625 353.558594 L 51.375 353.558594 C 41.300781 353.558594 33.105469 345.359375 33.105469 335.285156 Z M 239.949219 203.617188 C 234.109375 222.609375 221.386719 235.796875 202.058594 242.898438 C 212.324219 292.457031 234.335938 324.359375 270.996094 342.867188 C 307.667969 324.363281 329.679688 292.460938 339.949219 242.898438 C 320.621094 235.796875 307.898438 222.605469 302.054688 203.617188 Z M 43.210938 335.285156 C 43.210938 339.789062 46.875 343.453125 51.375 343.453125 L 231.265625 343.453125 C 235.757812 343.453125 239.414062 339.789062 239.414062 335.285156 L 239.414062 333.953125 C 214.761719 312.6875 199.199219 282.246094 191.273438 240.46875 C 190.792969 237.9375 192.296875 235.449219 194.757812 234.695312 C 214.519531 228.644531 226.441406 216.425781 231.207031 197.339844 C 231.769531 195.085938 233.792969 193.507812 236.113281 193.507812 L 239.414062 193.507812 L 239.414062 95.453125 C 239.414062 90.960938 235.757812 87.304688 231.265625 87.304688 L 202.882812 87.304688 L 202.882812 98.886719 C 202.882812 101.679688 200.621094 103.941406 197.832031 103.941406 L 84.792969 103.941406 C 82 103.941406 79.738281 101.679688 79.738281 98.886719 L 79.738281 87.304688 L 51.375 87.304688 C 46.875 87.304688 43.210938 90.960938 43.210938 95.453125 Z M 62.59375 252.703125 L 172.484375 252.703125 C 175.273438 252.703125 177.535156 250.4375 177.535156 247.648438 C 177.535156 244.855469 175.273438 242.59375 172.484375 242.59375 L 62.59375 242.59375 C 59.800781 242.59375 57.539062 244.855469 57.539062 247.648438 C 57.539062 250.4375 59.800781 252.703125 62.59375 252.703125 Z M 62.59375 290.214844 L 183.464844 290.214844 C 186.257812 290.214844 188.519531 287.953125 188.519531 285.160156 C 188.519531 282.371094 186.257812 280.105469 183.464844 280.105469 L 62.59375 280.105469 C 59.800781 280.105469 57.539062 282.371094 57.539062 285.160156 C 57.539062 287.953125 59.800781 290.214844 62.59375 290.214844 Z M 62.59375 290.214844 " fill-opacity="1" fill-rule="nonzero"/></g></svg>