<svg xmlns="http://www.w3.org/2000/svg" xmlns:xlink="http://www.w3.org/1999/xlink" width="512" zoomAndPan="magnify" viewBox="0 0 384 383.999986" height="512" preserveAspectRatio="xMidYMid meet" version="1.0"><defs><clipPath id="5b81023c39"><path d="M 43.664062 38.398438 L 340 38.398438 L 340 334.648438 L 43.664062 334.648438 Z M 43.664062 38.398438 " clip-rule="nonzero"/></clipPath><clipPath id="d1236931c0"><path d="M 44 38.398438 L 197 38.398438 L 197 191 L 44 191 Z M 44 38.398438 " clip-rule="nonzero"/></clipPath><clipPath id="2b0197d76d"><path d="M 187 182 L 340 182 L 340 334.648438 L 187 334.648438 Z M 187 182 " clip-rule="nonzero"/></clipPath></defs><g clip-path="url(#5b81023c39)"><path fill="#ffffff" d="M 105.125 334.320312 C 93.257812 334.320312 81.390625 329.792969 72.335938 320.738281 L 57.519531 305.992188 C 39.476562 287.882812 39.476562 258.523438 57.519531 240.414062 L 246.019531 51.914062 C 264.128906 33.871094 293.488281 33.871094 311.597656 51.914062 L 326.414062 66.796875 C 335.195312 75.578125 339.996094 87.171875 339.996094 99.585938 C 339.996094 112.003906 335.195312 123.597656 326.414062 132.375 L 269.480469 189.308594 L 137.914062 320.808594 C 128.925781 329.863281 116.992188 334.320312 105.125 334.320312 Z M 278.808594 46.632812 C 269.066406 46.632812 259.257812 50.335938 251.851562 57.8125 L 63.347656 246.246094 C 48.464844 261.128906 48.464844 285.277344 63.347656 300.160156 L 78.164062 314.976562 C 93.050781 329.863281 117.195312 329.863281 132.082031 314.976562 L 320.515625 126.476562 C 327.714844 119.273438 331.695312 109.671875 331.695312 99.519531 C 331.695312 89.367188 327.714844 79.761719 320.515625 72.5625 L 305.699219 57.742188 C 298.289062 50.335938 288.546875 46.632812 278.808594 46.632812 Z M 323.464844 129.425781 Z M 323.464844 129.425781 " fill-opacity="1" fill-rule="nonzero"/></g><path fill="#ffffff" d="M 173.992188 252.007812 C 170.839844 252.007812 167.957031 250.773438 165.695312 248.578125 L 130.503906 213.386719 C 128.308594 211.191406 127.074219 208.242188 127.074219 205.085938 C 127.074219 201.933594 128.308594 199.050781 130.503906 196.789062 L 201.636719 125.652344 C 203.832031 123.457031 206.78125 122.222656 209.9375 122.222656 C 213.09375 122.222656 215.972656 123.457031 218.238281 125.652344 L 253.425781 160.84375 C 255.621094 163.039062 256.855469 165.988281 256.855469 169.144531 C 256.855469 172.300781 255.621094 175.179688 253.425781 177.445312 L 182.292969 248.578125 C 180.097656 250.773438 177.148438 252.007812 173.992188 252.007812 Z M 209.9375 130.523438 C 208.976562 130.523438 208.152344 130.867188 207.46875 131.554688 L 136.335938 202.617188 C 135.648438 203.304688 135.304688 204.128906 135.304688 205.085938 C 135.304688 206.046875 135.648438 206.871094 136.335938 207.558594 L 171.523438 242.746094 C 172.210938 243.433594 173.035156 243.777344 173.992188 243.777344 C 174.953125 243.777344 175.777344 243.433594 176.464844 242.746094 L 247.597656 171.613281 C 248.28125 170.925781 248.625 170.105469 248.625 169.144531 C 248.625 168.183594 248.28125 167.359375 247.597656 166.675781 L 212.339844 131.484375 C 211.722656 130.867188 210.828125 130.523438 209.9375 130.523438 Z M 209.9375 130.523438 " fill-opacity="1" fill-rule="nonzero"/><path fill="#ffffff" d="M 200.335938 164.410156 C 197.109375 164.410156 194.503906 161.804688 194.503906 158.578125 C 194.503906 155.355469 197.109375 152.75 200.335938 152.75 C 203.558594 152.75 206.164062 155.355469 206.164062 158.578125 C 206.164062 161.804688 203.558594 164.410156 200.335938 164.410156 Z M 200.335938 156.179688 C 199.03125 156.179688 197.933594 157.277344 197.933594 158.578125 C 197.933594 159.882812 199.03125 160.980469 200.335938 160.980469 C 201.636719 160.980469 202.734375 159.882812 202.734375 158.578125 C 202.734375 157.277344 201.636719 156.179688 200.335938 156.179688 Z M 200.335938 156.179688 " fill-opacity="1" fill-rule="nonzero"/><path fill="#ffffff" d="M 241.148438 110.5625 C 237.925781 110.5625 235.316406 107.957031 235.316406 104.730469 C 235.316406 101.507812 237.925781 98.902344 241.148438 98.902344 C 244.371094 98.902344 246.980469 101.507812 246.980469 104.730469 C 246.980469 107.957031 244.371094 110.5625 241.148438 110.5625 Z M 241.148438 102.332031 C 239.84375 102.332031 238.746094 103.429688 238.746094 104.730469 C 238.746094 106.035156 239.84375 107.132812 241.148438 107.132812 C 242.453125 107.132812 243.550781 106.035156 243.550781 104.730469 C 243.617188 103.429688 242.519531 102.332031 241.148438 102.332031 Z M 241.148438 102.332031 " fill-opacity="1" fill-rule="nonzero"/><path fill="#ffffff" d="M 258.914062 92.796875 C 255.691406 92.796875 253.085938 90.191406 253.085938 86.964844 C 253.085938 83.742188 255.691406 81.136719 258.914062 81.136719 C 262.140625 81.136719 264.746094 83.742188 264.746094 86.964844 C 264.746094 90.191406 262.140625 92.796875 258.914062 92.796875 Z M 258.914062 84.566406 C 257.613281 84.566406 256.515625 85.664062 256.515625 86.964844 C 256.515625 88.269531 257.613281 89.367188 258.914062 89.367188 C 260.21875 89.367188 261.316406 88.269531 261.316406 86.964844 C 261.316406 85.664062 260.21875 84.566406 258.914062 84.566406 Z M 258.914062 84.566406 " fill-opacity="1" fill-rule="nonzero"/><path fill="#ffffff" d="M 276.679688 75.097656 C 273.457031 75.097656 270.851562 72.492188 270.851562 69.269531 C 270.851562 66.042969 273.457031 63.4375 276.679688 63.4375 C 279.90625 63.4375 282.511719 66.042969 282.511719 69.269531 C 282.511719 72.492188 279.835938 75.097656 276.679688 75.097656 Z M 276.679688 66.867188 C 275.378906 66.867188 274.28125 67.964844 274.28125 69.269531 C 274.28125 70.570312 275.378906 71.667969 276.679688 71.667969 C 277.984375 71.667969 279.082031 70.570312 279.082031 69.269531 C 279.082031 67.964844 277.984375 66.867188 276.679688 66.867188 Z M 276.679688 66.867188 " fill-opacity="1" fill-rule="nonzero"/><path fill="#ffffff" d="M 258.914062 128.261719 C 255.691406 128.261719 253.085938 125.652344 253.085938 122.429688 C 253.085938 119.207031 255.691406 116.597656 258.914062 116.597656 C 262.140625 116.597656 264.746094 119.207031 264.746094 122.429688 C 264.746094 125.652344 262.140625 128.261719 258.914062 128.261719 Z M 258.914062 120.027344 C 257.613281 120.027344 256.515625 121.125 256.515625 122.429688 C 256.515625 123.734375 257.613281 124.832031 258.914062 124.832031 C 260.21875 124.832031 261.316406 123.734375 261.316406 122.429688 C 261.316406 121.125 260.21875 120.027344 258.914062 120.027344 Z M 258.914062 120.027344 " fill-opacity="1" fill-rule="nonzero"/><path fill="#ffffff" d="M 276.679688 110.5625 C 273.457031 110.5625 270.851562 107.957031 270.851562 104.730469 C 270.851562 101.507812 273.457031 98.902344 276.679688 98.902344 C 279.90625 98.902344 282.511719 101.507812 282.511719 104.730469 C 282.511719 107.957031 279.835938 110.5625 276.679688 110.5625 Z M 276.679688 102.332031 C 275.378906 102.332031 274.28125 103.429688 274.28125 104.730469 C 274.28125 106.035156 275.378906 107.132812 276.679688 107.132812 C 277.984375 107.132812 279.082031 106.035156 279.082031 104.730469 C 279.082031 103.429688 277.984375 102.332031 276.679688 102.332031 Z M 276.679688 102.332031 " fill-opacity="1" fill-rule="nonzero"/><path fill="#ffffff" d="M 294.378906 92.796875 C 291.15625 92.796875 288.546875 90.191406 288.546875 86.964844 C 288.546875 83.742188 291.15625 81.136719 294.378906 81.136719 C 297.601562 81.136719 300.210938 83.742188 300.210938 86.964844 C 300.210938 90.191406 297.601562 92.796875 294.378906 92.796875 Z M 294.378906 84.566406 C 293.074219 84.566406 291.976562 85.664062 291.976562 86.964844 C 291.976562 88.269531 293.074219 89.367188 294.378906 89.367188 C 295.683594 89.367188 296.78125 88.269531 296.78125 86.964844 C 296.78125 85.664062 295.75 84.566406 294.378906 84.566406 Z M 294.378906 84.566406 " fill-opacity="1" fill-rule="nonzero"/><path fill="#ffffff" d="M 276.679688 146.027344 C 273.457031 146.027344 270.851562 143.421875 270.851562 140.195312 C 270.851562 136.972656 273.457031 134.367188 276.679688 134.367188 C 279.90625 134.367188 282.511719 136.972656 282.511719 140.195312 C 282.511719 143.421875 279.835938 146.027344 276.679688 146.027344 Z M 276.679688 137.796875 C 275.378906 137.796875 274.28125 138.894531 274.28125 140.195312 C 274.28125 141.5 275.378906 142.597656 276.679688 142.597656 C 277.984375 142.597656 279.082031 141.5 279.082031 140.195312 C 279.082031 138.894531 277.984375 137.796875 276.679688 137.796875 Z M 276.679688 137.796875 " fill-opacity="1" fill-rule="nonzero"/><path fill="#ffffff" d="M 294.378906 128.261719 C 291.15625 128.261719 288.546875 125.652344 288.546875 122.429688 C 288.546875 119.207031 291.15625 116.597656 294.378906 116.597656 C 297.601562 116.597656 300.210938 119.207031 300.210938 122.429688 C 300.210938 125.652344 297.601562 128.261719 294.378906 128.261719 Z M 294.378906 120.027344 C 293.074219 120.027344 291.976562 121.125 291.976562 122.429688 C 291.976562 123.734375 293.074219 124.832031 294.378906 124.832031 C 295.683594 124.832031 296.78125 123.734375 296.78125 122.429688 C 296.78125 121.125 295.75 120.027344 294.378906 120.027344 Z M 294.378906 120.027344 " fill-opacity="1" fill-rule="nonzero"/><path fill="#ffffff" d="M 312.144531 110.5625 C 308.921875 110.5625 306.316406 107.957031 306.316406 104.730469 C 306.316406 101.507812 308.921875 98.902344 312.144531 98.902344 C 315.371094 98.902344 317.976562 101.507812 317.976562 104.730469 C 317.976562 107.957031 315.371094 110.5625 312.144531 110.5625 Z M 312.144531 102.332031 C 310.84375 102.332031 309.746094 103.429688 309.746094 104.730469 C 309.746094 106.035156 310.84375 107.132812 312.144531 107.132812 C 313.449219 107.132812 314.546875 106.035156 314.546875 104.730469 C 314.546875 103.429688 313.449219 102.332031 312.144531 102.332031 Z M 312.144531 102.332031 " fill-opacity="1" fill-rule="nonzero"/><path fill="#ffffff" d="M 109.582031 242.199219 C 106.359375 242.199219 103.75 239.589844 103.75 236.367188 C 103.75 233.144531 106.359375 230.535156 109.582031 230.535156 C 112.804688 230.535156 115.414062 233.144531 115.414062 236.367188 C 115.414062 239.589844 112.804688 242.199219 109.582031 242.199219 Z M 109.582031 233.964844 C 108.277344 233.964844 107.179688 235.0625 107.179688 236.367188 C 107.179688 237.671875 108.277344 238.769531 109.582031 238.769531 C 110.886719 238.769531 111.984375 237.671875 111.984375 236.367188 C 111.984375 235.0625 110.886719 233.964844 109.582031 233.964844 Z M 109.582031 233.964844 " fill-opacity="1" fill-rule="nonzero"/><path fill="#ffffff" d="M 91.816406 259.894531 C 88.59375 259.894531 85.984375 257.289062 85.984375 254.066406 C 85.984375 250.839844 88.59375 248.234375 91.816406 248.234375 C 95.039062 248.234375 97.648438 250.839844 97.648438 254.066406 C 97.648438 257.289062 95.039062 259.894531 91.816406 259.894531 Z M 91.816406 251.664062 C 90.511719 251.664062 89.414062 252.761719 89.414062 254.066406 C 89.414062 255.367188 90.511719 256.464844 91.816406 256.464844 C 93.121094 256.464844 94.214844 255.367188 94.214844 254.066406 C 94.214844 252.761719 93.121094 251.664062 91.816406 251.664062 Z M 91.816406 251.664062 " fill-opacity="1" fill-rule="nonzero"/><path fill="#ffffff" d="M 74.117188 277.660156 C 70.894531 277.660156 68.289062 275.054688 68.289062 271.832031 C 68.289062 268.605469 70.894531 266 74.117188 266 C 77.34375 266 79.949219 268.605469 79.949219 271.832031 C 79.949219 275.054688 77.273438 277.660156 74.117188 277.660156 Z M 74.117188 269.429688 C 72.816406 269.429688 71.71875 270.527344 71.71875 271.832031 C 71.71875 273.132812 72.816406 274.230469 74.117188 274.230469 C 75.421875 274.230469 76.519531 273.132812 76.519531 271.832031 C 76.519531 270.527344 75.421875 269.429688 74.117188 269.429688 Z M 74.117188 269.429688 " fill-opacity="1" fill-rule="nonzero"/><path fill="#ffffff" d="M 127.28125 259.894531 C 124.054688 259.894531 121.449219 257.289062 121.449219 254.066406 C 121.449219 250.839844 124.054688 248.234375 127.28125 248.234375 C 130.503906 248.234375 133.109375 250.839844 133.109375 254.066406 C 133.109375 257.289062 130.503906 259.894531 127.28125 259.894531 Z M 127.28125 251.664062 C 125.976562 251.664062 124.878906 252.761719 124.878906 254.066406 C 124.878906 255.367188 125.976562 256.464844 127.28125 256.464844 C 128.582031 256.464844 129.679688 255.367188 129.679688 254.066406 C 129.679688 252.761719 128.652344 251.664062 127.28125 251.664062 Z M 127.28125 251.664062 " fill-opacity="1" fill-rule="nonzero"/><path fill="#ffffff" d="M 109.582031 277.660156 C 106.359375 277.660156 103.75 275.054688 103.75 271.832031 C 103.75 268.605469 106.359375 266 109.582031 266 C 112.804688 266 115.414062 268.605469 115.414062 271.832031 C 115.414062 275.054688 112.804688 277.660156 109.582031 277.660156 Z M 109.582031 269.429688 C 108.277344 269.429688 107.179688 270.527344 107.179688 271.832031 C 107.179688 273.132812 108.277344 274.230469 109.582031 274.230469 C 110.886719 274.230469 111.984375 273.132812 111.984375 271.832031 C 111.984375 270.527344 110.886719 269.429688 109.582031 269.429688 Z M 109.582031 269.429688 " fill-opacity="1" fill-rule="nonzero"/><path fill="#ffffff" d="M 91.816406 295.359375 C 88.59375 295.359375 85.984375 292.753906 85.984375 289.527344 C 85.984375 286.304688 88.59375 283.699219 91.816406 283.699219 C 95.039062 283.699219 97.648438 286.304688 97.648438 289.527344 C 97.648438 292.753906 95.039062 295.359375 91.816406 295.359375 Z M 91.816406 287.128906 C 90.511719 287.128906 89.414062 288.226562 89.414062 289.527344 C 89.414062 290.832031 90.511719 291.929688 91.816406 291.929688 C 93.121094 291.929688 94.214844 290.832031 94.214844 289.527344 C 94.214844 288.226562 93.121094 287.128906 91.816406 287.128906 Z M 91.816406 287.128906 " fill-opacity="1" fill-rule="nonzero"/><path fill="#ffffff" d="M 145.046875 277.660156 C 141.820312 277.660156 139.214844 275.054688 139.214844 271.832031 C 139.214844 268.605469 141.820312 266 145.046875 266 C 148.269531 266 150.875 268.605469 150.875 271.832031 C 150.875 275.054688 148.269531 277.660156 145.046875 277.660156 Z M 145.046875 269.429688 C 143.742188 269.429688 142.644531 270.527344 142.644531 271.832031 C 142.644531 273.132812 143.742188 274.230469 145.046875 274.230469 C 146.347656 274.230469 147.445312 273.132812 147.445312 271.832031 C 147.445312 270.527344 146.347656 269.429688 145.046875 269.429688 Z M 145.046875 269.429688 " fill-opacity="1" fill-rule="nonzero"/><path fill="#ffffff" d="M 127.28125 295.359375 C 124.054688 295.359375 121.449219 292.753906 121.449219 289.527344 C 121.449219 286.304688 124.054688 283.699219 127.28125 283.699219 C 130.503906 283.699219 133.109375 286.304688 133.109375 289.527344 C 133.109375 292.753906 130.503906 295.359375 127.28125 295.359375 Z M 127.28125 287.128906 C 125.976562 287.128906 124.878906 288.226562 124.878906 289.527344 C 124.878906 290.832031 125.976562 291.929688 127.28125 291.929688 C 128.582031 291.929688 129.679688 290.832031 129.679688 289.527344 C 129.679688 288.226562 128.652344 287.128906 127.28125 287.128906 Z M 127.28125 287.128906 " fill-opacity="1" fill-rule="nonzero"/><path fill="#ffffff" d="M 109.582031 313.125 C 106.359375 313.125 103.75 310.519531 103.75 307.296875 C 103.75 304.070312 106.359375 301.464844 109.582031 301.464844 C 112.804688 301.464844 115.414062 304.070312 115.414062 307.296875 C 115.414062 310.519531 112.804688 313.125 109.582031 313.125 Z M 109.582031 304.894531 C 108.277344 304.894531 107.179688 305.992188 107.179688 307.296875 C 107.179688 308.597656 108.277344 309.695312 109.582031 309.695312 C 110.886719 309.695312 111.984375 308.597656 111.984375 307.296875 C 111.984375 305.992188 110.886719 304.894531 109.582031 304.894531 Z M 109.582031 304.894531 " fill-opacity="1" fill-rule="nonzero"/><path fill="#ffffff" d="M 182.292969 182.519531 C 179.070312 182.519531 176.464844 179.914062 176.464844 176.6875 C 176.464844 173.464844 179.070312 170.859375 182.292969 170.859375 C 185.519531 170.859375 188.125 173.464844 188.125 176.6875 C 188.125 179.914062 185.449219 182.519531 182.292969 182.519531 Z M 182.292969 174.289062 C 180.992188 174.289062 179.894531 175.386719 179.894531 176.6875 C 179.894531 177.992188 180.992188 179.089844 182.292969 179.089844 C 183.597656 179.089844 184.695312 177.992188 184.695312 176.6875 C 184.695312 175.316406 183.597656 174.289062 182.292969 174.289062 Z M 182.292969 174.289062 " fill-opacity="1" fill-rule="nonzero"/><path fill="#ffffff" d="M 164.183594 200.558594 C 160.960938 200.558594 158.355469 197.953125 158.355469 194.730469 C 158.355469 191.503906 160.960938 188.898438 164.183594 188.898438 C 167.410156 188.898438 170.015625 191.503906 170.015625 194.730469 C 170.015625 197.953125 167.410156 200.558594 164.183594 200.558594 Z M 164.183594 192.328125 C 162.882812 192.328125 161.785156 193.425781 161.785156 194.730469 C 161.785156 196.03125 162.882812 197.128906 164.183594 197.128906 C 165.488281 197.128906 166.585938 196.03125 166.585938 194.730469 C 166.585938 193.425781 165.554688 192.328125 164.183594 192.328125 Z M 164.183594 192.328125 " fill-opacity="1" fill-rule="nonzero"/><path fill="#ffffff" d="M 216.25 180.394531 C 213.023438 180.394531 210.417969 177.785156 210.417969 174.5625 C 210.417969 171.339844 213.023438 168.730469 216.25 168.730469 C 219.472656 168.730469 222.078125 171.339844 222.078125 174.5625 C 222.078125 177.785156 219.472656 180.394531 216.25 180.394531 Z M 216.25 172.160156 C 214.945312 172.160156 213.847656 173.257812 213.847656 174.5625 C 213.847656 175.867188 214.945312 176.964844 216.25 176.964844 C 217.550781 176.964844 218.648438 175.867188 218.648438 174.5625 C 218.648438 173.257812 217.621094 172.160156 216.25 172.160156 Z M 216.25 172.160156 " fill-opacity="1" fill-rule="nonzero"/><path fill="#ffffff" d="M 198.207031 198.433594 C 194.984375 198.433594 192.378906 195.828125 192.378906 192.601562 C 192.378906 189.378906 194.984375 186.773438 198.207031 186.773438 C 201.433594 186.773438 204.039062 189.378906 204.039062 192.601562 C 204.039062 195.828125 201.433594 198.433594 198.207031 198.433594 Z M 198.207031 190.203125 C 196.90625 190.203125 195.808594 191.300781 195.808594 192.601562 C 195.808594 193.90625 196.90625 195.003906 198.207031 195.003906 C 199.511719 195.003906 200.609375 193.90625 200.609375 192.601562 C 200.609375 191.300781 199.511719 190.203125 198.207031 190.203125 Z M 198.207031 190.203125 " fill-opacity="1" fill-rule="nonzero"/><path fill="#ffffff" d="M 180.167969 216.472656 C 176.941406 216.472656 174.335938 213.867188 174.335938 210.644531 C 174.335938 207.417969 176.941406 204.8125 180.167969 204.8125 C 183.390625 204.8125 185.996094 207.417969 185.996094 210.644531 C 185.996094 213.867188 183.390625 216.472656 180.167969 216.472656 Z M 180.167969 208.242188 C 178.863281 208.242188 177.765625 209.339844 177.765625 210.644531 C 177.765625 211.945312 178.863281 213.042969 180.167969 213.042969 C 181.46875 213.042969 182.566406 211.945312 182.566406 210.644531 C 182.566406 209.339844 181.46875 208.242188 180.167969 208.242188 Z M 180.167969 208.242188 " fill-opacity="1" fill-rule="nonzero"/><g clip-path="url(#d1236931c0)"><path fill="#ffffff" d="M 117.402344 190.476562 C 116.375 190.476562 115.277344 190.066406 114.519531 189.242188 L 57.585938 132.308594 C 39.546875 114.199219 39.546875 84.839844 57.585938 66.730469 L 72.335938 51.914062 C 90.445312 33.871094 119.804688 33.871094 137.914062 51.914062 L 194.847656 108.847656 C 196.425781 110.425781 196.425781 113.03125 194.847656 114.679688 L 120.28125 189.242188 C 119.460938 190.066406 118.429688 190.476562 117.402344 190.476562 Z M 105.125 46.632812 C 95.382812 46.632812 85.574219 50.335938 78.164062 57.742188 L 63.347656 72.5625 C 48.464844 87.445312 48.464844 111.589844 63.347656 126.476562 L 117.402344 180.53125 L 186.136719 111.796875 L 132.082031 57.742188 C 124.671875 50.335938 114.933594 46.632812 105.125 46.632812 Z M 105.125 46.632812 " fill-opacity="1" fill-rule="nonzero"/></g><g clip-path="url(#2b0197d76d)"><path fill="#ffffff" d="M 278.808594 334.320312 C 266.941406 334.320312 255.074219 329.792969 246.019531 320.738281 L 189.085938 263.804688 C 187.507812 262.226562 187.507812 259.621094 189.085938 257.976562 L 263.648438 183.410156 C 264.402344 182.65625 265.5 182.175781 266.527344 182.175781 C 267.625 182.175781 268.65625 182.589844 269.410156 183.410156 L 326.34375 240.347656 C 335.125 249.125 339.925781 260.71875 339.925781 273.132812 C 339.925781 285.550781 335.125 297.144531 326.34375 305.921875 L 311.597656 320.808594 C 302.542969 329.863281 290.675781 334.320312 278.808594 334.320312 Z M 197.796875 260.925781 L 251.851562 314.976562 C 266.734375 329.863281 290.878906 329.863281 305.765625 314.976562 L 320.582031 300.160156 C 327.785156 292.957031 331.761719 283.355469 331.761719 273.203125 C 331.761719 263.050781 327.785156 253.449219 320.582031 246.246094 L 266.527344 192.191406 Z M 197.796875 260.925781 " fill-opacity="1" fill-rule="nonzero"/></g><path fill="#ffffff" d="M 241.148438 273.820312 C 237.925781 273.820312 235.316406 271.214844 235.316406 267.988281 C 235.316406 264.765625 237.925781 262.160156 241.148438 262.160156 C 244.371094 262.160156 246.980469 264.765625 246.980469 267.988281 C 246.980469 271.214844 244.371094 273.820312 241.148438 273.820312 Z M 241.148438 265.589844 C 239.84375 265.589844 238.746094 266.6875 238.746094 267.988281 C 238.746094 269.292969 239.84375 270.390625 241.148438 270.390625 C 242.453125 270.390625 243.550781 269.292969 243.550781 267.988281 C 243.617188 266.6875 242.519531 265.589844 241.148438 265.589844 Z M 241.148438 265.589844 " fill-opacity="1" fill-rule="nonzero"/><path fill="#ffffff" d="M 258.914062 291.585938 C 255.691406 291.585938 253.085938 288.980469 253.085938 285.757812 C 253.085938 282.53125 255.691406 279.925781 258.914062 279.925781 C 262.140625 279.925781 264.746094 282.53125 264.746094 285.757812 C 264.746094 288.910156 262.140625 291.585938 258.914062 291.585938 Z M 258.914062 283.355469 C 257.613281 283.355469 256.515625 284.453125 256.515625 285.757812 C 256.515625 287.058594 257.613281 288.15625 258.914062 288.15625 C 260.21875 288.15625 261.316406 287.058594 261.316406 285.757812 C 261.316406 284.382812 260.21875 283.355469 258.914062 283.355469 Z M 258.914062 283.355469 " fill-opacity="1" fill-rule="nonzero"/><path fill="#ffffff" d="M 276.679688 309.285156 C 273.457031 309.285156 270.851562 306.679688 270.851562 303.453125 C 270.851562 300.230469 273.457031 297.625 276.679688 297.625 C 279.90625 297.625 282.511719 300.230469 282.511719 303.453125 C 282.511719 306.679688 279.835938 309.285156 276.679688 309.285156 Z M 276.679688 301.054688 C 275.378906 301.054688 274.28125 302.152344 274.28125 303.453125 C 274.28125 304.757812 275.378906 305.855469 276.679688 305.855469 C 277.984375 305.855469 279.082031 304.757812 279.082031 303.453125 C 279.082031 302.152344 277.984375 301.054688 276.679688 301.054688 Z M 276.679688 301.054688 " fill-opacity="1" fill-rule="nonzero"/><path fill="#ffffff" d="M 258.914062 256.054688 C 255.691406 256.054688 253.085938 253.449219 253.085938 250.222656 C 253.085938 247 255.691406 244.394531 258.914062 244.394531 C 262.140625 244.394531 264.746094 247 264.746094 250.222656 C 264.746094 253.449219 262.140625 256.054688 258.914062 256.054688 Z M 258.914062 247.824219 C 257.613281 247.824219 256.515625 248.921875 256.515625 250.222656 C 256.515625 251.527344 257.613281 252.625 258.914062 252.625 C 260.21875 252.625 261.316406 251.527344 261.316406 250.222656 C 261.316406 248.921875 260.21875 247.824219 258.914062 247.824219 Z M 258.914062 247.824219 " fill-opacity="1" fill-rule="nonzero"/><path fill="#ffffff" d="M 276.679688 273.820312 C 273.457031 273.820312 270.851562 271.214844 270.851562 267.988281 C 270.851562 264.765625 273.457031 262.160156 276.679688 262.160156 C 279.90625 262.160156 282.511719 264.765625 282.511719 267.988281 C 282.511719 271.214844 279.835938 273.820312 276.679688 273.820312 Z M 276.679688 265.589844 C 275.378906 265.589844 274.28125 266.6875 274.28125 267.988281 C 274.28125 269.292969 275.378906 270.390625 276.679688 270.390625 C 277.984375 270.390625 279.082031 269.292969 279.082031 267.988281 C 279.082031 266.6875 277.984375 265.589844 276.679688 265.589844 Z M 276.679688 265.589844 " fill-opacity="1" fill-rule="nonzero"/><path fill="#ffffff" d="M 294.378906 291.585938 C 291.15625 291.585938 288.546875 288.980469 288.546875 285.757812 C 288.546875 282.53125 291.15625 279.925781 294.378906 279.925781 C 297.601562 279.925781 300.210938 282.53125 300.210938 285.757812 C 300.210938 288.910156 297.601562 291.585938 294.378906 291.585938 Z M 294.378906 283.355469 C 293.074219 283.355469 291.976562 284.453125 291.976562 285.757812 C 291.976562 287.058594 293.074219 288.15625 294.378906 288.15625 C 295.683594 288.15625 296.78125 287.058594 296.78125 285.757812 C 296.78125 284.382812 295.75 283.355469 294.378906 283.355469 Z M 294.378906 283.355469 " fill-opacity="1" fill-rule="nonzero"/><path fill="#ffffff" d="M 276.679688 238.355469 C 273.457031 238.355469 270.851562 235.75 270.851562 232.527344 C 270.851562 229.300781 273.457031 226.695312 276.679688 226.695312 C 279.90625 226.695312 282.511719 229.300781 282.511719 232.527344 C 282.511719 235.75 279.835938 238.355469 276.679688 238.355469 Z M 276.679688 230.125 C 275.378906 230.125 274.28125 231.222656 274.28125 232.527344 C 274.28125 233.828125 275.378906 234.925781 276.679688 234.925781 C 277.984375 234.925781 279.082031 233.828125 279.082031 232.527344 C 279.082031 231.222656 277.984375 230.125 276.679688 230.125 Z M 276.679688 230.125 " fill-opacity="1" fill-rule="nonzero"/><path fill="#ffffff" d="M 294.378906 256.054688 C 291.15625 256.054688 288.546875 253.449219 288.546875 250.222656 C 288.546875 247 291.15625 244.394531 294.378906 244.394531 C 297.601562 244.394531 300.210938 247 300.210938 250.222656 C 300.210938 253.449219 297.601562 256.054688 294.378906 256.054688 Z M 294.378906 247.824219 C 293.074219 247.824219 291.976562 248.921875 291.976562 250.222656 C 291.976562 251.527344 293.074219 252.625 294.378906 252.625 C 295.683594 252.625 296.78125 251.527344 296.78125 250.222656 C 296.78125 248.921875 295.75 247.824219 294.378906 247.824219 Z M 294.378906 247.824219 " fill-opacity="1" fill-rule="nonzero"/><path fill="#ffffff" d="M 312.144531 273.820312 C 308.921875 273.820312 306.316406 271.214844 306.316406 267.988281 C 306.316406 264.765625 308.921875 262.160156 312.144531 262.160156 C 315.371094 262.160156 317.976562 264.765625 317.976562 267.988281 C 317.976562 271.214844 315.371094 273.820312 312.144531 273.820312 Z M 312.144531 265.589844 C 310.84375 265.589844 309.746094 266.6875 309.746094 267.988281 C 309.746094 269.292969 310.84375 270.390625 312.144531 270.390625 C 313.449219 270.390625 314.546875 269.292969 314.546875 267.988281 C 314.546875 266.6875 313.449219 265.589844 312.144531 265.589844 Z M 312.144531 265.589844 " fill-opacity="1" fill-rule="nonzero"/><path fill="#ffffff" d="M 109.582031 142.183594 C 106.359375 142.183594 103.75 139.578125 103.75 136.355469 C 103.75 133.128906 106.359375 130.523438 109.582031 130.523438 C 112.804688 130.523438 115.414062 133.128906 115.414062 136.355469 C 115.414062 139.578125 112.804688 142.183594 109.582031 142.183594 Z M 109.582031 133.953125 C 108.277344 133.953125 107.179688 135.050781 107.179688 136.355469 C 107.179688 137.65625 108.277344 138.753906 109.582031 138.753906 C 110.886719 138.753906 111.984375 137.65625 111.984375 136.355469 C 111.984375 135.050781 110.886719 133.953125 109.582031 133.953125 Z M 109.582031 133.953125 " fill-opacity="1" fill-rule="nonzero"/><path fill="#ffffff" d="M 91.816406 124.488281 C 88.59375 124.488281 85.984375 121.882812 85.984375 118.65625 C 85.984375 115.433594 88.59375 112.828125 91.816406 112.828125 C 95.039062 112.828125 97.648438 115.433594 97.648438 118.65625 C 97.648438 121.882812 95.039062 124.488281 91.816406 124.488281 Z M 91.816406 116.257812 C 90.511719 116.257812 89.414062 117.355469 89.414062 118.65625 C 89.414062 119.960938 90.511719 121.058594 91.816406 121.058594 C 93.121094 121.058594 94.214844 119.960938 94.214844 118.65625 C 94.214844 117.355469 93.121094 116.257812 91.816406 116.257812 Z M 91.816406 116.257812 " fill-opacity="1" fill-rule="nonzero"/><path fill="#ffffff" d="M 74.117188 106.722656 C 70.894531 106.722656 68.289062 104.113281 68.289062 100.890625 C 68.289062 97.667969 70.894531 95.058594 74.117188 95.058594 C 77.34375 95.058594 79.949219 97.667969 79.949219 100.890625 C 79.949219 104.113281 77.273438 106.722656 74.117188 106.722656 Z M 74.117188 98.488281 C 72.816406 98.488281 71.71875 99.585938 71.71875 100.890625 C 71.71875 102.195312 72.816406 103.292969 74.117188 103.292969 C 75.421875 103.292969 76.519531 102.195312 76.519531 100.890625 C 76.519531 99.585938 75.421875 98.488281 74.117188 98.488281 Z M 74.117188 98.488281 " fill-opacity="1" fill-rule="nonzero"/><path fill="#ffffff" d="M 127.28125 124.488281 C 124.054688 124.488281 121.449219 121.882812 121.449219 118.65625 C 121.449219 115.433594 124.054688 112.828125 127.28125 112.828125 C 130.503906 112.828125 133.109375 115.433594 133.109375 118.65625 C 133.109375 121.882812 130.503906 124.488281 127.28125 124.488281 Z M 127.28125 116.257812 C 125.976562 116.257812 124.878906 117.355469 124.878906 118.65625 C 124.878906 119.960938 125.976562 121.058594 127.28125 121.058594 C 128.582031 121.058594 129.679688 119.960938 129.679688 118.65625 C 129.679688 117.355469 128.652344 116.257812 127.28125 116.257812 Z M 127.28125 116.257812 " fill-opacity="1" fill-rule="nonzero"/><path fill="#ffffff" d="M 109.582031 106.722656 C 106.359375 106.722656 103.75 104.113281 103.75 100.890625 C 103.75 97.667969 106.359375 95.058594 109.582031 95.058594 C 112.804688 95.058594 115.414062 97.667969 115.414062 100.890625 C 115.414062 104.113281 112.804688 106.722656 109.582031 106.722656 Z M 109.582031 98.488281 C 108.277344 98.488281 107.179688 99.585938 107.179688 100.890625 C 107.179688 102.195312 108.277344 103.292969 109.582031 103.292969 C 110.886719 103.292969 111.984375 102.195312 111.984375 100.890625 C 111.984375 99.585938 110.886719 98.488281 109.582031 98.488281 Z M 109.582031 98.488281 " fill-opacity="1" fill-rule="nonzero"/><path fill="#ffffff" d="M 91.816406 89.023438 C 88.59375 89.023438 85.984375 86.417969 85.984375 83.191406 C 85.984375 79.96875 88.59375 77.363281 91.816406 77.363281 C 95.039062 77.363281 97.648438 79.96875 97.648438 83.191406 C 97.648438 86.417969 95.039062 89.023438 91.816406 89.023438 Z M 91.816406 80.792969 C 90.511719 80.792969 89.414062 81.890625 89.414062 83.191406 C 89.414062 84.496094 90.511719 85.59375 91.816406 85.59375 C 93.121094 85.59375 94.214844 84.496094 94.214844 83.191406 C 94.214844 81.820312 93.121094 80.792969 91.816406 80.792969 Z M 91.816406 80.792969 " fill-opacity="1" fill-rule="nonzero"/><path fill="#ffffff" d="M 145.046875 106.722656 C 141.820312 106.722656 139.214844 104.113281 139.214844 100.890625 C 139.214844 97.667969 141.820312 95.058594 145.046875 95.058594 C 148.269531 95.058594 150.875 97.667969 150.875 100.890625 C 150.875 104.113281 148.269531 106.722656 145.046875 106.722656 Z M 145.046875 98.488281 C 143.742188 98.488281 142.644531 99.585938 142.644531 100.890625 C 142.644531 102.195312 143.742188 103.292969 145.046875 103.292969 C 146.347656 103.292969 147.445312 102.195312 147.445312 100.890625 C 147.445312 99.585938 146.347656 98.488281 145.046875 98.488281 Z M 145.046875 98.488281 " fill-opacity="1" fill-rule="nonzero"/><path fill="#ffffff" d="M 127.28125 89.023438 C 124.054688 89.023438 121.449219 86.417969 121.449219 83.191406 C 121.449219 79.96875 124.054688 77.363281 127.28125 77.363281 C 130.503906 77.363281 133.109375 79.96875 133.109375 83.191406 C 133.109375 86.417969 130.503906 89.023438 127.28125 89.023438 Z M 127.28125 80.792969 C 125.976562 80.792969 124.878906 81.890625 124.878906 83.191406 C 124.878906 84.496094 125.976562 85.59375 127.28125 85.59375 C 128.582031 85.59375 129.679688 84.496094 129.679688 83.191406 C 129.679688 81.820312 128.652344 80.792969 127.28125 80.792969 Z M 127.28125 80.792969 " fill-opacity="1" fill-rule="nonzero"/><path fill="#ffffff" d="M 109.582031 71.257812 C 106.359375 71.257812 103.75 68.652344 103.75 65.425781 C 103.75 62.203125 106.359375 59.597656 109.582031 59.597656 C 112.804688 59.597656 115.414062 62.203125 115.414062 65.425781 C 115.414062 68.652344 112.804688 71.257812 109.582031 71.257812 Z M 109.582031 63.027344 C 108.277344 63.027344 107.179688 64.125 107.179688 65.425781 C 107.179688 66.730469 108.277344 67.828125 109.582031 67.828125 C 110.886719 67.828125 111.984375 66.730469 111.984375 65.425781 C 111.984375 64.125 110.886719 63.027344 109.582031 63.027344 Z M 109.582031 63.027344 " fill-opacity="1" fill-rule="nonzero"/></svg>