<svg xmlns="http://www.w3.org/2000/svg" xmlns:xlink="http://www.w3.org/1999/xlink" width="512" zoomAndPan="magnify" viewBox="0 0 384 383.999986" height="512" preserveAspectRatio="xMidYMid meet" version="1.0"><defs><clipPath id="a0ebb87df0"><path d="M 27.566406 26.671875 L 189 26.671875 L 189 357.421875 L 27.566406 357.421875 Z M 27.566406 26.671875 " clip-rule="nonzero"/></clipPath><clipPath id="c4266a4174"><path d="M 195 26.671875 L 356.066406 26.671875 L 356.066406 357.421875 L 195 357.421875 Z M 195 26.671875 " clip-rule="nonzero"/></clipPath></defs><g clip-path="url(#a0ebb87df0)"><path fill="#ffffff" d="M 185.761719 327.679688 C 180.65625 340.214844 172.160156 349.402344 159.355469 354.273438 C 137.394531 362.617188 110.828125 352.78125 97.929688 331.566406 C 95.75 327.984375 93.902344 324.238281 92.691406 320.21875 C 92.214844 318.636719 91.453125 317.914062 89.738281 317.546875 C 63.492188 311.914062 43.558594 290.785156 38.71875 263.816406 C 36.425781 251.027344 36.691406 238.382812 40.183594 225.863281 C 40.644531 224.203125 40.261719 223.222656 39.296875 221.953125 C 22.648438 200.03125 24.269531 169.734375 43.183594 149.484375 C 44.625 147.9375 45.46875 146.394531 45.785156 144.234375 C 46.695312 138 48.984375 132.195312 52.742188 127.136719 C 54.367188 124.949219 54.648438 122.992188 54.238281 120.367188 C 51.117188 100.46875 57.21875 84.007812 73.195312 71.523438 C 80.316406 65.957031 88.582031 62.960938 97.574219 62.328125 C 100.324219 62.136719 101.5625 61.367188 102.457031 58.609375 C 110.527344 33.742188 137.234375 20.625 161.140625 29.609375 C 176.53125 35.390625 187.414062 50.554688 188.035156 67.097656 C 188.128906 69.582031 188.160156 72.066406 188.21875 74.550781 C 188.21875 75.003906 188.21875 75.457031 188.21875 75.910156 C 188.222656 78.175781 188.226562 80.4375 188.226562 82.699219 C 188.1875 83.597656 188.105469 84.5 188.105469 85.398438 C 188.097656 147.085938 188.085938 208.773438 188.09375 270.457031 C 188.09375 279.152344 188.183594 287.847656 188.234375 296.542969 C 188.234375 297.675781 188.234375 298.808594 188.234375 299.941406 C 187.875 309.230469 188.863281 318.636719 185.761719 327.679688 Z M 173.679688 94.292969 C 173.679688 86.078125 173.714844 78.386719 173.675781 70.695312 C 173.601562 55.363281 164.183594 43.949219 149.671875 41.53125 C 136.367188 39.316406 121.292969 48.632812 116.707031 61.769531 C 116.027344 63.722656 116.316406 64.421875 118.304688 65.105469 C 124.367188 67.191406 129.753906 70.511719 134.253906 75.09375 C 137.0625 77.957031 137.054688 81.710938 134.570312 84.578125 C 132.136719 87.394531 128.230469 88.039062 125.066406 86.09375 C 124.207031 85.5625 123.457031 84.851562 122.644531 84.242188 C 111.675781 76.007812 99.75 74.117188 87.277344 79.996094 C 74.792969 85.875 68.417969 96.316406 68.027344 109.992188 C 67.664062 122.84375 73.050781 133.160156 83.433594 140.835938 C 87.113281 143.554688 87.957031 147.445312 85.796875 150.902344 C 83.636719 154.355469 79.300781 155.261719 75.332031 153.03125 C 72.855469 151.636719 70.707031 149.804688 68.667969 147.832031 C 66.324219 145.566406 64.28125 143.039062 62.113281 140.214844 C 61.699219 141.261719 61.347656 141.945312 61.152344 142.667969 C 58.121094 153.917969 60.417969 163.660156 69.292969 171.578125 C 72.441406 174.386719 72.890625 178.078125 70.617188 181.265625 C 68.339844 184.453125 64.199219 185.285156 60.6875 183.011719 C 59 181.921875 57.503906 180.476562 56.101562 179.019531 C 52.777344 175.570312 50.5 171.390625 48.445312 167.019531 C 48.019531 167.382812 47.796875 167.496094 47.6875 167.675781 C 34.070312 189.816406 46.789062 221.050781 71.953125 227.171875 C 74.378906 227.765625 76.476562 228.640625 77.71875 230.894531 C 79.152344 233.5 79.117188 236.140625 77.390625 238.574219 C 75.382812 241.394531 72.464844 242.058594 69.25 241.375 C 63.519531 240.15625 58.1875 237.863281 53.117188 234.78125 C 46.351562 264.058594 62.488281 296.109375 89.433594 302.351562 C 89.488281 294.273438 91.351562 286.65625 95.40625 279.675781 C 97.691406 275.734375 101.839844 274.613281 105.589844 276.660156 C 109.277344 278.667969 110.425781 282.867188 108.261719 286.886719 C 106.972656 289.285156 105.855469 291.726562 105.171875 294.371094 C 101.179688 309.863281 108.394531 327.585938 122.8125 336.621094 C 133.988281 343.625 145.933594 345.300781 157.917969 338.941406 C 169.636719 332.722656 173.910156 322.171875 173.792969 309.277344 C 173.613281 289.253906 173.707031 269.230469 173.6875 249.207031 C 173.6875 248.136719 173.6875 247.070312 173.6875 245.644531 C 165.179688 249.796875 156.589844 251.828125 147.6875 251.027344 C 142.226562 250.53125 138.964844 253.0625 135.988281 256.804688 C 133.457031 259.984375 132.183594 263.679688 131.714844 267.699219 C 131.152344 272.539062 127.988281 275.292969 123.621094 274.84375 C 119.414062 274.410156 116.734375 270.796875 117.269531 266.023438 C 118.015625 259.351562 120.53125 253.324219 124.722656 248.125 C 126.230469 246.257812 125.9375 245.703125 123.988281 244.714844 C 114.707031 239.992188 107.308594 233.144531 101.855469 224.277344 C 100.898438 222.71875 99.886719 222.535156 98.273438 222.742188 C 90.582031 223.742188 83.46875 221.96875 76.914062 217.910156 C 72.378906 215.097656 71.132812 210.679688 73.652344 206.734375 C 76 203.0625 80.722656 202.480469 84.984375 205.492188 C 87.269531 207.105469 89.738281 207.964844 92.476562 208.378906 C 94.78125 208.726562 95.386719 208.136719 94.914062 205.746094 C 93.679688 199.480469 93.546875 193.148438 94.96875 186.890625 C 95.933594 182.636719 99.535156 180.351562 103.566406 181.140625 C 107.453125 181.898438 110.046875 185.609375 109.160156 189.832031 C 105.90625 205.328125 114.214844 224.953125 132.902344 233.144531 C 146.199219 238.976562 159.308594 238.222656 171.59375 229.902344 C 172.808594 229.078125 173.757812 228.242188 173.738281 226.414062 C 173.582031 212.953125 173.542969 199.492188 173.554688 186.027344 C 173.554688 184.054688 173.105469 183.546875 171.046875 183.976562 C 152.449219 187.882812 135.855469 176.675781 132.523438 158.054688 C 129.589844 141.664062 115.34375 131.589844 99.125 134.4375 C 94.570312 135.238281 90.746094 132.820312 89.933594 128.625 C 89.117188 124.441406 91.792969 120.886719 96.445312 119.933594 C 104.457031 118.289062 112.214844 119.4375 119.742188 122.273438 C 121.484375 122.925781 122.1875 123.019531 122.808594 121.066406 C 123.625 118.484375 125.707031 117.078125 128.328125 116.640625 C 133.671875 115.746094 137.5 119.726562 136.597656 125.183594 C 136.105469 128.1875 134.996094 131.40625 137.007812 134.066406 C 142.371094 141.15625 145.320312 149.125 147.421875 157.714844 C 150.042969 168.414062 162.066406 173.339844 171.386719 168.214844 C 173.015625 167.316406 173.785156 166.320312 173.769531 164.269531 C 173.652344 147.75 173.691406 131.234375 173.6875 114.714844 C 173.6875 113.601562 173.742188 112.578125 172.875 111.574219 C 166.746094 104.492188 154.554688 103.492188 147.734375 109.589844 C 144.203125 112.75 139.4375 112.734375 136.582031 109.550781 C 133.734375 106.378906 134.078125 101.964844 137.550781 98.671875 C 140.804688 95.585938 144.679688 93.53125 148.957031 92.234375 C 157.335938 89.683594 165.453125 90.769531 173.679688 94.292969 Z M 173.679688 94.292969 " fill-opacity="1" fill-rule="evenodd"/></g><g clip-path="url(#c4266a4174)"><path fill="#ffffff" d="M 195.96875 76.585938 C 196.394531 70.742188 195.625 64.824219 197.242188 59.054688 C 201.773438 42.910156 211.96875 32.039062 228.226562 28.074219 C 245.039062 23.976562 259.742188 28.816406 271.695312 41.433594 C 276.660156 46.675781 280.214844 52.824219 282.304688 59.75 C 282.792969 61.367188 283.355469 62.082031 285.222656 62.207031 C 314.824219 64.210938 334.589844 89.40625 329.683594 118.882812 C 329.359375 120.824219 329.566406 122.289062 330.65625 123.910156 C 334.828125 130.105469 337.171875 137.019531 338.183594 144.386719 C 338.421875 146.121094 338.925781 147.511719 340.230469 148.835938 C 359.742188 168.671875 361.660156 199.273438 344.691406 221.273438 C 343.300781 223.078125 344.0625 224.453125 344.410156 225.957031 C 348.878906 245.179688 347.875 263.980469 339.277344 281.898438 C 330.179688 300.863281 315.378906 313.082031 294.570312 317.429688 C 292.507812 317.863281 292.1875 319.003906 291.601562 320.472656 C 283.785156 340.0625 270.019531 352.707031 248.953125 356.617188 C 241.972656 357.914062 235 357.191406 228.113281 355.609375 C 221.96875 353.363281 216.152344 350.570312 211.15625 346.199219 C 202.441406 338.578125 197.78125 328.898438 196.15625 317.589844 C 196.125 316.914062 196.09375 316.234375 196.0625 315.554688 C 196.035156 313.519531 196.007812 311.480469 195.980469 309.441406 C 195.980469 308.539062 195.980469 307.632812 195.980469 306.726562 C 196.03125 305.714844 196.121094 304.703125 196.121094 303.691406 C 196.136719 240.414062 196.148438 177.136719 196.136719 113.859375 C 196.136719 101.433594 196.027344 89.011719 195.96875 76.585938 Z M 315.753906 108.015625 C 315.753906 107.335938 315.835938 106.667969 315.742188 106.023438 C 313.878906 93.277344 307.367188 83.828125 295.253906 79.113281 C 282.925781 74.308594 271.289062 76.015625 261.003906 84.726562 C 257.027344 88.09375 252.8125 88.273438 249.851562 85.074219 C 246.828125 81.804688 247.300781 77.101562 251.101562 73.679688 C 254.226562 70.867188 257.886719 68.867188 261.519531 66.773438 C 263.679688 65.53125 267.628906 66.222656 267.820312 63.070312 C 267.972656 60.574219 266.066406 58.035156 264.570312 55.753906 C 264.011719 54.902344 263.449219 54.050781 262.792969 53.273438 C 254.605469 43.511719 244.347656 39.222656 231.738281 42.257812 C 220.339844 44.996094 211.761719 54.277344 210.816406 65.808594 C 210.050781 75.089844 210.660156 84.484375 210.660156 94.074219 C 211.863281 93.617188 212.882812 93.179688 213.933594 92.835938 C 225.886719 88.886719 236.910156 90.324219 246.609375 98.714844 C 250.195312 101.820312 250.535156 106.105469 247.757812 109.214844 C 244.910156 112.398438 240.203125 112.640625 236.8125 109.777344 C 229.769531 103.828125 220.230469 104.003906 212.96875 110.128906 C 211.300781 111.539062 210.519531 113.050781 210.523438 115.339844 C 210.582031 152.109375 210.566406 188.882812 210.492188 225.652344 C 210.488281 227.710938 211.179688 228.941406 212.839844 230.058594 C 224.101562 237.652344 236.273438 238.886719 248.757812 234.304688 C 263.183594 229.015625 272.125 218.558594 275.179688 203.332031 C 276.203125 198.222656 279.390625 195.808594 283.964844 196.703125 C 288.011719 197.492188 290.667969 201.511719 289.660156 205.648438 C 284.789062 225.628906 273.359375 240.136719 253.972656 247.792969 C 251.765625 248.664062 251.960938 249.300781 252.992188 250.992188 C 255.171875 254.582031 256.726562 258.484375 257.332031 262.664062 C 257.917969 266.726562 255.324219 270.257812 251.527344 270.882812 C 247.449219 271.554688 244.117188 269.363281 243.117188 265.332031 C 242.84375 264.238281 242.695312 263.109375 242.367188 262.035156 C 240.234375 255.050781 236.261719 251.777344 229.210938 251.113281 C 228.3125 251.03125 227.421875 250.859375 226.53125 250.722656 C 221.085938 249.886719 215.921875 248.046875 210.582031 245.882812 C 210.582031 269.042969 210.152344 291.777344 210.753906 314.488281 C 211.074219 326.5 217.585938 335.507812 228.917969 340.101562 C 242.105469 345.445312 254.417969 342.65625 265.117188 333.910156 C 277.722656 323.605469 282.144531 310.007812 279.605469 293.90625 C 277.636719 281.421875 284.996094 267.867188 296.210938 262.347656 C 300.640625 260.167969 304.746094 261.179688 306.78125 264.953125 C 308.871094 268.832031 307.355469 273.0625 302.964844 275.421875 C 296.074219 279.125 293.441406 285.042969 293.976562 292.59375 C 294.136719 294.84375 294.738281 297.078125 294.746094 299.324219 C 294.75 301.988281 295.503906 302.609375 298.101562 301.664062 C 303.25 299.78125 308.078125 297.347656 312.214844 293.765625 C 330.324219 278.066406 334.605469 257.765625 331.667969 235.046875 C 331.332031 232.429688 330.527344 232.339844 328.328125 233.320312 C 321.066406 236.550781 313.464844 237.984375 305.519531 236.78125 C 301.160156 236.121094 298.28125 232.355469 298.945312 228.398438 C 299.679688 224.007812 303.316406 221.460938 307.839844 222.105469 C 317.105469 223.421875 325.09375 220.507812 331.714844 214.1875 C 343.304688 203.136719 345.164062 179.535156 335.640625 166.355469 C 333.167969 172.1875 329.808594 177.367188 325.160156 181.601562 C 321.289062 185.132812 316.898438 185.148438 314.054688 181.855469 C 311.140625 178.488281 311.765625 173.800781 315.695312 170.570312 C 319.507812 167.433594 321.890625 163.449219 323.183594 158.75 C 326.703125 145.988281 321.058594 130.34375 309.898438 121.992188 C 307.882812 120.488281 305.890625 119.03125 305.382812 116.328125 C 304.25 110.320312 308.429688 106.910156 315.753906 108.015625 Z M 315.753906 108.015625 " fill-opacity="1" fill-rule="evenodd"/></g><path fill="#ffffff" d="M 237.15625 162.597656 C 237.21875 154.027344 239.136719 147.238281 242.707031 140.941406 C 243.496094 139.550781 243.648438 138.777344 242.335938 137.59375 C 240.082031 135.558594 238.179688 133.15625 235.855469 131.144531 C 232.738281 128.449219 232.59375 123.828125 235.28125 120.839844 C 237.859375 117.96875 242.683594 117.761719 245.652344 120.511719 C 247.554688 122.273438 249.347656 124.167969 251.113281 126.066406 C 252.734375 127.804688 254.011719 127.894531 256.183594 126.445312 C 265.691406 120.097656 276.15625 117.71875 287.496094 119.992188 C 292.503906 120.996094 294.992188 124.433594 294.078125 128.886719 C 293.207031 133.15625 289.734375 135.195312 284.777344 134.351562 C 264.277344 130.871094 247.578125 148.269531 252.554688 167.953125 C 253.8125 172.910156 256.398438 177.070312 260.320312 180.390625 C 264.308594 183.769531 264.992188 187.804688 262.199219 191.292969 C 259.355469 194.847656 254.890625 195.039062 250.855469 191.515625 C 241.726562 183.542969 237.429688 173.316406 237.15625 162.597656 Z M 237.15625 162.597656 " fill-opacity="1" fill-rule="evenodd"/></svg>