<svg xmlns="http://www.w3.org/2000/svg" xmlns:xlink="http://www.w3.org/1999/xlink" width="512" zoomAndPan="magnify" viewBox="0 0 384 383.999986" height="512" preserveAspectRatio="xMidYMid meet" version="1.0"><defs><clipPath id="1b33f25d50"><path d="M 81.917969 6.601562 L 302.417969 6.601562 L 302.417969 377.101562 L 81.917969 377.101562 Z M 81.917969 6.601562 " clip-rule="nonzero"/></clipPath></defs><g clip-path="url(#1b33f25d50)"><path fill="#ffffff" d="M 266.855469 91.148438 L 255.4375 91.148438 L 255.4375 73.128906 L 261.074219 73.128906 C 271.527344 73.128906 279.980469 64.675781 279.980469 54.21875 L 279.980469 25.523438 C 279.980469 15.066406 271.527344 6.613281 261.074219 6.613281 L 122.851562 6.613281 C 112.394531 6.613281 103.941406 15.066406 103.941406 25.523438 L 103.941406 54.21875 C 103.941406 64.675781 112.394531 73.128906 122.851562 73.128906 L 125 73.128906 L 125 91.148438 L 117.066406 91.148438 C 97.714844 91.148438 81.917969 106.941406 81.917969 126.296875 L 81.917969 342.230469 C 81.917969 361.585938 97.714844 377.378906 117.066406 377.378906 L 266.929688 377.378906 C 286.285156 377.378906 302.078125 361.585938 302.078125 342.230469 L 302.078125 126.296875 C 302.078125 106.941406 286.285156 91.148438 266.929688 91.148438 Z M 97.863281 337.113281 L 97.863281 317.09375 L 285.988281 317.09375 L 285.988281 337.113281 Z M 285.988281 301.074219 L 97.863281 301.074219 L 97.863281 168.488281 L 285.988281 168.488281 Z M 170.902344 22.632812 L 164.894531 57.039062 L 147.617188 57.039062 L 153.625 22.632812 Z M 187.140625 22.632812 L 204.195312 22.632812 L 198.191406 57.039062 L 181.136719 57.039062 Z M 220.511719 22.632812 L 236.527344 22.632812 L 230.519531 57.039062 L 214.503906 57.039062 Z M 263.964844 25.523438 L 263.964844 54.21875 C 263.964844 55.777344 262.703125 57.113281 261.074219 57.113281 L 246.835938 57.113281 L 252.839844 22.707031 L 261.074219 22.707031 C 262.628906 22.707031 263.964844 23.964844 263.964844 25.597656 Z M 119.960938 54.21875 L 119.960938 25.523438 C 119.960938 23.964844 121.21875 22.632812 122.851562 22.632812 L 137.3125 22.632812 L 131.304688 57.039062 L 122.851562 57.039062 C 121.292969 57.039062 119.960938 55.777344 119.960938 54.144531 Z M 141.019531 73.128906 L 239.417969 73.128906 L 239.417969 91.148438 L 141.019531 91.148438 Z M 116.992188 107.164062 L 266.855469 107.164062 C 277.386719 107.164062 285.988281 115.765625 285.988281 126.296875 L 285.988281 152.472656 L 97.863281 152.472656 L 97.863281 126.296875 C 97.863281 115.765625 106.464844 107.164062 116.992188 107.164062 Z M 266.855469 361.363281 L 116.992188 361.363281 C 110.542969 361.363281 104.832031 358.097656 101.347656 353.203125 L 282.503906 353.203125 C 279.015625 358.097656 273.308594 361.363281 266.855469 361.363281 Z M 266.855469 361.363281 " fill-opacity="1" fill-rule="nonzero"/></g><path fill="#ffffff" d="M 137.757812 257.621094 L 168.160156 257.621094 L 168.160156 288.023438 C 168.160156 292.472656 171.71875 296.03125 176.167969 296.03125 L 206.867188 296.03125 C 211.316406 296.03125 214.875 292.472656 214.875 288.023438 L 214.875 257.621094 L 245.277344 257.621094 C 249.726562 257.621094 253.285156 254.0625 253.285156 249.613281 L 253.285156 218.914062 C 253.285156 214.464844 249.726562 210.90625 245.277344 210.90625 L 214.875 210.90625 L 214.875 180.503906 C 214.875 176.054688 211.316406 172.496094 206.867188 172.496094 L 176.167969 172.496094 C 171.71875 172.496094 168.160156 176.054688 168.160156 180.503906 L 168.160156 210.90625 L 137.757812 210.90625 C 133.308594 210.90625 129.746094 214.464844 129.746094 218.914062 L 129.746094 249.613281 C 129.746094 254.0625 133.308594 257.621094 137.757812 257.621094 Z M 145.765625 226.921875 L 176.167969 226.921875 C 180.617188 226.921875 184.175781 223.363281 184.175781 218.914062 L 184.175781 188.511719 L 198.859375 188.511719 L 198.859375 218.914062 C 198.859375 223.363281 202.417969 226.921875 206.867188 226.921875 L 237.269531 226.921875 L 237.269531 241.605469 L 206.867188 241.605469 C 202.417969 241.605469 198.859375 245.164062 198.859375 249.613281 L 198.859375 280.015625 L 184.175781 280.015625 L 184.175781 249.613281 C 184.175781 245.164062 180.617188 241.605469 176.167969 241.605469 L 145.765625 241.605469 Z M 145.765625 226.921875 " fill-opacity="1" fill-rule="nonzero"/><path fill="#ffffff" d="M 112.988281 288.171875 C 117.4375 288.171875 120.996094 284.613281 120.996094 280.164062 L 120.996094 193.109375 C 120.996094 188.660156 117.4375 185.101562 112.988281 185.101562 C 108.539062 185.101562 104.980469 188.660156 104.980469 193.109375 L 104.980469 280.164062 C 104.980469 284.613281 108.539062 288.171875 112.988281 288.171875 Z M 112.988281 288.171875 " fill-opacity="1" fill-rule="nonzero"/></svg>