<svg width="100" height="100" viewBox="0 0 100 100" fill="none" xmlns="http://www.w3.org/2000/svg">
<rect width="100" height="100" rx="50" fill="#FFD4EF" fill-opacity="0.2"/>
<mask id="mask0_529_362" style="mask-type:luminance" maskUnits="userSpaceOnUse" x="19" y="18" width="65" height="72">
<path d="M19.5 18H83.5V89.083H19.5V18Z" fill="white"/>
</mask>
<g mask="url(#mask0_529_362)">
<path d="M34.0403 89.1343C35.7965 89.1343 37.3484 88.3169 38.3864 87.0618C39.4201 88.3169 40.9651 89.1343 42.7136 89.1343H42.8829C44.7511 89.1343 46.3954 88.2109 47.4205 86.8078C48.597 88.2203 50.3447 89.1377 52.3206 89.1377C54.4214 89.1377 56.2734 88.1074 57.4422 86.5402C58.2989 87.7107 59.5122 88.5828 60.923 88.9368C61.4557 89.0702 61.9926 89.1352 62.5228 89.1352C64.2089 89.1352 65.83 88.476 67.0603 87.2456C68.2617 86.0426 68.9234 84.4377 68.9234 82.7268V53.9545L73.7757 63.901C74.4058 65.2228 75.5746 66.2061 76.9829 66.5977C78.4107 66.9978 79.9438 66.7542 81.1947 65.9316C82.6089 64.9885 83.4528 63.4016 83.4528 61.6873C83.4528 60.9007 83.2963 60.1722 82.9894 59.5301L74.4033 41.2104C72.7933 37.7732 69.2988 35.5519 65.5016 35.5519H45.318C46.5912 33.7136 47.3042 31.5316 47.3042 29.2435C47.3042 23.1301 42.3306 18.1565 36.2172 18.1565C30.1038 18.1565 25.1165 23.1301 25.1165 29.2435C25.1165 31.5341 25.8304 33.7153 27.1078 35.5519H25.2199C22.1153 35.5519 19.5879 38.0776 19.5879 41.1831V68.7361C19.5879 71.8398 22.1136 74.3673 25.2199 74.3673C26.3417 74.3673 27.3823 74.0304 28.2629 73.4678V83.5083C28.2629 86.612 30.7887 89.1395 33.8941 89.1395H34.0403V89.1343ZM51.5332 38.1597H65.5016C68.289 38.1597 70.8549 39.7911 72.0383 42.3151L80.627 60.6425C80.7655 60.9349 80.8399 61.2957 80.8399 61.6847C80.8399 62.5372 80.4397 63.2922 79.7514 63.7522C79.1392 64.1557 78.3859 64.2755 77.684 64.0797C76.9931 63.8881 76.4425 63.4239 76.1287 62.7638L68.7918 47.7231C68.525 47.1776 67.9179 46.8852 67.3237 47.0237C66.7312 47.1596 66.3113 47.6872 66.3113 48.2951V82.7242C66.3113 83.7374 65.9215 84.6874 65.2118 85.3962C64.2507 86.3572 62.8844 86.7326 61.5574 86.4008C59.9457 85.9972 58.7743 84.3958 58.7273 82.5712V70.1631C58.7273 69.4423 58.1425 68.8575 57.4217 68.8575C57.42 68.8575 57.4191 68.8575 57.4174 68.8575C57.4166 68.8575 57.4149 68.8575 57.414 68.8575C56.6932 68.8575 56.1075 69.4423 56.1075 70.1631V82.4592C56.1075 82.4959 56.1152 82.531 56.1169 82.5678V82.7294C56.1169 84.8216 54.4137 86.5248 52.3215 86.5248C50.2293 86.5248 48.5278 84.8216 48.5278 82.7294V48.3071C48.5278 48.2318 48.4961 48.1652 48.485 48.0916C48.4731 48.0172 48.4654 47.9428 48.4406 47.8727C48.4166 47.8043 48.3824 47.747 48.3491 47.6846C48.3055 47.6043 48.2576 47.5316 48.2003 47.4623C48.1764 47.435 48.1618 47.4008 48.137 47.376C48.1216 47.3606 48.0994 47.3529 48.084 47.3366C47.996 47.2571 47.8968 47.1921 47.7873 47.1374C47.7574 47.1212 47.7326 47.1007 47.7001 47.0878C47.6916 47.0853 47.6864 47.0784 47.6787 47.0759C47.5377 47.022 47.3915 46.9998 47.2452 46.9963C47.2333 46.9963 47.223 46.9895 47.2102 46.9895C47.1786 46.9895 47.1529 47.0049 47.1213 47.0075C47.005 47.016 46.8938 47.0382 46.7844 47.0759C46.7348 47.093 46.6878 47.1109 46.6407 47.1349C46.5424 47.1827 46.4526 47.2451 46.368 47.3187C46.3346 47.346 46.2996 47.3666 46.2697 47.3982C46.2603 47.4076 46.2491 47.4127 46.2397 47.423L43.2036 50.7952C42.0279 52.1008 40.1221 52.4411 38.5668 51.6271L28.5699 46.3901C27.6866 45.9276 27.1788 44.9537 27.3053 43.9661C27.4088 43.1658 27.8799 42.4972 28.6007 42.1338C29.3214 41.7705 30.138 41.7867 30.8434 42.1783L39.1414 46.7894C39.6262 47.0588 40.2272 46.9938 40.6411 46.6261L50.207 38.1597H51.5357H51.5332ZM27.7285 29.2393C27.7285 24.5666 31.5368 20.7652 36.2172 20.7652C40.8984 20.7652 44.6922 24.5666 44.6922 29.2393C44.6922 31.6581 43.6601 33.9282 41.8646 35.5476H30.5706C28.7657 33.9325 27.7285 31.6624 27.7285 29.2393ZM30.8742 83.5023V53.8365C30.8742 53.1157 30.2893 52.5309 29.5685 52.5309C28.8478 52.5309 28.2629 53.1157 28.2629 53.8365V68.7301C28.2629 70.394 26.8975 71.75 25.2199 71.75C23.556 71.75 22.2 70.3957 22.2 68.7301V41.1779C22.2 39.5141 23.5543 38.158 25.2199 38.158H30.0593C30.0593 38.158 30.0679 38.1597 30.0713 38.1597C30.0739 38.1597 30.0764 38.158 30.0807 38.158H46.2645L39.5996 44.0576L32.1097 39.8937C30.6587 39.0865 28.9051 39.0515 27.4199 39.8022C25.9364 40.552 24.9241 41.9851 24.7129 43.6344C24.4478 45.7001 25.5098 47.7376 27.3549 48.7047L37.3527 53.9417C39.9647 55.3114 43.1676 54.7343 45.141 52.5429L45.9011 51.699V83.5023C45.9011 85.1662 44.5468 86.5222 42.8821 86.5222H42.7119C41.0481 86.5222 39.6937 85.1679 39.6937 83.5023V72.9342C39.6937 72.2135 39.1089 71.6286 38.3881 71.6286C37.6673 71.6286 37.0816 72.2135 37.0816 72.9342V83.5023C37.0816 85.1662 35.717 86.5222 34.0386 86.5222H33.8924C32.2285 86.5222 30.8733 85.1679 30.8733 83.5023H30.8742Z" fill="#BB3E8E"/>
</g>
<path d="M57.2681 12.7084C51.447 12.7084 46.7107 17.4439 46.7107 23.2658C46.7107 29.087 51.447 33.8225 57.2681 33.8225C63.0893 33.8225 67.8256 29.087 67.8256 23.2658C67.8256 17.4439 63.0893 12.7084 57.2681 12.7084ZM57.2681 31.3363C52.8167 31.3363 49.1969 27.7157 49.1969 23.2658C49.1969 18.8151 52.8183 15.1945 57.2681 15.1945C61.718 15.1945 65.3394 18.8151 65.3394 23.2658C65.3394 27.7157 61.718 31.3363 57.2681 31.3363Z" fill="#BB3E8E"/>
</svg>
