<svg width="100" height="100" viewBox="0 0 100 100" fill="none" xmlns="http://www.w3.org/2000/svg">
<rect width="100" height="100" rx="50" fill="#FFD4EF" fill-opacity="0.2"/>
<path d="M27.1497 22.5396C30.3137 22.5396 32.8821 25.1772 32.8821 28.4365C32.8821 31.6908 30.3147 34.3294 27.1497 34.3294C23.9857 34.3294 21.4183 31.6908 21.4183 28.4365C21.4183 25.1772 23.9857 22.5396 27.1497 22.5396ZM29.7259 25.782C27.4374 23.4274 23.506 25.1037 23.506 28.4365C23.506 31.7652 27.4374 33.4435 29.7259 31.087C31.1496 29.6232 31.1496 27.2458 29.7259 25.782ZM27.1497 16.7828C33.4053 16.7828 38.4785 22.0014 38.4785 28.4365C38.4785 34.8676 33.4063 40.0872 27.1497 40.0872C25.6083 40.0872 24.1392 39.7704 22.7947 39.1964C19.121 45.0327 17.6221 52.0597 18.5844 58.9595C18.762 60.2287 18.9985 61.4412 19.2813 62.6001C20.3198 61.5276 21.6943 60.8315 23.1885 60.6795C20.2648 56.0826 23.4713 49.9116 28.8562 49.9116C34.245 49.9116 37.4515 56.0826 34.524 60.6795C35.2373 60.753 35.9168 60.9496 36.5432 61.2406C35.8705 56.9992 39.0479 53.1451 43.2235 53.1451C47.4 53.1451 50.5765 56.9992 49.9018 61.2406C50.5311 60.9447 51.2116 60.755 51.921 60.6795C48.9974 56.0826 52.2039 49.9116 57.5888 49.9116C62.9776 49.9116 66.1841 56.0826 63.2565 60.6845C65.0644 60.8622 66.6869 61.8404 67.7506 63.3042C68.3973 61.2962 68.8355 59.1403 69.0305 56.8334C68.6203 56.734 68.3075 56.3815 68.2448 55.9475L66.9861 50.5542C60.6341 48.3257 56.3475 42.0634 56.5116 35.098C56.5367 34.1407 57.0821 33.3075 57.9015 32.9251L56.6728 21.2009C56.5753 20.2704 56.9556 19.4243 57.6554 18.8543L60.7431 16.2684C60.8396 15.2822 61.2701 14.3994 61.9168 13.734C64.4891 11.0925 68.8992 12.9733 68.8992 16.7113C68.8992 19.614 66.1068 21.6349 63.4641 20.6875L61.8415 22.047L63.0239 33.2976C63.9197 33.663 64.5152 34.5409 64.5229 35.5528C64.5615 39.6979 67.8587 43.118 71.9223 43.1578C76.0148 43.2005 79.3554 39.8677 79.4731 35.7018C79.5031 34.6928 80.1112 33.8279 81.0069 33.4803L82.169 22.047L80.5436 20.6875C77.8998 21.6349 75.1123 19.614 75.1123 16.7113C75.1123 12.9733 79.5214 11.0925 82.0947 13.734C82.7365 14.3994 83.167 15.2812 83.2684 16.2684L86.3561 18.8543C87.0578 19.4233 87.4371 20.2704 87.3387 21.2009L86.1235 33.2032C86.9545 33.5985 87.4999 34.4505 87.4999 35.4237C87.525 42.2809 83.2471 48.3605 77.0254 50.5542L75.7407 56.0379C75.6393 56.4897 75.2687 56.8075 74.8459 56.8552C74.0139 68.5099 67.9185 78.0344 58.3146 83.3613C45.0526 90.718 27.6507 88.42 18.5574 75.2399C15.7418 71.1604 13.7149 66.0332 12.8452 59.7987C11.6541 51.3208 13.572 42.6642 18.1838 35.5548C14.6984 30.9172 15.1173 24.3341 19.1413 20.194C21.1905 18.0857 24.0244 16.7828 27.1497 16.7828ZM20.953 38.1884C20.4926 37.8796 20.0583 37.536 19.6481 37.1626C15.5005 43.7715 13.8124 51.6892 14.9059 59.4978C16.4175 70.3103 21.8439 78.9054 31.082 83.0107C39.4572 86.7298 49.3613 85.8956 57.3311 81.4764C66.2632 76.523 71.9358 67.6966 72.7601 56.8641H71.1163C70.3104 66.9895 64.9881 75.3194 56.5579 79.9948C55.9363 80.3384 54.5899 81.0256 53.947 81.2719C52.4857 81.9025 50.9732 82.4159 49.4327 82.8022C49.3729 82.823 49.315 82.8369 49.2513 82.8449C47.5563 83.257 45.8257 83.5222 44.0893 83.6225C35.245 84.1528 26.7434 80.5499 21.5225 72.9023C18.79 68.8992 17.2147 64.2069 16.5217 59.2574C15.4928 51.9067 17.0671 44.4319 20.953 38.1884ZM33.6833 21.7144C30.0763 17.9983 24.227 17.9983 20.6162 21.7144C17.0092 25.4265 17.0092 31.4445 20.6162 35.1556C24.228 38.8717 30.0782 38.8717 33.6833 35.1556C37.2913 31.4445 37.2913 25.4265 33.6833 21.7144ZM20.0206 65.1344C20.5573 66.7383 21.204 68.2159 21.9472 69.5705C21.9887 69.0233 22.4375 68.5933 22.9858 68.5933C23.5591 68.5933 24.0244 69.071 24.0244 69.6658V72.7732C26.1999 75.5895 28.861 77.6968 31.7866 79.1348V70.4613C31.7866 67.3281 33.9535 64.6518 36.8762 64.0262C36.0867 63.2516 35.0394 62.7967 33.9072 62.7967H32.4198C31.3861 63.4571 30.1641 63.8395 28.8562 63.8395C27.5513 63.8395 26.3303 63.4571 25.2955 62.7967H23.8081C22.203 62.7967 20.7638 63.7134 20.0206 65.1344ZM33.8725 80.0305C34.6717 80.3265 35.4824 80.5777 36.3058 80.7862V72.9032C36.3058 72.3084 36.7758 71.8307 37.3492 71.8307C37.9225 71.8307 38.3916 72.3084 38.3916 72.9032V81.2172C41.5894 81.7287 44.8836 81.6125 48.0563 80.9302V72.9032C48.0563 72.3084 48.5206 71.8307 49.0988 71.8307C49.6721 71.8307 50.1421 72.3084 50.1421 72.9032V80.391C50.9655 80.1467 51.7763 79.8607 52.5755 79.538V70.4603C52.5755 68.0273 50.6363 66.0312 48.2706 66.0312H46.7832C45.7494 66.6916 44.5275 67.0739 43.2225 67.0739C41.9127 67.0739 40.6927 66.6916 39.658 66.0312H38.1764C35.8116 66.0312 33.8715 68.0253 33.8715 70.4603V80.0305H33.8725ZM54.6623 78.5876C54.9663 78.4356 55.2703 78.2748 55.5696 78.1099C58.1042 76.7027 60.4362 74.8765 62.4207 72.652V69.6678C62.4207 69.073 62.8898 68.5943 63.4641 68.5943C64.0422 68.5943 64.5065 69.073 64.5065 69.6678V69.9806C64.7555 69.6152 64.9968 69.2418 65.2246 68.8595C65.7912 67.9289 66.3018 66.9528 66.7535 65.9269C66.4958 65.0669 65.9891 64.3142 65.3221 63.767C64.5876 63.1632 63.6533 62.7987 62.6398 62.7987H61.1524C60.1186 63.4591 58.8967 63.8405 57.5888 63.8405C56.2838 63.8405 55.0628 63.4591 54.0281 62.7987H52.5407C51.4085 62.7987 50.3613 63.2556 49.5717 64.0282C52.4944 64.6528 54.6613 67.3301 54.6613 70.4633V78.5876H54.6623ZM79.201 14.6536C77.4192 14.6536 76.5234 16.8751 77.7821 18.1731C79.0456 19.469 81.2076 18.5475 81.2076 16.7142C81.2067 15.5732 80.3061 14.6536 79.201 14.6536ZM82.8244 18.6686C82.6844 18.9387 82.5203 19.19 82.3302 19.4243L83.918 20.7531C84.2008 20.9924 84.332 21.3479 84.2983 21.6915L83.1332 33.1764L84.0406 33.0771L85.2693 20.9745C85.2857 20.8087 85.2191 20.6528 85.0917 20.5574C84.332 19.9457 83.5772 19.3062 82.8244 18.6686ZM82.0899 35.4376C81.8987 35.4595 81.5628 35.4376 81.5532 35.7643C81.4017 41.1011 77.1315 45.3505 71.9078 45.2978C66.6956 45.2462 62.4969 40.8826 62.4458 35.5727C62.4458 35.4207 62.3309 35.2906 62.1842 35.2688L58.8986 34.8428C58.7335 34.8428 58.5946 34.9729 58.5897 35.1467C58.4469 41.3613 62.3994 46.9275 68.156 48.6922V48.6961C68.4986 48.8004 68.7814 49.0874 68.8693 49.4707L70.0941 54.7191H73.9125L75.121 49.5531C75.1857 49.1579 75.4598 48.8143 75.8555 48.6931C78.6643 47.8292 81.0793 46.0387 82.7829 43.6841C84.4517 41.3673 85.4353 38.4993 85.4227 35.4267C85.4141 35.245 85.2712 35.1139 85.1235 35.1238L82.0899 35.4376ZM61.6813 19.4243C61.4912 19.19 61.3271 18.9387 61.1871 18.6686C60.4342 19.3081 59.6795 19.9507 58.915 20.5584C58.7886 20.6538 58.721 20.8107 58.7422 20.9755L59.9835 32.8298L60.8947 32.948L59.7123 21.6975C59.6775 21.3499 59.8088 20.9944 60.0916 20.7551L61.6813 19.4243ZM66.2265 15.2534C64.9669 13.9575 62.8048 14.879 62.8048 16.7123C62.8048 18.5465 64.9669 19.467 66.2265 18.1721C67.0064 17.3637 67.0064 16.0608 66.2265 15.2534ZM46.5361 56.7033C44.708 54.8224 41.7428 54.8224 39.9128 56.7033C37.8395 58.8374 38.1638 62.3687 40.5595 64.0738C43.6559 66.2765 47.9086 64.0004 47.9086 60.1105C47.9086 58.7808 47.3836 57.5772 46.5361 56.7033ZM57.5888 52.0537C55.0039 52.0537 52.9085 54.2136 52.9085 56.8731C52.9085 60.758 57.1583 63.044 60.2576 60.8364C62.6475 59.1333 62.9737 55.595 60.8995 53.4658C60.0549 52.5979 58.8851 52.0537 57.5888 52.0537ZM32.1669 53.4668C30.3388 51.586 27.3737 51.586 25.5436 53.4668C23.4703 55.601 23.7995 59.1333 26.1903 60.8374C29.2915 63.045 33.5395 60.755 33.5395 56.8751C33.5395 55.5443 33.0163 54.3397 32.1669 53.4668ZM40.5209 33.8815H46.2436C46.8218 33.8815 47.287 34.3651 47.287 34.955V38.5698H50.8053C51.3805 38.5698 51.8477 39.0524 51.8477 39.6423V45.5352C51.8477 46.13 51.3786 46.6087 50.8053 46.6087H47.287V50.2235C47.287 50.8183 46.8218 51.296 46.2436 51.296H40.5209C39.9427 51.296 39.4784 50.8183 39.4784 50.2235V46.6087H35.9602C35.3849 46.6087 34.9178 46.13 34.9178 45.5352V39.6423C34.9178 39.0514 35.3869 38.5698 35.9602 38.5698H39.4784V34.955C39.4784 34.3631 39.9427 33.8815 40.5209 33.8815ZM45.2012 36.0285H41.5614V39.6423C41.5614 40.2371 41.0961 40.7158 40.5228 40.7158H37.0046V44.4607H40.5228C41.0981 44.4607 41.5614 44.9433 41.5614 45.5342V49.1529H45.2012V45.5342C45.2012 44.9433 45.6703 44.4607 46.2436 44.4607H49.7619V40.7158H46.2436C45.6703 40.7158 45.2012 40.2371 45.2012 39.6423V36.0285Z" fill="#BB3E8E"/>
</svg>
