<svg width="145" height="132" viewBox="0 0 145 132" fill="none" xmlns="http://www.w3.org/2000/svg">
<mask id="mask0_530_427" style="mask-type:luminance" maskUnits="userSpaceOnUse" x="0" y="15" width="145" height="115">
<path d="M0.91626 15.3016H144.855V129.369H0.91626V15.3016Z" fill="white"/>
</mask>
<g mask="url(#mask0_530_427)">
<path fill-rule="evenodd" clip-rule="evenodd" d="M106.109 49.2344C106.566 48.4293 107.601 48.1353 108.424 48.5846L114.697 52.0128C115.519 52.4621 115.815 53.4827 115.358 54.2893C115.045 54.8396 114.467 55.1516 113.867 55.1516C113.587 55.1516 113.303 55.0823 113.042 54.9391L106.77 51.5108C105.948 51.0616 105.652 50.0439 106.109 49.2344ZM106.109 31.5368C105.652 30.7272 105.948 29.7096 106.77 29.2604L113.042 25.8321C113.866 25.3829 114.901 25.6753 115.358 26.4819C115.815 27.2915 115.519 28.3091 114.697 28.7583L108.424 32.1866C108.163 32.3283 107.88 32.3977 107.598 32.3977C107 32.3977 106.422 32.0856 106.109 31.5368ZM111.511 38.7129H119.171C120.112 38.7129 120.873 39.4607 120.873 40.3879C120.873 41.3135 120.112 42.0613 119.171 42.0613H111.511C110.572 42.0613 109.809 41.3105 109.809 40.3879C109.809 39.4637 110.572 38.7129 111.511 38.7129ZM35.3363 49.2344C35.7932 50.0439 35.4988 51.0616 34.6755 51.5108L28.4044 54.9391C28.1422 55.0823 27.8586 55.1516 27.578 55.1516C26.98 55.1516 26.4004 54.8411 26.0892 54.2893C25.6323 53.4827 25.9266 52.4621 26.75 52.0128L33.0226 48.5846C33.8444 48.1383 34.8809 48.4293 35.3363 49.2344ZM26.0922 26.4819C26.5476 25.6753 27.5841 25.3829 28.4059 25.8321L34.6785 29.2604C35.5019 29.7096 35.7963 30.7272 35.3394 31.5368C35.0281 32.0856 34.4486 32.3977 33.8506 32.3977C33.57 32.3977 33.2863 32.3283 33.0257 32.1866L26.7531 28.7583C25.9297 28.3091 25.6353 27.2915 26.0922 26.4819ZM20.5771 40.3879C20.5771 39.4607 21.3391 38.7129 22.279 38.7129H29.9377C30.8776 38.7129 31.6411 39.4607 31.6411 40.3879C31.6411 41.3135 30.8776 42.0613 29.9377 42.0613H22.279C21.3391 42.0613 20.5771 41.3105 20.5771 40.3879ZM44.4685 28.3151H49.6371C49.4056 29.0282 49.286 29.779 49.286 30.5433V30.6473C49.286 34.6907 52.6331 37.9833 56.7469 37.9833C60.8606 37.9833 64.2078 34.6907 64.2078 30.6473V30.5433C64.2078 29.779 64.0866 29.0282 63.8566 28.3151H69.0253V36.2917C69.0253 36.9611 69.4316 37.5672 70.0572 37.8295C70.6843 38.0948 71.408 37.9667 71.9017 37.5023C72.6622 36.7892 73.6558 36.3988 74.6938 36.3988H74.798C77.0336 36.3988 78.8551 38.1868 78.8551 40.3879C78.8551 42.5874 77.0366 44.3739 74.798 44.3739H74.6938C73.6527 44.3739 72.6622 43.9819 71.8986 43.2688C71.4049 42.809 70.6812 42.6779 70.0556 42.9417C69.4285 43.207 69.0222 43.8131 69.0222 44.4825V52.4561H60.9112C60.2305 52.4561 59.6156 52.8556 59.3458 53.4722C59.079 54.0858 59.2093 54.8004 59.677 55.2858C60.4037 56.0321 60.8008 57.009 60.8008 58.0296V58.1367C60.8008 60.3347 58.9793 62.1242 56.7438 62.1242C54.5083 62.1242 52.6868 60.3347 52.6868 58.1367V58.0296C52.6868 57.009 53.087 56.0321 53.8107 55.2858C54.2814 54.8004 54.4117 54.0858 54.1434 53.4722C53.8735 52.8556 53.2572 52.4561 52.5764 52.4561H44.4669V28.3151H44.4685ZM72.4261 28.3151V33.3972C73.1529 33.168 73.9134 33.0504 74.6938 33.0504H74.798C78.9118 33.0504 82.2589 36.34 82.2589 40.3879C82.2589 44.4342 78.9118 47.7207 74.798 47.7207H74.6938C73.9164 47.7207 73.1529 47.6032 72.4261 47.374V52.4561H96.9798V28.3151H88.8689C88.1881 28.3151 87.5732 27.9156 87.3034 27.299C87.0366 26.6854 87.1669 25.9723 87.6346 25.4869C88.3613 24.7391 88.7585 23.7652 88.7585 22.7416V22.636C88.7585 20.438 86.94 18.65 84.7014 18.65C82.4629 18.65 80.6444 20.438 80.6444 22.636V22.7416C80.6444 23.7652 81.0446 24.7391 81.7683 25.4869C82.239 25.9723 82.3693 26.6854 82.101 27.299C81.8312 27.9156 81.2148 28.3151 80.534 28.3151H72.4215H72.4261ZM42.7665 55.8044H49.6356C49.4025 56.516 49.2829 57.2653 49.2829 58.0296V58.1367C49.2829 62.18 52.6301 65.4726 56.7438 65.4726C60.8576 65.4726 64.2047 62.18 64.2047 58.1367V58.0296C64.2047 57.2653 64.0866 56.516 63.8536 55.8044H98.6787C99.6186 55.8044 100.382 55.0536 100.382 54.131V26.6417C100.382 25.7175 99.6186 24.9668 98.6787 24.9668H91.8081C92.0412 24.2567 92.1608 23.5059 92.1608 22.7416V22.636C92.1608 18.5912 88.8121 15.3016 84.6984 15.3016C80.5861 15.3016 77.2375 18.5912 77.2375 22.636V22.7416C77.2375 23.5059 77.3571 24.2567 77.5901 24.9668H60.9066C60.2259 24.9668 59.6095 25.3663 59.3427 25.9829C59.0728 26.5995 59.2032 27.3111 59.6754 27.7965C60.4007 28.5428 60.7978 29.5197 60.7978 30.5433V30.6473C60.7978 32.8469 58.9763 34.6349 56.7407 34.6349C54.5052 34.6349 52.6853 32.8469 52.6853 30.6473V30.5433C52.6853 29.5197 53.0854 28.5428 53.8076 27.7965C54.2783 27.3111 54.4102 26.5995 54.1403 25.9829C53.8705 25.3663 53.2556 24.9668 52.5733 24.9668H42.7619C41.822 24.9668 41.0585 25.7175 41.0585 26.6417V54.131C41.0585 55.0536 41.819 55.8044 42.7619 55.8044H42.7665ZM21.7562 73.419C25.8653 73.419 29.2032 76.7056 29.2032 80.7414C29.2032 84.7772 25.8623 88.0652 21.7562 88.0652C17.6516 88.0652 14.3106 84.7802 14.3106 80.7414C14.3106 76.7026 17.6516 73.419 21.7562 73.419ZM21.7562 91.4136C27.7405 91.4136 32.6086 86.627 32.6086 80.7414C32.6086 74.8558 27.7405 70.0722 21.7562 70.0722C15.7733 70.0722 10.9052 74.8588 10.9052 80.7414C10.9052 86.624 15.7733 91.4136 21.7562 91.4136ZM127.139 80.7414C127.139 84.7802 123.8 88.0652 119.692 88.0652C115.585 88.0652 112.245 84.7802 112.245 80.7414C112.245 76.7026 115.588 73.419 119.692 73.419C123.797 73.419 127.139 76.7056 127.139 80.7414ZM108.838 80.7414C108.838 86.627 113.706 91.4136 119.689 91.4136C125.672 91.4136 130.54 86.627 130.54 80.7414C130.54 74.8558 125.672 70.0722 119.689 70.0722C113.706 70.0722 108.838 74.8588 108.838 80.7414ZM135.689 126.022V101.873C135.689 99.3178 133.576 97.2404 130.977 97.2404H111.922C111.468 97.2404 111.031 97.061 110.71 96.7414L99.6324 85.6983C99.5189 85.8626 99.3963 86.0209 99.2613 86.1717L97.4874 88.127L110.44 102.414C110.719 102.722 110.873 103.117 110.873 103.527V126.022H127.828V105.803C127.828 104.881 128.591 104.13 129.531 104.13C130.469 104.13 131.233 104.881 131.233 105.803V126.022H135.689ZM79.9728 102.414C79.6953 102.722 79.542 103.117 79.542 103.527V126.022H61.9048V103.527C61.9048 103.117 61.7515 102.722 61.4739 102.414L44.7276 83.9435C44.194 83.357 44.2369 82.4404 44.8211 81.9007C45.4053 81.3625 46.3391 81.3821 46.9002 81.9429L61.7453 96.7414C62.0658 97.061 62.5028 97.2404 62.9566 97.2404H78.4948C78.9486 97.2404 79.3856 97.061 79.706 96.7414L94.5511 81.9429C95.1139 81.3821 96.0461 81.3625 96.6318 81.9007C97.216 82.4404 97.2558 83.357 96.7253 83.9435L79.979 102.414H79.9728ZM31.0079 102.414L43.961 88.127L42.1885 86.1717C42.052 86.0209 41.9294 85.8626 41.8159 85.6983L30.738 96.7414C30.4176 97.061 29.9806 97.2404 29.5268 97.2404H10.4713C7.87241 97.2404 5.75957 99.3178 5.75957 101.873V126.022H10.2168V105.803C10.2168 104.881 10.9788 104.13 11.9187 104.13C12.8571 104.13 13.6206 104.881 13.6206 105.803V126.022H30.574V103.527C30.574 103.117 30.7273 102.722 31.0048 102.414H31.0079ZM130.977 93.8936H112.635L100.276 81.5751C100.039 80.7881 99.5987 80.0554 98.9547 79.4614C97.0335 77.6915 93.97 77.7503 92.1225 79.5911L77.7772 93.8936H63.6635L49.3167 79.5911C47.4675 77.7503 44.4071 77.6915 42.4859 79.4614C41.842 80.0554 41.405 80.7881 41.1643 81.5751L28.8061 93.8936H10.4713C5.99569 93.8936 2.35571 97.4711 2.35571 101.873V127.695C2.35571 128.621 3.11775 129.369 4.05764 129.369H32.279C33.2173 129.369 33.9809 128.621 33.9809 127.695V104.166L46.2425 90.6432L58.5025 104.166V127.695C58.5025 128.621 59.266 129.369 60.2059 129.369H81.247C82.1853 129.369 82.9489 128.621 82.9489 127.695V104.166L95.2104 90.6432L107.47 104.166V127.695C107.47 128.621 108.234 129.369 109.172 129.369H137.394C138.334 129.369 139.097 128.621 139.097 127.695V101.873C139.097 97.4711 135.454 93.8936 130.98 93.8936H130.977ZM78.1712 80.7414C78.1712 76.7056 74.8302 73.419 70.7242 73.419C66.6196 73.419 63.2771 76.7056 63.2771 80.7414C63.2771 84.7772 66.6196 88.0652 70.7242 88.0652C74.8302 88.0652 78.1712 84.7802 78.1712 80.7414ZM59.8732 80.7414C59.8732 86.627 64.7413 91.4136 70.7242 91.4136C76.707 91.4136 81.5751 86.627 81.5751 80.7414C81.5751 74.8558 76.707 70.0722 70.7242 70.0722C64.7413 70.0722 59.8732 74.8588 59.8732 80.7414Z" fill="#205F9D"/>
</g>
</svg>
