<svg width="100" height="100" viewBox="0 0 100 100" fill="none" xmlns="http://www.w3.org/2000/svg">
<rect width="100" height="100" rx="50" fill="#FFD4EF" fill-opacity="0.2"/>
<path d="M49.9373 28.7842C49.8145 28.7842 49.6924 28.7785 49.5703 28.7663C49.4482 28.7541 49.327 28.7362 49.2074 28.7126C49.0869 28.6882 48.9681 28.6589 48.8509 28.623C48.7329 28.5872 48.6182 28.5457 48.505 28.4993C48.3911 28.4521 48.2804 28.4001 48.1722 28.3423C48.0648 28.2845 47.959 28.221 47.8573 28.1535C47.7555 28.0851 47.6571 28.0119 47.5627 27.9346C47.4674 27.8564 47.3771 27.7743 47.29 27.6872C47.2038 27.6009 47.1208 27.5098 47.0435 27.4154C46.9653 27.3201 46.8929 27.2225 46.8245 27.12C46.7562 27.0182 46.6935 26.9132 46.6357 26.805C46.578 26.6968 46.5251 26.5861 46.4787 26.473C46.4315 26.3599 46.39 26.2443 46.355 26.1271C46.3192 26.0099 46.2891 25.8911 46.2655 25.7707C46.2419 25.6502 46.224 25.529 46.2118 25.4069C46.1995 25.2848 46.1938 25.1628 46.1938 25.0399C46.1938 24.9178 46.1995 24.7949 46.2118 24.6729C46.224 24.5516 46.2419 24.4303 46.2655 24.3099C46.2891 24.1895 46.3192 24.0706 46.355 23.9535C46.39 23.8363 46.4315 23.7207 46.4787 23.6076C46.5251 23.4945 46.578 23.3838 46.6357 23.2756C46.6935 23.1673 46.7562 23.0623 46.8245 22.9598C46.8929 22.8581 46.9653 22.7596 47.0435 22.6652C47.1208 22.57 47.2038 22.4797 47.29 22.3926C47.3771 22.3063 47.4674 22.2241 47.5627 22.146C47.6571 22.0687 47.7555 21.9954 47.8573 21.9271C47.959 21.8587 48.0648 21.7961 48.1722 21.7383C48.2804 21.6805 48.3911 21.6284 48.505 21.5812C48.6182 21.534 48.7329 21.4933 48.8509 21.4575C48.9681 21.4217 49.0869 21.3924 49.2074 21.368C49.327 21.3444 49.4482 21.3265 49.5703 21.3143C49.6924 21.3021 49.8145 21.2964 49.9373 21.2964C50.0602 21.2964 50.1823 21.3021 50.3044 21.3143C50.4264 21.3265 50.5477 21.3444 50.6681 21.368C50.7878 21.3924 50.9066 21.4217 51.0246 21.4575C51.1418 21.4933 51.2565 21.534 51.3704 21.5812C51.4836 21.6284 51.5942 21.6805 51.7025 21.7383C51.8107 21.7961 51.9157 21.8587 52.0174 21.9271C52.1191 21.9954 52.2176 22.0687 52.3128 22.146C52.4072 22.2241 52.4984 22.3063 52.5846 22.3926C52.6717 22.4797 52.7539 22.57 52.8312 22.6652C52.9093 22.7596 52.9826 22.8581 53.0501 22.9598C53.1185 23.0623 53.1812 23.1673 53.2389 23.2756C53.2967 23.3838 53.3496 23.4945 53.396 23.6076C53.4432 23.7207 53.4847 23.8363 53.5205 23.9535C53.5555 24.0706 53.5856 24.1895 53.6092 24.3099C53.6336 24.4303 53.6515 24.5516 53.6637 24.6729C53.6751 24.7949 53.6816 24.9178 53.6816 25.0399C53.6816 25.1221 53.6735 25.2035 53.6572 25.284C53.6418 25.3638 53.6174 25.4419 53.5864 25.5176C53.5547 25.5933 53.5164 25.6657 53.4709 25.7332C53.4253 25.8016 53.374 25.8651 53.3162 25.9229C53.2576 25.9806 53.195 26.0327 53.1266 26.0775C53.0583 26.123 52.9867 26.1621 52.911 26.193C52.8353 26.2248 52.7572 26.2484 52.6766 26.2638C52.5968 26.2801 52.5155 26.2882 52.4333 26.2882C52.3511 26.2882 52.2705 26.2801 52.1899 26.2638C52.1094 26.2484 52.0312 26.2248 51.9556 26.193C51.8799 26.1621 51.8083 26.123 51.7399 26.0775C51.6715 26.0327 51.6089 25.9806 51.5511 25.9229C51.4933 25.8651 51.4412 25.8016 51.3957 25.7332C51.3501 25.6657 51.3118 25.5933 51.2801 25.5176C51.2492 25.4419 51.2256 25.3638 51.2093 25.284C51.193 25.2035 51.1857 25.1221 51.1857 25.0399C51.1857 24.9585 51.1776 24.8771 51.1613 24.7965C51.1458 24.716 51.1214 24.6387 51.0905 24.563C51.0588 24.4873 51.0205 24.4149 50.9749 24.3465C50.9294 24.279 50.8781 24.2155 50.8195 24.1577C50.7617 24.0999 50.6991 24.0479 50.6307 24.0023C50.5623 23.9567 50.4907 23.9185 50.415 23.8875C50.3394 23.8558 50.2612 23.8322 50.1807 23.8159C50.1009 23.8005 50.0195 23.7923 49.9373 23.7923C49.8551 23.7923 49.7746 23.8005 49.694 23.8159C49.6134 23.8322 49.5353 23.8558 49.4596 23.8875C49.384 23.9185 49.3123 23.9567 49.244 24.0023C49.1756 24.0479 49.113 24.0999 49.0552 24.1577C48.9974 24.2155 48.9453 24.279 48.8997 24.3465C48.8542 24.4149 48.8159 24.4873 48.7842 24.563C48.7533 24.6387 48.7297 24.716 48.7134 24.7965C48.6971 24.8771 48.6898 24.9585 48.6898 25.0399C48.6898 25.1221 48.6971 25.2035 48.7134 25.284C48.7297 25.3638 48.7533 25.4419 48.7842 25.5176C48.8159 25.5933 48.8542 25.6657 48.8997 25.7332C48.9453 25.8016 48.9974 25.8651 49.0552 25.9229C49.113 25.9806 49.1756 26.0327 49.244 26.0775C49.3123 26.123 49.384 26.1621 49.4596 26.193C49.5353 26.2248 49.6134 26.2484 49.694 26.2638C49.7746 26.2801 49.8551 26.2882 49.9373 26.2882C50.0195 26.2882 50.1009 26.2964 50.1807 26.3118C50.2612 26.3281 50.3394 26.3517 50.415 26.3835C50.4907 26.4144 50.5623 26.4526 50.6307 26.4982C50.6991 26.5438 50.7617 26.5959 50.8195 26.6536C50.8781 26.7114 50.9294 26.7749 50.9749 26.8424C51.0205 26.9108 51.0588 26.9832 51.0905 27.0589C51.1214 27.1346 51.1458 27.2119 51.1613 27.2925C51.1776 27.373 51.1857 27.4544 51.1857 27.5358C51.1857 27.618 51.1776 27.6994 51.1613 27.7799C51.1458 27.8597 51.1214 27.9378 51.0905 28.0135C51.0588 28.0892 51.0205 28.1616 50.9749 28.2292C50.9294 28.2975 50.8781 28.361 50.8195 28.4188C50.7617 28.4766 50.6991 28.5286 50.6307 28.5734C50.5623 28.619 50.4907 28.658 50.415 28.689C50.3394 28.7207 50.2612 28.7443 50.1807 28.7598C50.1009 28.776 50.0195 28.7842 49.9373 28.7842Z" fill="#BB3E8E"/>
<path d="M49.9373 33.776C49.8145 33.776 49.6924 33.7695 49.5703 33.7573C49.4482 33.7451 49.3278 33.7272 49.2074 33.7036C49.0869 33.6792 48.9681 33.6499 48.8509 33.6141C48.7337 33.5782 48.6182 33.5367 48.505 33.4895C48.3919 33.4432 48.2812 33.3903 48.173 33.3325C48.0656 33.2747 47.9606 33.212 47.8581 33.1437C47.7563 33.0753 47.6579 33.0029 47.5635 32.9248C47.4691 32.8475 47.3779 32.7653 47.2917 32.6782C47.2046 32.5919 47.1224 32.5008 47.0443 32.4064C46.967 32.3112 46.8937 32.2127 46.8254 32.111C46.7578 32.0092 46.6943 31.9043 46.6366 31.796C46.5788 31.6878 46.5267 31.5771 46.4795 31.464C46.4323 31.3509 46.3916 31.2353 46.3558 31.1181C46.32 31.0009 46.2899 30.8821 46.2663 30.7625C46.2419 30.642 46.224 30.5208 46.2118 30.3987C46.1995 30.2767 46.1938 30.1546 46.1938 30.0317C46.1938 29.9503 46.2012 29.8689 46.2174 29.7884C46.2337 29.7086 46.2573 29.6305 46.2882 29.5548C46.32 29.4791 46.3582 29.4067 46.4038 29.3383C46.4494 29.2708 46.5015 29.2073 46.5592 29.1495C46.617 29.0918 46.6797 29.0397 46.748 28.9941C46.8164 28.9485 46.888 28.9103 46.9637 28.8794C47.0394 28.8476 47.1175 28.824 47.1981 28.8077C47.2786 28.7923 47.3592 28.7841 47.4414 28.7841C47.5236 28.7841 47.605 28.7923 47.6847 28.8077C47.7653 28.824 47.8434 28.8476 47.9191 28.8794C47.9948 28.9103 48.0664 28.9485 48.1348 28.9941C48.2031 29.0397 48.2658 29.0918 48.3236 29.1495C48.3822 29.2073 48.4334 29.2708 48.479 29.3383C48.5246 29.4067 48.5628 29.4791 48.5946 29.5548C48.6255 29.6305 48.6499 29.7086 48.6654 29.7884C48.6816 29.8689 48.6898 29.9503 48.6898 30.0317C48.6898 30.1139 48.6971 30.1953 48.7134 30.2758C48.7297 30.3556 48.7533 30.4337 48.7842 30.5094C48.8159 30.5851 48.8542 30.6575 48.8997 30.7251C48.9453 30.7934 48.9974 30.8569 49.0552 30.9147C49.113 30.9725 49.1756 31.0245 49.244 31.0701C49.3123 31.1149 49.384 31.1539 49.4596 31.1849C49.5353 31.2166 49.6134 31.2402 49.694 31.2557C49.7746 31.2719 49.8551 31.2801 49.9373 31.2801C50.0195 31.2801 50.1009 31.2719 50.1807 31.2557C50.2612 31.2402 50.3394 31.2166 50.415 31.1849C50.4907 31.1539 50.5623 31.1149 50.6307 31.0701C50.6991 31.0245 50.7617 30.9725 50.8195 30.9147C50.8781 30.8569 50.9294 30.7934 50.9749 30.7251C51.0205 30.6575 51.0588 30.5851 51.0905 30.5094C51.1214 30.4337 51.1458 30.3556 51.1613 30.2758C51.1776 30.1953 51.1857 30.1139 51.1857 30.0317C51.1857 29.9503 51.1776 29.8689 51.1613 29.7884C51.1458 29.7086 51.1214 29.6305 51.0905 29.5548C51.0588 29.4791 51.0205 29.4067 50.9749 29.3383C50.9294 29.2708 50.8781 29.2073 50.8195 29.1495C50.7617 29.0918 50.6991 29.0397 50.6307 28.9941C50.5623 28.9485 50.4907 28.9103 50.415 28.8794C50.3394 28.8476 50.2612 28.824 50.1807 28.8077C50.1009 28.7923 50.0195 28.7841 49.9373 28.7841C49.8551 28.7841 49.7746 28.776 49.694 28.7597C49.6134 28.7443 49.5353 28.7207 49.4596 28.6889C49.384 28.658 49.3123 28.6189 49.244 28.5734C49.1756 28.5286 49.113 28.4765 49.0552 28.4187C48.9974 28.361 48.9453 28.2975 48.8997 28.2291C48.8542 28.1616 48.8159 28.0892 48.7842 28.0135C48.7533 27.9378 48.7297 27.8597 48.7134 27.7799C48.6971 27.6993 48.6898 27.618 48.6898 27.5358C48.6898 27.4544 48.6971 27.373 48.7134 27.2924C48.7297 27.2119 48.7533 27.1346 48.7842 27.0589C48.8159 26.9832 48.8542 26.9108 48.8997 26.8424C48.9453 26.7749 48.9974 26.7114 49.0552 26.6536C49.113 26.5958 49.1756 26.5437 49.244 26.4982C49.3123 26.4526 49.384 26.4143 49.4596 26.3834C49.5353 26.3517 49.6134 26.3281 49.694 26.3118C49.7746 26.2963 49.8551 26.2882 49.9373 26.2882C50.0602 26.2882 50.1823 26.2939 50.3044 26.3061C50.4264 26.3183 50.5477 26.3362 50.6681 26.3598C50.7878 26.3842 50.9066 26.4135 51.0246 26.4493C51.1418 26.4851 51.2565 26.5258 51.3704 26.573C51.4836 26.6202 51.5942 26.6723 51.7025 26.7301C51.8107 26.7879 51.9157 26.8514 52.0174 26.9189C52.1191 26.9873 52.2176 27.0605 52.3128 27.1378C52.4072 27.2159 52.4984 27.2981 52.5846 27.3844C52.6717 27.4715 52.7539 27.5618 52.8312 27.657C52.9093 27.7514 52.9826 27.8499 53.0501 27.9524C53.1185 28.0542 53.1812 28.1591 53.2389 28.2674C53.2967 28.3756 53.3496 28.4863 53.396 28.5994C53.4432 28.7125 53.4847 28.8281 53.5205 28.9453C53.5555 29.0625 53.5856 29.1813 53.6092 29.3017C53.6336 29.4222 53.6515 29.5434 53.6637 29.6655C53.6751 29.7867 53.6816 29.9096 53.6816 30.0317C53.6816 30.1546 53.6751 30.2767 53.6637 30.3987C53.6515 30.5208 53.6336 30.642 53.6092 30.7625C53.5856 30.8829 53.5555 31.0017 53.5205 31.1189C53.4847 31.2361 53.4432 31.3517 53.396 31.4648C53.3496 31.5779 53.2967 31.6886 53.2389 31.7968C53.1812 31.9051 53.1185 32.0101 53.0501 32.1118C52.9826 32.2143 52.9093 32.3128 52.8312 32.4072C52.7539 32.5016 52.6717 32.5927 52.5846 32.6798C52.4984 32.7661 52.4072 32.8483 52.3128 32.9264C52.2176 33.0037 52.1191 33.0769 52.0174 33.1453C51.9157 33.2128 51.8107 33.2763 51.7025 33.3341C51.5942 33.3919 51.4836 33.444 51.3704 33.4912C51.2565 33.5376 51.1418 33.5791 51.0246 33.6149C50.9066 33.6507 50.7878 33.68 50.6681 33.7044C50.5477 33.728 50.4264 33.7459 50.3044 33.7581C50.1823 33.7703 50.0602 33.776 49.9373 33.776Z" fill="#BB3E8E"/>
<path d="M49.9374 23.7923C49.8552 23.7923 49.7746 23.7841 49.6941 23.7679C49.6135 23.7524 49.5354 23.7288 49.4597 23.6971C49.384 23.6661 49.3124 23.6271 49.244 23.5815C49.1757 23.5367 49.113 23.4847 49.0552 23.4269C48.9974 23.3691 48.9454 23.3056 48.8998 23.2373C48.8542 23.1697 48.816 23.0973 48.7842 23.0216C48.7533 22.9459 48.7297 22.8678 48.7134 22.788C48.6971 22.7075 48.6898 22.6261 48.6898 22.5439V21.2963C48.6898 21.2142 48.6971 21.1328 48.7134 21.053C48.7297 20.9725 48.7533 20.8943 48.7842 20.8186C48.816 20.743 48.8542 20.6713 48.8998 20.603C48.9454 20.5346 48.9974 20.472 49.0552 20.4142C49.113 20.3556 49.1757 20.3043 49.244 20.2587C49.3124 20.2132 49.384 20.1749 49.4597 20.1432C49.5354 20.1123 49.6135 20.0878 49.6941 20.0724C49.7746 20.0561 49.8552 20.048 49.9374 20.048C50.0196 20.048 50.101 20.0561 50.1807 20.0724C50.2613 20.0878 50.3394 20.1123 50.4151 20.1432C50.4908 20.1749 50.5624 20.2132 50.6307 20.2587C50.6991 20.3043 50.7618 20.3556 50.8195 20.4142C50.8781 20.472 50.9294 20.5346 50.975 20.603C51.0205 20.6713 51.0588 20.743 51.0905 20.8186C51.1215 20.8943 51.1459 20.9725 51.1613 21.053C51.1776 21.1328 51.1858 21.2142 51.1858 21.2963V22.5439C51.1858 22.6261 51.1776 22.7075 51.1613 22.788C51.1459 22.8678 51.1215 22.9459 51.0905 23.0216C51.0588 23.0973 51.0205 23.1697 50.975 23.2373C50.9294 23.3056 50.8781 23.3691 50.8195 23.4269C50.7618 23.4847 50.6991 23.5367 50.6307 23.5815C50.5624 23.6271 50.4908 23.6661 50.4151 23.6971C50.3394 23.7288 50.2613 23.7524 50.1807 23.7679C50.101 23.7841 50.0196 23.7923 49.9374 23.7923Z" fill="#BB3E8E"/>
<path d="M49.9374 35.0245C49.8552 35.0236 49.7746 35.0163 49.6941 35C49.6135 34.9838 49.5354 34.9602 49.4597 34.9292C49.384 34.8975 49.3124 34.8593 49.244 34.8137C49.1757 34.7681 49.113 34.7168 49.0552 34.6582C48.9974 34.6005 48.9454 34.5378 48.8998 34.4694C48.8542 34.4011 48.816 34.3295 48.7842 34.2538C48.7533 34.1781 48.7297 34.1 48.7134 34.0194C48.6971 33.9388 48.6898 33.8583 48.6898 33.7761V32.5277C48.6898 32.4463 48.6971 32.3649 48.7134 32.2844C48.7297 32.2046 48.7533 32.1265 48.7842 32.0508C48.816 31.9751 48.8542 31.9027 48.8998 31.8344C48.9454 31.7668 48.9974 31.7033 49.0552 31.6455C49.113 31.5878 49.1757 31.5357 49.244 31.4901C49.3124 31.4445 49.384 31.4063 49.4597 31.3754C49.5354 31.3436 49.6135 31.32 49.6941 31.3038C49.7746 31.2883 49.8552 31.2802 49.9374 31.2802C50.0196 31.2802 50.101 31.2883 50.1807 31.3038C50.2613 31.32 50.3394 31.3436 50.4151 31.3754C50.4908 31.4063 50.5624 31.4445 50.6307 31.4901C50.6991 31.5357 50.7618 31.5878 50.8195 31.6455C50.8781 31.7033 50.9294 31.7668 50.975 31.8344C51.0205 31.9027 51.0588 31.9751 51.0905 32.0508C51.1215 32.1265 51.1459 32.2046 51.1613 32.2844C51.1776 32.3649 51.1858 32.4463 51.1858 32.5277V33.7761C51.1858 33.8583 51.1776 33.9388 51.1613 34.0194C51.1459 34.1 51.1215 34.1781 51.0905 34.2538C51.0588 34.3295 51.0205 34.4011 50.975 34.4694C50.9294 34.5378 50.8781 34.6005 50.8195 34.6582C50.7618 34.7168 50.6991 34.7681 50.6307 34.8137C50.5624 34.8593 50.4908 34.8975 50.4151 34.9292C50.3394 34.9602 50.2613 34.9838 50.1807 35C50.101 35.0163 50.0196 35.0236 49.9374 35.0245Z" fill="#BB3E8E"/>
<path d="M49.9373 40.0163C49.5288 40.0163 49.1211 39.9959 48.7142 39.9561C48.3073 39.9154 47.9036 39.856 47.5024 39.7762C47.102 39.6965 46.7057 39.5972 46.3151 39.4784C45.9236 39.3595 45.5395 39.222 45.1619 39.0658C44.7843 38.9095 44.4148 38.7354 44.0543 38.5425C43.6938 38.3496 43.3439 38.1396 43.0037 37.9126C42.6643 37.6855 42.3364 37.4422 42.0206 37.1834C41.7041 36.9238 41.4021 36.6496 41.1132 36.3607C40.8235 36.0718 40.5501 35.769 40.2905 35.4533C40.0309 35.1375 39.7876 34.8096 39.5605 34.4694C39.3335 34.13 39.1243 33.7793 38.9314 33.4188C38.7386 33.0583 38.5644 32.6896 38.4073 32.312C38.2511 31.9344 38.1136 31.5503 37.9948 31.1589C37.8767 30.7674 37.7775 30.3719 37.6977 29.9707C37.618 29.5703 37.5577 29.1659 37.5179 28.7598C37.478 28.3529 37.4576 27.9452 37.4576 27.5358C37.4576 27.1273 37.478 26.7196 37.5179 26.3127C37.5577 25.9058 37.618 25.5021 37.6977 25.1017C37.7775 24.7005 37.8767 24.3042 37.9948 23.9136C38.1136 23.5221 38.2511 23.138 38.4073 22.7604C38.5644 22.3828 38.7386 22.0133 38.9314 21.6528C39.1243 21.2931 39.3335 20.9424 39.5605 20.603C39.7876 20.2629 40.0309 19.9349 40.2905 19.6191C40.5501 19.3034 40.8235 19.0007 41.1132 18.7118C41.4021 18.4229 41.7041 18.1486 42.0206 17.889C42.3364 17.6302 42.6643 17.3869 43.0037 17.1598C43.3439 16.9328 43.6938 16.7228 44.0543 16.5299C44.4148 16.3371 44.7843 16.1629 45.1619 16.0067C45.5395 15.8496 45.9236 15.7121 46.3151 15.5941C46.7057 15.4753 47.102 15.376 47.5024 15.2962C47.9036 15.2165 48.3073 15.1562 48.7142 15.1164C49.1211 15.0765 49.5288 15.0562 49.9373 15.0562C50.3458 15.0562 50.7535 15.0765 51.1604 15.1164C51.5673 15.1562 51.971 15.2165 52.3722 15.2962C52.7726 15.376 53.1689 15.4753 53.5603 15.5941C53.951 15.7121 54.3359 15.8496 54.7135 16.0067C55.0911 16.1629 55.4598 16.3371 55.8203 16.5299C56.1808 16.7228 56.5307 16.9328 56.8709 17.1598C57.2102 17.3869 57.5382 17.6302 57.8548 17.889C58.1705 18.1486 58.4733 18.4229 58.7622 18.7118C59.0511 19.0007 59.3253 19.3034 59.5841 19.6191C59.8437 19.9349 60.087 20.2629 60.3141 20.603C60.5411 20.9424 60.7511 21.2931 60.9432 21.6528C61.136 22.0133 61.311 22.3828 61.4672 22.7604C61.6235 23.138 61.761 23.5221 61.8798 23.9136C61.9987 24.3042 62.0979 24.7005 62.1777 25.1017C62.2575 25.5021 62.3169 25.9058 62.3567 26.3127C62.3974 26.7196 62.417 27.1273 62.417 27.5358C62.417 27.9452 62.3966 28.3521 62.3559 28.759C62.3152 29.1659 62.255 29.5695 62.1753 29.9699C62.0947 30.3703 61.9954 30.7666 61.8766 31.1572C61.7578 31.5479 61.6202 31.932 61.4632 32.3096C61.3069 32.6872 61.132 33.0558 60.9391 33.4163C60.7462 33.7769 60.5371 34.1268 60.3092 34.4661C60.0822 34.8055 59.8396 35.1335 59.58 35.4492C59.3204 35.765 59.047 36.0677 58.7581 36.3566C58.4692 36.6455 58.1665 36.9198 57.8507 37.1785C57.535 37.4382 57.207 37.6815 56.8676 37.9085C56.5275 38.1356 56.1775 38.3455 55.8178 38.5384C55.4573 38.7313 55.0887 38.9054 54.7111 39.0625C54.3335 39.2188 53.9493 39.3563 53.5587 39.4751C53.1673 39.5939 52.7718 39.694 52.3714 39.7738C51.9702 39.8535 51.5665 39.9137 51.1604 39.9544C50.7535 39.9951 50.3458 40.0155 49.9373 40.0163ZM49.9373 17.5521C49.6101 17.5521 49.2846 17.5684 48.9591 17.6001C48.6336 17.6326 48.3105 17.6807 47.9899 17.7441C47.6692 17.8076 47.3518 17.8874 47.0393 17.9826C46.726 18.077 46.4192 18.1868 46.1165 18.3122C45.8146 18.4375 45.5192 18.5775 45.2311 18.7313C44.943 18.8851 44.6622 19.0535 44.3904 19.235C44.1186 19.4165 43.8566 19.611 43.6035 19.8185C43.3512 20.026 43.1087 20.245 42.8776 20.4769C42.6464 20.708 42.4275 20.9497 42.22 21.2028C42.0125 21.4551 41.818 21.7179 41.6365 21.9897C41.4542 22.2616 41.2866 22.5415 41.1328 22.8296C40.9781 23.1185 40.839 23.4131 40.7137 23.7158C40.5883 24.0177 40.4785 24.3254 40.3833 24.6379C40.2889 24.9512 40.2091 25.2677 40.1456 25.5884C40.0813 25.909 40.0333 26.2321 40.0016 26.5576C39.9698 26.8831 39.9536 27.2095 39.9536 27.5358C39.9536 27.863 39.9698 28.1893 40.0016 28.5148C40.0333 28.8403 40.0813 29.1634 40.1456 29.484C40.2091 29.8047 40.2889 30.1213 40.3833 30.4346C40.4785 30.7471 40.5883 31.0547 40.7137 31.3566C40.839 31.6585 40.9781 31.9539 41.1328 32.2428C41.2866 32.5309 41.4542 32.8109 41.6365 33.0827C41.818 33.3545 42.0125 33.6174 42.22 33.8696C42.4275 34.1227 42.6464 34.3644 42.8776 34.5955C43.1087 34.8267 43.3512 35.0464 43.6035 35.2539C43.8566 35.4614 44.1186 35.6559 44.3904 35.8374C44.6622 36.0189 44.943 36.1873 45.2311 36.3411C45.5192 36.495 45.8146 36.6349 46.1165 36.7603C46.4192 36.8848 46.726 36.9954 47.0393 37.0898C47.3518 37.1851 47.6692 37.264 47.9899 37.3283C48.3105 37.3918 48.6336 37.4398 48.9591 37.4715C49.2846 37.5041 49.6101 37.5203 49.9373 37.5203C50.2644 37.5203 50.5908 37.5041 50.9163 37.4715C51.241 37.4398 51.5641 37.3918 51.8855 37.3283C52.2062 37.264 52.5227 37.1851 52.8352 37.0898C53.1486 36.9954 53.4562 36.8848 53.7581 36.7603C54.06 36.6349 54.3554 36.495 54.6435 36.3411C54.9324 36.1873 55.2124 36.0189 55.4842 35.8374C55.756 35.6559 56.018 35.4614 56.2711 35.2539C56.5242 35.0464 56.7659 34.8267 56.997 34.5955C57.2282 34.3644 57.4479 34.1227 57.6546 33.8696C57.8621 33.6174 58.0566 33.3545 58.2389 33.0827C58.4204 32.8109 58.588 32.5309 58.7426 32.2428C58.8964 31.9539 59.0364 31.6585 59.1609 31.3566C59.2863 31.0547 59.3961 30.7471 59.4913 30.4346C59.5865 30.1213 59.6655 29.8047 59.729 29.484C59.7933 29.1634 59.8413 28.8403 59.873 28.5148C59.9056 28.1893 59.921 27.863 59.921 27.5358C59.921 27.2095 59.9047 26.8831 59.8722 26.5576C59.8396 26.2329 59.7916 25.9098 59.7273 25.5892C59.663 25.2686 59.5841 24.952 59.4889 24.6395C59.3937 24.3262 59.2838 24.0194 59.1585 23.7174C59.0332 23.4155 58.8932 23.1201 58.7386 22.832C58.5848 22.5439 58.4171 22.264 58.2348 21.9922C58.0533 21.7204 57.8588 21.4583 57.6513 21.2052C57.4438 20.953 57.2249 20.7113 56.9938 20.4801C56.7627 20.249 56.521 20.0293 56.2679 19.8218C56.0156 19.6151 55.7535 19.4198 55.4817 19.2383C55.2099 19.0568 54.93 18.8892 54.6411 18.7345C54.353 18.5807 54.0584 18.4408 53.7565 18.3154C53.4546 18.1901 53.1469 18.0802 52.8344 17.985C52.5219 17.8898 52.2046 17.8101 51.8847 17.7458C51.5641 17.6823 51.241 17.6335 50.9155 17.6017C50.59 17.5692 50.2644 17.5529 49.9373 17.5521Z" fill="#BB3E8E"/>
<path d="M66.1613 40.0163H33.7134C33.632 40.0163 33.5506 40.0082 33.4701 39.9919C33.3903 39.9756 33.3122 39.952 33.2365 39.9211C33.1608 39.8894 33.0884 39.8511 33.02 39.8055C32.9525 39.76 32.889 39.7087 32.8312 39.6501C32.7734 39.5923 32.7214 39.5297 32.6758 39.4613C32.6302 39.3929 32.592 39.3213 32.561 39.2456C32.5293 39.17 32.5057 39.0918 32.4894 39.0113C32.474 38.9307 32.4658 38.8501 32.4658 38.7679C32.4658 38.6858 32.474 38.6052 32.4894 38.5246C32.5057 38.4441 32.5293 38.3659 32.561 38.2902C32.592 38.2146 32.6302 38.1429 32.6758 38.0746C32.7214 38.0062 32.7734 37.9436 32.8312 37.8858C32.889 37.8272 32.9525 37.7759 33.02 37.7303C33.0884 37.6848 33.1608 37.6465 33.2365 37.6148C33.3122 37.5839 33.3903 37.5603 33.4701 37.544C33.5506 37.5277 33.632 37.5204 33.7134 37.5204H66.1613C66.2427 37.5204 66.3241 37.5277 66.4046 37.544C66.4852 37.5603 66.5633 37.5839 66.639 37.6148C66.7147 37.6465 66.7863 37.6848 66.8547 37.7303C66.9222 37.7759 66.9857 37.8272 67.0435 37.8858C67.1012 37.9436 67.1533 38.0062 67.1989 38.0746C67.2445 38.1429 67.2827 38.2146 67.3145 38.2902C67.3454 38.3659 67.369 38.4441 67.3853 38.5246C67.4007 38.6052 67.4089 38.6858 67.4089 38.7679C67.4089 38.8501 67.4007 38.9307 67.3853 39.0113C67.369 39.0918 67.3454 39.17 67.3145 39.2456C67.2827 39.3213 67.2445 39.3929 67.1989 39.4613C67.1533 39.5297 67.1012 39.5923 67.0435 39.6501C66.9857 39.7087 66.9222 39.76 66.8547 39.8055C66.7863 39.8511 66.7147 39.8894 66.639 39.9211C66.5633 39.952 66.4852 39.9756 66.4046 39.9919C66.3241 40.0082 66.2427 40.0163 66.1613 40.0163Z" fill="#BB3E8E"/>
<mask id="mask0_530_376" style="mask-type:luminance" maskUnits="userSpaceOnUse" x="17" y="30" width="24" height="18">
<path d="M17.4902 30H40.625V47.7083H17.4902V30Z" fill="white"/>
</mask>
<g mask="url(#mask0_530_376)">
<path d="M18.737 47.5041C18.6841 47.5041 18.6312 47.5 18.5783 47.4935C18.5262 47.487 18.4742 47.4764 18.4229 47.4634C18.3716 47.4504 18.322 47.4333 18.2723 47.4137C18.2235 47.3942 18.1755 47.3714 18.1291 47.3454C18.0835 47.3193 18.0388 47.2909 17.9965 47.2591C17.9533 47.2282 17.9134 47.194 17.8752 47.1574C17.8369 47.1208 17.8011 47.0817 17.7678 47.041C17.7344 46.9995 17.7035 46.9564 17.6758 46.9116C17.6481 46.866 17.6237 46.8197 17.6018 46.7716C17.5798 46.7236 17.5611 46.674 17.5456 46.6235C17.5293 46.5723 17.5171 46.521 17.5082 46.4689C17.4992 46.4168 17.4935 46.3647 17.4911 46.3118C17.4886 46.259 17.4895 46.2061 17.4943 46.1532C17.4984 46.1003 17.5065 46.0482 17.5171 45.9961C17.5285 45.944 17.5423 45.8936 17.5603 45.8439C17.5773 45.7935 17.5977 45.7446 17.6221 45.6974L25.1099 30.7218C25.1612 30.6185 25.2263 30.5233 25.3044 30.4378C25.3825 30.3524 25.4712 30.2791 25.5697 30.2181C25.6682 30.1579 25.7731 30.1115 25.8846 30.0798C25.9961 30.048 26.1101 30.0317 26.2256 30.0317H39.3547C39.4369 30.0317 39.5174 30.0399 39.598 30.0562C39.6786 30.0724 39.7567 30.096 39.8324 30.127C39.9081 30.1587 39.9797 30.1969 40.048 30.2425C40.1164 30.2881 40.1791 30.3394 40.2368 30.3979C40.2954 30.4557 40.3467 30.5184 40.3923 30.5868C40.4379 30.6551 40.4761 30.7267 40.5078 30.8024C40.5388 30.8781 40.5624 30.9562 40.5786 31.0368C40.5949 31.1174 40.6022 31.1979 40.6022 31.2801C40.6022 31.3623 40.5949 31.4429 40.5786 31.5234C40.5624 31.604 40.5388 31.6821 40.5078 31.7578C40.4761 31.8335 40.4379 31.9051 40.3923 31.9735C40.3467 32.0418 40.2954 32.1045 40.2368 32.1623C40.1791 32.2209 40.1164 32.2721 40.048 32.3177C39.9797 32.3633 39.9081 32.4015 39.8324 32.4333C39.7567 32.4642 39.6786 32.4878 39.598 32.5041C39.5174 32.5203 39.4369 32.5277 39.3547 32.5277H26.9971L19.8544 46.814C19.8023 46.9181 19.7372 47.0125 19.659 47.098C19.5809 47.1834 19.4922 47.2567 19.3937 47.3177C19.2953 47.3787 19.1895 47.4251 19.078 47.4569C18.9665 47.4878 18.8526 47.5041 18.737 47.5041Z" fill="#BB3E8E"/>
</g>
<mask id="mask1_530_376" style="mask-type:luminance" maskUnits="userSpaceOnUse" x="59" y="30" width="24" height="18">
<path d="M59.1666 30H82.4902V47.7083H59.1666V30Z" fill="white"/>
</mask>
<g mask="url(#mask1_530_376)">
<path d="M81.1376 47.5041C81.0221 47.5041 80.9081 47.4886 80.7966 47.4569C80.6851 47.4251 80.5802 47.3787 80.4809 47.3177C80.3824 47.2567 80.2937 47.1834 80.2156 47.098C80.1375 47.0125 80.0723 46.9181 80.0203 46.814L72.8775 32.5277H60.5208C60.4386 32.5277 60.358 32.5203 60.2774 32.5041C60.1969 32.4878 60.1187 32.4642 60.0431 32.4333C59.9674 32.4015 59.8958 32.3633 59.8274 32.3177C59.759 32.2721 59.6964 32.2209 59.6386 32.1623C59.5808 32.1045 59.5287 32.0418 59.4832 31.9735C59.4376 31.9051 59.3993 31.8335 59.3676 31.7578C59.3367 31.6821 59.3131 31.604 59.2968 31.5234C59.2805 31.4429 59.2732 31.3623 59.2732 31.2801C59.2732 31.1979 59.2805 31.1174 59.2968 31.0368C59.3131 30.9562 59.3367 30.8781 59.3676 30.8024C59.3993 30.7267 59.4376 30.6551 59.4832 30.5868C59.5287 30.5184 59.5808 30.4557 59.6386 30.3979C59.6964 30.3394 59.759 30.2881 59.8274 30.2425C59.8958 30.1969 59.9674 30.1587 60.0431 30.127C60.1187 30.096 60.1969 30.0724 60.2774 30.0562C60.358 30.0399 60.4386 30.0317 60.5208 30.0317H73.649C73.7646 30.0317 73.8785 30.048 73.99 30.0798C74.1015 30.1115 74.2065 30.1579 74.3049 30.2181C74.4034 30.2791 74.4921 30.3524 74.5702 30.4378C74.6484 30.5233 74.7135 30.6185 74.7655 30.7218L82.2533 45.6974C82.2769 45.7446 82.2973 45.7935 82.3152 45.8439C82.3323 45.8936 82.3469 45.944 82.3575 45.9961C82.3689 46.0482 82.3762 46.1003 82.3803 46.1532C82.3852 46.2061 82.386 46.259 82.3835 46.3118C82.3811 46.3647 82.3754 46.4168 82.3665 46.4689C82.3575 46.521 82.3453 46.5723 82.3298 46.6235C82.3136 46.674 82.2948 46.7236 82.2737 46.7716C82.2517 46.8197 82.2265 46.866 82.1988 46.9116C82.1711 46.9564 82.1402 46.9995 82.1069 47.041C82.0735 47.0817 82.0377 47.1208 81.9994 47.1574C81.9612 47.194 81.9213 47.2282 81.8782 47.2591C81.8359 47.2909 81.7919 47.3193 81.7455 47.3454C81.6991 47.3714 81.6511 47.3942 81.6023 47.4137C81.5535 47.4333 81.503 47.4504 81.4517 47.4634C81.4005 47.4764 81.3484 47.487 81.2963 47.4935C81.2434 47.5 81.1913 47.5041 81.1376 47.5041Z" fill="#BB3E8E"/>
</g>
<mask id="mask2_530_376" style="mask-type:luminance" maskUnits="userSpaceOnUse" x="17" y="45" width="66" height="40">
<path d="M17.4902 45H82.4902V84.9959H17.4902V45Z" fill="white"/>
</mask>
<g mask="url(#mask2_530_376)">
<path d="M81.1369 84.9431H18.7378C18.6564 84.9431 18.575 84.9349 18.4945 84.9195C18.4139 84.9032 18.3358 84.8796 18.2601 84.8479C18.1844 84.8169 18.1128 84.7779 18.0444 84.7331C17.9769 84.6875 17.9134 84.6355 17.8556 84.5777C17.7979 84.5199 17.7458 84.4564 17.7002 84.3881C17.6546 84.3205 17.6164 84.2481 17.5854 84.1724C17.5537 84.0967 17.5301 84.0186 17.5138 83.9388C17.4984 83.8583 17.4902 83.7769 17.4902 83.6947V46.2557C17.4902 46.1735 17.4984 46.093 17.5138 46.0124C17.5301 45.9318 17.5537 45.8537 17.5854 45.778C17.6164 45.7024 17.6546 45.6307 17.7002 45.5624C17.7458 45.494 17.7979 45.4314 17.8556 45.3736C17.9134 45.3158 17.9769 45.2637 18.0444 45.2181C18.1128 45.1726 18.1844 45.1343 18.2601 45.1026C18.3358 45.0717 18.4139 45.0481 18.4945 45.0318C18.575 45.0155 18.6564 45.0082 18.7378 45.0082C18.82 45.0082 18.9014 45.0155 18.9811 45.0318C19.0617 45.0481 19.1398 45.0717 19.2155 45.1026C19.2912 45.1343 19.3636 45.1726 19.4312 45.2181C19.4995 45.2637 19.5622 45.3158 19.6208 45.3736C19.6785 45.4314 19.7298 45.494 19.7754 45.5624C19.821 45.6307 19.86 45.7024 19.891 45.778C19.9227 45.8537 19.9463 45.9318 19.9618 46.0124C19.978 46.093 19.9862 46.1735 19.9862 46.2557V82.4471H79.8885V46.2557C79.8885 46.1735 79.8966 46.093 79.9129 46.0124C79.9292 45.9318 79.9528 45.8537 79.9837 45.778C80.0155 45.7024 80.0537 45.6307 80.0993 45.5624C80.1449 45.494 80.1961 45.4314 80.2547 45.3736C80.3125 45.3158 80.3752 45.2637 80.4435 45.2181C80.5119 45.1726 80.5835 45.1343 80.6592 45.1026C80.7349 45.0717 80.813 45.0481 80.8936 45.0318C80.9741 45.0155 81.0547 45.0082 81.1369 45.0082C81.2191 45.0082 81.2996 45.0155 81.3802 45.0318C81.4608 45.0481 81.5389 45.0717 81.6146 45.1026C81.6903 45.1343 81.7619 45.1726 81.8302 45.2181C81.8986 45.2637 81.9613 45.3158 82.019 45.3736C82.0768 45.4314 82.1289 45.494 82.1745 45.5624C82.2201 45.6307 82.2583 45.7024 82.29 45.778C82.321 45.8537 82.3446 45.9318 82.3608 46.0124C82.3771 46.093 82.3844 46.1735 82.3844 46.2557V83.6947C82.3844 83.7769 82.3771 83.8583 82.3608 83.9388C82.3446 84.0186 82.321 84.0967 82.29 84.1724C82.2583 84.2481 82.2201 84.3205 82.1745 84.3881C82.1289 84.4564 82.0768 84.5199 82.019 84.5777C81.9613 84.6355 81.8986 84.6875 81.8302 84.7331C81.7619 84.7779 81.6903 84.8169 81.6146 84.8479C81.5389 84.8796 81.4608 84.9032 81.3802 84.9195C81.2996 84.9349 81.2191 84.9431 81.1369 84.9431Z" fill="#BB3E8E"/>
</g>
<mask id="mask3_530_376" style="mask-type:luminance" maskUnits="userSpaceOnUse" x="17" y="45" width="66" height="3">
<path d="M17.4902 45H82.4902V47.7083H17.4902V45Z" fill="white"/>
</mask>
<g mask="url(#mask3_530_376)">
<path d="M81.1369 47.5041H18.7378C18.6564 47.5041 18.575 47.496 18.4945 47.4797C18.4139 47.4642 18.3358 47.4398 18.2601 47.4089C18.1844 47.3772 18.1128 47.3389 18.0444 47.2933C17.9769 47.2478 17.9134 47.1965 17.8556 47.1379C17.7979 47.0801 17.7458 47.0175 17.7002 46.9491C17.6546 46.8807 17.6164 46.8091 17.5854 46.7334C17.5537 46.6578 17.5301 46.5796 17.5138 46.4991C17.4984 46.4193 17.4902 46.3379 17.4902 46.2557C17.4902 46.1735 17.4984 46.093 17.5138 46.0124C17.5301 45.9318 17.5537 45.8537 17.5854 45.778C17.6164 45.7024 17.6546 45.6307 17.7002 45.5624C17.7458 45.494 17.7979 45.4314 17.8556 45.3736C17.9134 45.3158 17.9769 45.2637 18.0444 45.2181C18.1128 45.1726 18.1844 45.1343 18.2601 45.1026C18.3358 45.0717 18.4139 45.0481 18.4945 45.0318C18.575 45.0155 18.6564 45.0082 18.7378 45.0082H81.1369C81.2191 45.0082 81.2996 45.0155 81.3802 45.0318C81.4608 45.0481 81.5389 45.0717 81.6146 45.1026C81.6903 45.1343 81.7619 45.1726 81.8302 45.2181C81.8986 45.2637 81.9613 45.3158 82.019 45.3736C82.0768 45.4314 82.1289 45.494 82.1745 45.5624C82.2201 45.6307 82.2583 45.7024 82.29 45.778C82.321 45.8537 82.3446 45.9318 82.3608 46.0124C82.3771 46.093 82.3844 46.1735 82.3844 46.2557C82.3844 46.3379 82.3771 46.4193 82.3608 46.4991C82.3446 46.5796 82.321 46.6578 82.29 46.7334C82.2583 46.8091 82.2201 46.8807 82.1745 46.9491C82.1289 47.0175 82.0768 47.0801 82.019 47.1379C81.9613 47.1965 81.8986 47.2478 81.8302 47.2933C81.7619 47.3389 81.6903 47.3772 81.6146 47.4089C81.5389 47.4398 81.4608 47.4642 81.3802 47.4797C81.2996 47.496 81.2191 47.5041 81.1369 47.5041Z" fill="#BB3E8E"/>
</g>
<path d="M49.9373 76.8433C49.7721 76.8441 49.6126 76.8123 49.4596 76.7489C49.3066 76.6854 49.1723 76.5951 49.0551 76.4779L38.4651 65.8887C38.2942 65.7145 38.1315 65.533 37.9777 65.3434C37.8239 65.153 37.6798 64.9569 37.5447 64.7526C37.4104 64.5492 37.2867 64.3392 37.172 64.1227C37.0581 63.9071 36.9555 63.6857 36.8628 63.4603C36.7708 63.234 36.6894 63.0037 36.6194 62.7694C36.5494 62.5358 36.4917 62.299 36.4453 62.0589C36.3981 61.8197 36.3631 61.578 36.3403 61.3346C36.3175 61.0921 36.3061 60.848 36.3069 60.6038C36.3077 60.3597 36.3208 60.1164 36.3452 59.873C36.3696 59.6297 36.4062 59.3888 36.4542 59.1496C36.5031 58.9103 36.5625 58.6735 36.6341 58.4399C36.7057 58.2064 36.7879 57.9769 36.8815 57.7515C36.9759 57.526 37.08 57.3055 37.1956 57.0907C37.3112 56.875 37.4365 56.6659 37.5724 56.4632C37.7083 56.2606 37.854 56.0645 38.0086 55.8757C38.164 55.6868 38.3276 55.5062 38.5001 55.3337C38.6726 55.1611 38.8533 54.9967 39.0421 54.8421C39.2309 54.6875 39.427 54.5418 39.6297 54.4059C39.8331 54.27 40.0423 54.1447 40.2571 54.0291C40.4728 53.9136 40.6925 53.8094 40.9179 53.715C41.1442 53.6214 41.3737 53.5392 41.6072 53.4676C41.8408 53.396 42.0768 53.3366 42.316 53.2878C42.5561 53.2397 42.797 53.2031 43.0395 53.1787C43.2828 53.1543 43.5262 53.1413 43.7703 53.1405C44.0153 53.1396 44.2586 53.151 44.5019 53.1738C44.7444 53.1974 44.9861 53.2324 45.2262 53.2788C45.4655 53.3252 45.7023 53.3838 45.9366 53.4538C46.1702 53.5238 46.4005 53.6043 46.6267 53.6971C46.853 53.7891 47.0735 53.8924 47.29 54.0063C47.5057 54.1203 47.7156 54.2448 47.9199 54.3791C48.1233 54.5133 48.3203 54.6582 48.5099 54.8112C48.6995 54.965 48.881 55.1278 49.0551 55.2995L49.9373 56.1816L50.8195 55.2995C50.9936 55.1261 51.1751 54.9626 51.3647 54.8071C51.5543 54.6517 51.7513 54.506 51.9547 54.3701C52.159 54.2334 52.3689 54.1081 52.5854 53.9925C52.8019 53.877 53.0232 53.7728 53.2495 53.6792C53.4765 53.5856 53.7068 53.5026 53.9412 53.4318C54.1764 53.361 54.414 53.3016 54.6541 53.2536C54.8942 53.2056 55.1367 53.1698 55.3808 53.1462C55.625 53.1217 55.8691 53.1104 56.1149 53.1104C56.3598 53.1104 56.604 53.1217 56.8481 53.1462C57.0922 53.1698 57.3348 53.2056 57.5748 53.2536C57.8157 53.3016 58.0525 53.361 58.2877 53.4318C58.5221 53.5026 58.7524 53.5856 58.9795 53.6792C59.2057 53.7728 59.427 53.877 59.6435 53.9925C59.86 54.1081 60.0699 54.2334 60.2742 54.3701C60.4777 54.506 60.6746 54.6517 60.8642 54.8071C61.0538 54.9626 61.2361 55.1261 61.4095 55.2995C61.5828 55.4728 61.7464 55.6551 61.9018 55.8447C62.0573 56.0343 62.2029 56.2313 62.3388 56.4347C62.4747 56.639 62.6009 56.849 62.7156 57.0654C62.8312 57.2811 62.9362 57.5033 63.0297 57.7295C63.1233 57.9557 63.2055 58.1868 63.2763 58.4212C63.3479 58.6556 63.4073 58.8932 63.4545 59.1341C63.5026 59.3742 63.5384 59.6167 63.5628 59.86C63.5864 60.1042 63.5986 60.3491 63.5986 60.5941C63.5986 60.839 63.5864 61.084 63.5628 61.3273C63.5384 61.5715 63.5026 61.814 63.4545 62.054C63.4073 62.2949 63.3479 62.5326 63.2763 62.7669C63.2055 63.0013 63.1233 63.2324 63.0297 63.4587C62.9362 63.6849 62.8312 63.9063 62.7156 64.1227C62.6009 64.3392 62.4747 64.5492 62.3388 64.7534C62.2029 64.9569 62.0573 65.1538 61.9018 65.3434C61.7464 65.533 61.5828 65.7145 61.4095 65.8887L50.8195 76.4787C50.7031 76.5959 50.568 76.6854 50.415 76.7489C50.262 76.8123 50.1025 76.8441 49.9373 76.8433ZM43.7605 55.6055C43.5156 55.6047 43.2714 55.6226 43.0281 55.6584C42.7856 55.6942 42.5463 55.7479 42.3112 55.8187C42.0768 55.8903 41.8481 55.9782 41.6259 56.0832C41.4038 56.1873 41.1914 56.3086 40.9871 56.4445C40.7828 56.5804 40.5892 56.731 40.4077 56.8962C40.2254 57.0605 40.0569 57.238 39.9007 57.4276C39.7452 57.6172 39.6036 57.8174 39.4775 58.0282C39.3514 58.2389 39.2415 58.457 39.1471 58.6841C39.0535 58.9111 38.9762 59.1439 38.9168 59.3815C38.8574 59.62 38.8151 59.8608 38.7915 60.105C38.767 60.3499 38.7614 60.5941 38.7727 60.8398C38.785 61.0848 38.8151 61.3281 38.8631 61.5682C38.9111 61.8091 38.9762 62.0451 39.0592 62.2762C39.1422 62.5073 39.2415 62.7311 39.3571 62.9476C39.4726 63.1641 39.6036 63.3708 39.7501 63.5685C39.8966 63.7655 40.0569 63.951 40.2303 64.1243L49.9373 73.8314L59.6443 64.1243C59.7599 64.0088 59.8689 63.8875 59.9731 63.7606C60.0765 63.6344 60.1733 63.5034 60.2636 63.3675C60.3548 63.2316 60.4386 63.0908 60.5151 62.9468C60.5924 62.8027 60.6616 62.6554 60.7242 62.5041C60.7869 62.3527 60.8414 62.1997 60.8886 62.0426C60.9366 61.8864 60.9757 61.7285 61.0074 61.5682C61.0392 61.4079 61.0636 61.2459 61.0791 61.0832C61.0953 60.9212 61.1035 60.7577 61.1035 60.5941C61.1035 60.4313 61.0953 60.2677 61.0791 60.105C61.0636 59.943 61.0392 59.7811 61.0074 59.6208C60.9757 59.4604 60.9366 59.3026 60.8886 59.1455C60.8414 58.9893 60.7869 58.8354 60.7242 58.6849C60.6616 58.5335 60.5924 58.3862 60.5151 58.2422C60.4386 58.0973 60.3548 57.9574 60.2636 57.8215C60.1733 57.6855 60.0765 57.5545 59.9731 57.4276C59.8689 57.3014 59.7599 57.1802 59.6443 57.0646C59.5288 56.9491 59.4075 56.84 59.2814 56.7367C59.1544 56.6325 59.0234 56.5356 58.8875 56.4453C58.7516 56.3542 58.6116 56.2712 58.4668 56.1938C58.3227 56.1174 58.1754 56.0474 58.024 55.9847C57.8735 55.9229 57.7197 55.8675 57.5634 55.8203C57.4064 55.7731 57.2485 55.7332 57.0882 55.7015C56.9279 55.6698 56.7659 55.6462 56.604 55.6299C56.4412 55.6136 56.2776 55.6055 56.1149 55.6055C55.9513 55.6055 55.7877 55.6136 55.6258 55.6299C55.463 55.6462 55.3011 55.6698 55.1407 55.7015C54.9804 55.7332 54.8225 55.7731 54.6663 55.8203C54.5092 55.8675 54.3554 55.9229 54.2049 55.9847C54.0535 56.0474 53.9062 56.1174 53.7622 56.1938C53.6173 56.2712 53.4773 56.3542 53.3414 56.4453C53.2055 56.5356 53.0745 56.6325 52.9475 56.7367C52.8214 56.84 52.7002 56.9491 52.5846 57.0646L50.8195 58.8298C50.7617 58.8875 50.699 58.9388 50.6307 58.9844C50.5623 59.0299 50.4907 59.0682 50.415 59.0999C50.3393 59.1309 50.2612 59.1545 50.1806 59.1707C50.1009 59.187 50.0195 59.1951 49.9373 59.1951C49.8551 59.1951 49.7745 59.187 49.694 59.1707C49.6134 59.1545 49.5353 59.1309 49.4596 59.0999C49.3839 59.0682 49.3123 59.0299 49.2439 58.9844C49.1764 58.9388 49.1129 58.8875 49.0551 58.8298L47.29 57.0646C47.0589 56.8327 46.8066 56.626 46.534 56.4437C46.2614 56.2622 45.9741 56.1084 45.6713 55.9831C45.3686 55.8577 45.0561 55.7633 44.7347 55.6999C44.4132 55.6364 44.0885 55.6047 43.7605 55.6055Z" fill="#BB3E8E"/>
</svg>
