<svg xmlns="http://www.w3.org/2000/svg" xmlns:xlink="http://www.w3.org/1999/xlink" width="512" zoomAndPan="magnify" viewBox="0 0 384 383.999986" height="512" preserveAspectRatio="xMidYMid meet" version="1.0"><defs><clipPath id="8d5a654872"><path d="M 43 23.019531 L 376.078125 23.019531 L 376.078125 361 L 43 361 Z M 43 23.019531 " clip-rule="nonzero"/></clipPath><clipPath id="872051fd22"><path d="M 7.828125 160 L 220 160 L 220 224 L 7.828125 224 Z M 7.828125 160 " clip-rule="nonzero"/></clipPath></defs><path fill="#b3daff" d="M 207.3125 240.105469 C 187.398438 240.105469 169.304688 227.59375 162.285156 208.96875 C 161.089844 205.796875 157.558594 204.199219 154.375 205.390625 C 151.199219 206.585938 149.601562 210.128906 150.796875 213.300781 C 159.609375 236.675781 182.320312 252.382812 207.3125 252.382812 C 240.605469 252.382812 267.695312 225.292969 267.695312 192 C 267.695312 158.703125 240.605469 131.617188 207.3125 131.617188 C 182.105469 131.617188 159.320312 147.503906 150.621094 171.15625 C 149.453125 174.339844 151.082031 177.867188 154.265625 179.039062 C 157.445312 180.203125 160.972656 178.578125 162.148438 175.398438 C 169.078125 156.554688 187.226562 143.894531 207.3125 143.894531 C 233.835938 143.894531 255.414062 165.472656 255.414062 192 C 255.414062 218.527344 233.835938 240.105469 207.3125 240.105469 Z M 207.3125 240.105469 " fill-opacity="1" fill-rule="nonzero"/><path fill="#b3daff" d="M 107.90625 216.464844 C 107.097656 213.171875 103.773438 211.160156 100.480469 211.964844 C 97.1875 212.769531 95.171875 216.097656 95.976562 219.390625 C 108.578125 270.753906 154.355469 306.625 207.3125 306.625 C 270.519531 306.625 321.941406 255.203125 321.941406 192 C 321.941406 128.792969 270.519531 77.371094 207.3125 77.371094 C 153.738281 77.371094 106.625 115.316406 95.285156 167.597656 C 94.566406 170.910156 96.667969 174.179688 99.984375 174.894531 C 103.34375 175.621094 106.570312 173.507812 107.285156 170.199219 C 117.410156 123.527344 159.476562 89.648438 207.3125 89.648438 C 263.75 89.648438 309.660156 135.566406 309.660156 192 C 309.660156 248.433594 263.75 294.347656 207.3125 294.347656 C 160.03125 294.347656 119.148438 262.320312 107.90625 216.464844 Z M 107.90625 216.464844 " fill-opacity="1" fill-rule="nonzero"/><g clip-path="url(#8d5a654872)"><path fill="#b3daff" d="M 207.3125 23.128906 C 130.855469 23.128906 63.742188 74.667969 44.105469 148.464844 C 43.230469 151.742188 45.179688 155.101562 48.460938 155.976562 C 51.71875 156.839844 55.097656 154.898438 55.96875 151.621094 C 74.179688 83.195312 136.414062 35.40625 207.3125 35.40625 C 293.660156 35.40625 363.90625 105.652344 363.90625 192 C 363.90625 278.34375 293.660156 348.59375 207.3125 348.59375 C 137.6875 348.59375 75.75 301.882812 56.691406 234.996094 C 55.765625 231.734375 52.359375 229.839844 49.105469 230.777344 C 45.84375 231.703125 43.953125 235.101562 44.886719 238.363281 C 65.4375 310.492188 132.230469 360.871094 207.3125 360.871094 C 300.429688 360.871094 376.183594 285.117188 376.183594 192 C 376.183594 98.882812 300.429688 23.128906 207.3125 23.128906 Z M 207.3125 23.128906 " fill-opacity="1" fill-rule="nonzero"/></g><g clip-path="url(#872051fd22)"><path fill="#b3daff" d="M 11.820312 222.796875 C 12.488281 223.050781 13.207031 223.207031 13.964844 223.207031 L 74.679688 223.207031 C 75.085938 223.207031 75.496094 223.164062 75.894531 223.082031 C 76.125 223.035156 76.339844 222.953125 76.558594 222.882812 C 76.722656 222.828125 76.894531 222.792969 77.054688 222.726562 C 77.429688 222.570312 77.785156 222.375 78.117188 222.152344 C 78.171875 222.113281 78.222656 222.058594 78.277344 222.019531 C 78.554688 221.816406 78.820312 221.601562 79.0625 221.355469 C 79.070312 221.34375 79.085938 221.335938 79.101562 221.324219 L 101.433594 198.136719 L 196.914062 198.136719 C 199.023438 201.703125 202.867188 204.121094 207.3125 204.121094 C 214.007812 204.121094 219.433594 198.695312 219.433594 192 C 219.433594 185.304688 214.007812 179.875 207.3125 179.875 C 202.867188 179.875 199.023438 182.292969 196.914062 185.859375 L 101.433594 185.859375 L 79.101562 162.675781 C 79.089844 162.667969 79.082031 162.664062 79.074219 162.65625 C 78.519531 162.085938 77.855469 161.621094 77.113281 161.300781 C 77.105469 161.296875 77.097656 161.289062 77.089844 161.285156 C 76.40625 160.996094 75.65625 160.835938 74.871094 160.8125 C 74.835938 160.8125 74.800781 160.800781 74.761719 160.800781 C 74.734375 160.800781 74.707031 160.792969 74.679688 160.792969 L 13.964844 160.792969 C 13.230469 160.792969 12.535156 160.941406 11.882812 161.179688 C 11.824219 161.199219 11.769531 161.210938 11.714844 161.234375 C 10.992188 161.519531 10.34375 161.9375 9.785156 162.457031 C 9.761719 162.480469 9.730469 162.488281 9.703125 162.511719 C 9.695312 162.519531 9.691406 162.535156 9.679688 162.546875 C 9.117188 163.09375 8.660156 163.75 8.339844 164.480469 C 8.335938 164.5 8.324219 164.511719 8.316406 164.53125 C 8.027344 165.203125 7.875 165.941406 7.847656 166.714844 C 7.847656 166.761719 7.835938 166.808594 7.832031 166.859375 C 7.832031 166.882812 7.828125 166.90625 7.828125 166.933594 C 7.828125 167.664062 7.976562 168.355469 8.210938 169.007812 C 8.234375 169.066406 8.242188 169.128906 8.265625 169.1875 C 8.554688 169.914062 8.976562 170.570312 9.503906 171.128906 C 9.523438 171.148438 9.527344 171.171875 9.542969 171.191406 L 29.585938 192 L 9.542969 212.808594 C 9.527344 212.824219 9.523438 212.851562 9.503906 212.871094 C 8.976562 213.429688 8.554688 214.085938 8.265625 214.8125 C 8.242188 214.871094 8.234375 214.933594 8.210938 214.992188 C 7.976562 215.644531 7.828125 216.335938 7.828125 217.066406 C 7.828125 217.089844 7.832031 217.113281 7.832031 217.140625 C 7.835938 217.1875 7.847656 217.234375 7.847656 217.285156 C 7.875 218.054688 8.027344 218.796875 8.316406 219.46875 C 8.324219 219.484375 8.335938 219.5 8.339844 219.519531 C 8.660156 220.25 9.117188 220.90625 9.679688 221.453125 C 9.691406 221.464844 9.695312 221.480469 9.703125 221.488281 C 9.730469 221.511719 9.761719 221.519531 9.789062 221.542969 C 10.332031 222.050781 10.964844 222.46875 11.667969 222.753906 C 11.71875 222.769531 11.769531 222.777344 11.820312 222.796875 Z M 42.527344 196.257812 C 42.777344 195.996094 42.890625 195.671875 43.085938 195.382812 C 43.328125 195.023438 43.621094 194.691406 43.78125 194.296875 C 43.925781 193.933594 43.945312 193.554688 44.019531 193.175781 C 44.097656 192.78125 44.226562 192.402344 44.226562 192 C 44.226562 191.597656 44.097656 191.21875 44.019531 190.824219 C 43.945312 190.445312 43.925781 190.066406 43.78125 189.703125 C 43.621094 189.308594 43.328125 188.976562 43.085938 188.613281 C 42.890625 188.324219 42.777344 188 42.527344 187.738281 L 28.402344 173.070312 L 72.070312 173.070312 L 90.300781 192 L 72.070312 210.925781 L 28.402344 210.925781 Z M 42.527344 196.257812 " fill-opacity="1" fill-rule="nonzero"/></g></svg>