<svg xmlns="http://www.w3.org/2000/svg" xmlns:xlink="http://www.w3.org/1999/xlink" width="512" zoomAndPan="magnify" viewBox="0 0 384 383.999986" height="512" preserveAspectRatio="xMidYMid meet" version="1.0"><defs><clipPath id="2d7cf25631"><path d="M 19.199219 15.671875 L 364.949219 15.671875 L 364.949219 368.171875 L 19.199219 368.171875 Z M 19.199219 15.671875 " clip-rule="nonzero"/></clipPath></defs><g clip-path="url(#2d7cf25631)"><path fill="#b3daff" d="M 178.34375 366.105469 L 20.808594 180.929688 C 19.8125 179.972656 19.191406 178.625 19.191406 177.136719 C 19.191406 175.808594 19.683594 174.59375 20.496094 173.671875 L 74.960938 97.429688 L 75.007812 97.363281 L 75.058594 97.296875 L 75.085938 97.261719 L 75.109375 97.234375 L 75.160156 97.167969 L 75.167969 97.160156 L 75.210938 97.105469 L 75.246094 97.0625 L 75.265625 97.042969 L 75.316406 96.984375 L 75.332031 96.964844 L 75.371094 96.921875 L 75.421875 96.871094 L 75.425781 96.863281 L 75.597656 96.691406 L 75.605469 96.6875 L 75.699219 96.597656 L 75.710938 96.585938 L 75.769531 96.53125 L 75.796875 96.507812 L 75.890625 96.429688 L 75.898438 96.421875 C 76.28125 96.105469 76.703125 95.851562 77.148438 95.65625 L 77.152344 95.65625 L 77.359375 95.570312 L 77.394531 95.558594 L 77.507812 95.519531 L 77.515625 95.515625 L 77.640625 95.476562 L 77.652344 95.472656 L 77.726562 95.449219 L 77.761719 95.4375 L 77.800781 95.425781 L 77.875 95.40625 L 77.890625 95.402344 L 78.011719 95.371094 L 78.023438 95.367188 L 78.097656 95.351562 L 78.136719 95.34375 L 78.171875 95.332031 L 78.246094 95.320312 L 78.265625 95.316406 L 78.390625 95.292969 L 78.398438 95.292969 L 78.472656 95.28125 L 78.515625 95.273438 L 78.546875 95.269531 L 78.699219 95.253906 L 78.769531 95.246094 L 78.777344 95.246094 L 78.855469 95.238281 L 79.007812 95.230469 L 79.023438 95.230469 L 79.238281 95.222656 L 285.910156 95.210938 C 287.8125 95.210938 289.480469 96.222656 290.40625 97.734375 L 344.746094 173.777344 C 345.5 174.691406 345.957031 175.859375 345.957031 177.136719 C 345.957031 178.625 345.335938 179.96875 344.339844 180.925781 L 186.804688 366.109375 L 186.796875 366.125 L 186.792969 366.125 L 186.761719 366.167969 C 186.699219 366.25 186.636719 366.332031 186.566406 366.410156 L 186.554688 366.421875 L 186.53125 366.449219 L 186.5 366.488281 L 186.472656 366.519531 L 186.464844 366.527344 L 186.429688 366.566406 L 186.394531 366.601562 L 186.386719 366.613281 L 186.207031 366.792969 L 186.171875 366.824219 L 186.132812 366.859375 L 186.113281 366.878906 L 186.09375 366.894531 L 186.058594 366.929688 L 185.980469 367 L 185.9375 367.035156 L 185.921875 367.046875 L 185.898438 367.066406 L 185.859375 367.101562 L 185.824219 367.125 L 185.816406 367.132812 C 185.691406 367.230469 185.5625 367.320312 185.429688 367.410156 L 185.414062 367.417969 L 185.382812 367.4375 L 185.339844 367.464844 L 185.304688 367.484375 L 185.25 367.519531 L 185.203125 367.546875 L 185.199219 367.546875 L 185.15625 367.574219 L 184.976562 367.667969 L 184.96875 367.675781 L 184.917969 367.699219 L 184.871094 367.722656 L 184.867188 367.722656 L 184.773438 367.769531 L 184.75 367.777344 L 184.722656 367.789062 L 184.636719 367.832031 L 184.625 367.835938 L 184.523438 367.875 L 184.519531 367.878906 L 184.472656 367.898438 L 184.421875 367.917969 L 184.402344 367.921875 L 184.316406 367.953125 L 184.28125 367.964844 L 184.265625 367.972656 L 184.214844 367.988281 L 184.164062 368.007812 L 184.160156 368.007812 L 184.109375 368.023438 L 184.054688 368.039062 L 184.042969 368.042969 L 183.949219 368.066406 L 183.921875 368.078125 L 183.851562 368.09375 L 183.796875 368.105469 L 183.746094 368.117188 L 183.671875 368.136719 L 183.644531 368.140625 L 183.546875 368.160156 L 183.542969 368.164062 L 183.441406 368.179688 L 183.421875 368.183594 L 183.335938 368.199219 L 183.296875 368.203125 L 183.171875 368.21875 L 183.132812 368.222656 L 183.042969 368.230469 L 183.03125 368.234375 L 182.929688 368.238281 L 182.917969 368.242188 L 182.828125 368.246094 L 182.789062 368.246094 L 182.65625 368.253906 L 182.523438 368.253906 L 182.421875 368.25 L 182.398438 368.25 L 182.320312 368.246094 L 182.21875 368.238281 L 182.140625 368.234375 L 182.121094 368.234375 L 182.019531 368.222656 L 182.007812 368.222656 L 181.917969 368.210938 L 181.878906 368.207031 L 181.820312 368.199219 L 181.75 368.1875 L 181.722656 368.183594 L 181.625 368.164062 L 181.617188 368.164062 L 181.527344 368.148438 L 181.488281 368.136719 L 181.429688 368.125 L 181.355469 368.109375 L 181.332031 368.101562 L 181.238281 368.078125 L 181.226562 368.074219 L 181.140625 368.050781 L 181.09375 368.039062 L 181.046875 368.023438 L 180.964844 368 L 180.953125 367.996094 C 180.828125 367.953125 180.707031 367.910156 180.589844 367.863281 L 180.582031 367.855469 C 180.011719 367.625 179.5 367.296875 179.058594 366.902344 L 179.003906 366.851562 L 178.964844 366.8125 L 178.933594 366.785156 L 178.785156 366.636719 L 178.726562 366.570312 L 178.65625 366.496094 L 178.613281 366.449219 L 178.589844 366.421875 L 178.53125 366.351562 L 178.527344 366.34375 L 178.464844 366.265625 L 178.453125 366.253906 L 178.378906 366.152344 Z M 261.347656 56.328125 C 264.253906 56.328125 266.609375 58.683594 266.609375 61.589844 C 266.609375 64.492188 264.253906 66.851562 261.347656 66.851562 L 248.871094 66.851562 L 248.871094 79.328125 C 248.871094 82.234375 246.515625 84.589844 243.609375 84.589844 C 240.703125 84.589844 238.347656 82.234375 238.347656 79.328125 L 238.347656 66.851562 L 225.871094 66.851562 C 222.964844 66.851562 220.609375 64.492188 220.609375 61.589844 C 220.609375 58.683594 222.964844 56.328125 225.871094 56.328125 L 238.347656 56.328125 L 238.347656 43.851562 C 238.347656 40.945312 240.703125 38.589844 243.609375 38.589844 C 246.515625 38.589844 248.871094 40.945312 248.871094 43.851562 L 248.871094 56.328125 Z M 359.542969 104.894531 L 347.066406 104.894531 L 347.066406 92.417969 C 347.066406 89.511719 344.710938 87.15625 341.804688 87.15625 C 338.898438 87.15625 336.542969 89.511719 336.542969 92.417969 L 336.542969 104.894531 L 324.066406 104.894531 C 321.160156 104.894531 318.804688 107.25 318.804688 110.15625 C 318.804688 113.058594 321.160156 115.417969 324.066406 115.417969 L 336.542969 115.417969 L 336.542969 127.894531 C 336.542969 130.800781 338.898438 133.15625 341.804688 133.15625 C 344.710938 133.15625 347.066406 130.800781 347.066406 127.894531 L 347.066406 115.417969 L 359.542969 115.417969 C 362.445312 115.417969 364.804688 113.058594 364.804688 110.15625 C 364.804688 107.25 362.445312 104.894531 359.542969 104.894531 Z M 339.085938 38.132812 C 341.988281 38.132812 344.347656 40.488281 344.347656 43.394531 C 344.347656 46.300781 341.988281 48.65625 339.085938 48.65625 L 321.960938 48.65625 L 321.960938 65.78125 C 321.960938 68.6875 319.601562 71.042969 316.699219 71.042969 C 313.792969 71.042969 311.4375 68.6875 311.4375 65.78125 L 311.4375 48.65625 L 294.3125 48.65625 C 291.40625 48.65625 289.050781 46.300781 289.050781 43.394531 C 289.050781 40.488281 291.40625 38.132812 294.3125 38.132812 L 311.4375 38.132812 L 311.4375 21.007812 C 311.4375 18.101562 313.792969 15.746094 316.699219 15.746094 C 319.601562 15.746094 321.960938 18.101562 321.960938 21.007812 L 321.960938 38.132812 Z M 128.050781 167.742188 L 172.363281 105.734375 L 88.78125 105.734375 Z M 192.785156 105.734375 L 237.09375 167.742188 L 276.367188 105.734375 Z M 227.148438 171.875 L 182.574219 109.5 L 138 171.875 Z M 286.171875 109.867188 L 246.898438 171.875 L 330.484375 171.875 Z M 241.277344 182.398438 L 194.589844 340.800781 L 329.34375 182.398438 Z M 182.574219 344.441406 L 230.335938 182.398438 L 134.8125 182.398438 Z M 170.558594 340.800781 L 123.871094 182.398438 L 35.800781 182.398438 Z M 118.25 171.875 L 78.976562 109.867188 L 34.664062 171.875 Z M 118.25 171.875 " fill-opacity="1" fill-rule="evenodd"/></g></svg>