<svg xmlns="http://www.w3.org/2000/svg" xmlns:xlink="http://www.w3.org/1999/xlink" width="512" zoomAndPan="magnify" viewBox="0 0 384 383.999986" height="512" preserveAspectRatio="xMidYMid meet" version="1.0"><defs><clipPath id="ef43228c84"><path d="M 18.113281 19.199219 L 364 19.199219 L 364 364.949219 L 18.113281 364.949219 Z M 18.113281 19.199219 " clip-rule="nonzero"/></clipPath></defs><path fill="#b3daff" d="M 224.796875 173.921875 C 205.042969 199.117188 178.925781 212.992188 151.257812 212.992188 C 123.585938 212.992188 97.476562 199.117188 77.722656 173.921875 L 74.0625 169.253906 L 77.722656 164.585938 C 97.476562 139.390625 123.585938 125.515625 151.257812 125.515625 C 178.925781 125.515625 205.042969 139.390625 224.789062 164.585938 C 224.789062 164.585938 224.789062 164.585938 224.796875 164.585938 L 228.453125 169.253906 Z M 242.070312 165.167969 L 235.214844 156.417969 C 212.898438 127.949219 183.082031 112.273438 151.257812 112.273438 C 119.433594 112.273438 89.617188 127.949219 67.300781 156.417969 L 60.441406 165.167969 C 58.558594 167.566406 58.558594 170.9375 60.441406 173.339844 L 67.300781 182.089844 C 89.617188 210.558594 119.433594 226.234375 151.257812 226.234375 C 183.082031 226.234375 212.898438 210.558594 235.214844 182.089844 L 242.070312 173.339844 C 243.957031 170.9375 243.957031 167.566406 242.070312 165.167969 " fill-opacity="1" fill-rule="nonzero"/><path fill="#b3daff" d="M 151.257812 194.601562 C 137.277344 194.601562 125.910156 183.226562 125.910156 169.253906 C 125.910156 155.273438 137.277344 143.902344 151.257812 143.902344 C 165.234375 143.902344 176.601562 155.273438 176.601562 169.253906 C 176.601562 183.226562 165.234375 194.601562 151.257812 194.601562 Z M 151.257812 130.664062 C 129.976562 130.664062 112.667969 147.976562 112.667969 169.253906 C 112.667969 190.53125 129.976562 207.84375 151.257812 207.84375 C 172.535156 207.84375 189.84375 190.53125 189.84375 169.253906 C 189.84375 147.976562 172.535156 130.664062 151.257812 130.664062 " fill-opacity="1" fill-rule="nonzero"/><path fill="#b3daff" d="M 151.257812 102.777344 C 154.910156 102.777344 157.878906 99.816406 157.878906 96.160156 L 157.878906 70.453125 C 157.878906 66.796875 154.910156 63.832031 151.257812 63.832031 C 147.601562 63.832031 144.636719 66.796875 144.636719 70.453125 L 144.636719 96.160156 C 144.636719 99.816406 147.601562 102.777344 151.257812 102.777344 " fill-opacity="1" fill-rule="nonzero"/><path fill="#b3daff" d="M 107.167969 106.40625 C 108.394531 108.523438 110.613281 109.707031 112.898438 109.707031 C 114.027344 109.707031 115.167969 109.417969 116.214844 108.8125 C 119.378906 106.976562 120.453125 102.925781 118.621094 99.765625 L 109.128906 83.390625 C 107.292969 80.230469 103.246094 79.15625 100.078125 80.988281 C 96.914062 82.824219 95.839844 86.871094 97.671875 90.035156 L 107.167969 106.40625 " fill-opacity="1" fill-rule="nonzero"/><path fill="#b3daff" d="M 186.304688 108.8125 C 187.347656 109.417969 188.488281 109.707031 189.617188 109.707031 C 191.898438 109.707031 194.125 108.523438 195.351562 106.40625 L 204.839844 90.035156 C 206.679688 86.871094 205.597656 82.824219 202.4375 80.988281 C 199.273438 79.152344 195.21875 80.230469 193.390625 83.390625 L 183.894531 99.765625 C 182.0625 102.925781 183.140625 106.976562 186.304688 108.8125 " fill-opacity="1" fill-rule="nonzero"/><g clip-path="url(#ef43228c84)"><path fill="#b3daff" d="M 66.496094 237.105469 C 43.855469 214.464844 31.390625 184.363281 31.390625 152.34375 C 31.390625 120.328125 43.855469 90.222656 66.496094 67.582031 C 89.136719 44.941406 119.242188 32.476562 151.257812 32.476562 C 183.273438 32.476562 213.378906 44.941406 236.019531 67.582031 C 282.753906 114.324219 282.753906 190.367188 236.019531 237.105469 C 213.378906 259.742188 183.273438 272.210938 151.257812 272.210938 C 119.242188 272.210938 89.136719 259.742188 66.496094 237.105469 Z M 357.273438 326.867188 L 284.257812 253.851562 C 277.191406 246.789062 266.558594 245.460938 258.15625 249.875 L 249.941406 241.667969 C 297.226562 189.488281 295.707031 108.554688 245.382812 58.222656 C 220.238281 33.078125 186.8125 19.234375 151.257812 19.234375 C 115.707031 19.234375 82.277344 33.078125 57.136719 58.222656 C 31.992188 83.363281 18.148438 116.792969 18.148438 152.34375 C 18.148438 187.898438 31.992188 221.324219 57.136719 246.46875 C 82.277344 271.609375 115.707031 285.453125 151.257812 285.453125 C 184.597656 285.453125 216.0625 273.28125 240.585938 251.035156 L 248.789062 259.238281 C 244.375 267.644531 245.703125 278.277344 252.769531 285.34375 L 325.785156 358.359375 C 330.132812 362.710938 335.832031 364.882812 341.527344 364.882812 C 347.230469 364.882812 352.925781 362.710938 357.273438 358.359375 C 365.972656 349.667969 365.972656 335.5625 357.273438 326.867188 " fill-opacity="1" fill-rule="nonzero"/></g></svg>