<svg width="41" height="41" viewBox="0 0 41 41" fill="none" xmlns="http://www.w3.org/2000/svg">
<rect x="0.823045" y="0.823045" width="38.6831" height="38.8467" rx="19.3416" stroke="#194E80" stroke-width="1.64609"/>
<mask id="mask0_580_457" style="mask-type:luminance" maskUnits="userSpaceOnUse" x="7" y="7" width="26" height="26">
<path d="M7.81909 7.82666H32.5104V32.6668H7.81909V7.82666Z" fill="white"/>
</mask>
<g mask="url(#mask0_580_457)">
<path fill-rule="evenodd" clip-rule="evenodd" d="M28.9104 11.4466C26.5894 9.12212 23.5034 7.8396 20.2147 7.8396C13.4392 7.8396 7.92445 13.3563 7.92213 20.138C7.92213 22.3056 8.48727 24.4225 9.56295 26.2868L7.81909 32.6599L14.3359 30.9494C16.1317 31.9298 18.1529 32.4454 20.2101 32.4465H20.2147C26.9895 32.4465 32.5054 26.9287 32.5066 20.1481C32.5066 16.8614 31.231 13.7723 28.9089 11.4466H28.9104ZM20.2147 30.3699H20.2113C18.3787 30.3699 16.5794 29.8764 15.0103 28.9452L14.6376 28.7229L10.7699 29.7378L11.8018 25.9653L11.559 25.5788C10.536 23.9511 9.99601 22.0697 9.99717 20.138C9.99988 14.5024 14.5834 9.91619 20.2186 9.91619C22.9479 9.91619 25.5126 10.9814 27.442 12.9143C29.3714 14.846 30.4323 17.4149 30.4311 20.1465C30.4288 25.7837 25.8449 30.3699 20.2136 30.3699H20.2147ZM25.8193 22.7143C25.5126 22.5609 24.0027 21.8172 23.7207 21.7153C23.4383 21.6119 23.2349 21.5619 23.03 21.8687C22.8251 22.1767 22.2363 22.8689 22.0574 23.0738C21.878 23.2787 21.6991 23.3046 21.3911 23.1497C21.0843 22.9963 20.0947 22.6713 18.921 21.6243C18.0084 20.8093 17.3913 19.803 17.212 19.495C17.033 19.1871 17.1938 19.0213 17.3472 18.8679C17.4843 18.7304 17.6536 18.5084 17.8081 18.3291C17.9615 18.1497 18.013 18.0211 18.1149 17.8162C18.2179 17.6109 18.1664 17.432 18.0893 17.2774C18.0119 17.124 17.3987 15.6107 17.1423 14.9959C16.8932 14.3967 16.6395 14.478 16.4516 14.468C16.2727 14.4594 16.0678 14.4571 15.8628 14.4571C15.6579 14.4571 15.3256 14.533 15.0436 14.841C14.7616 15.1493 13.9691 15.893 13.9691 17.4049C13.9691 18.9171 15.0692 20.3786 15.2237 20.585C15.3771 20.7899 17.3902 23.8938 20.4712 25.2251C21.2036 25.542 21.7762 25.731 22.2228 25.8732C22.9587 26.1075 23.6285 26.0746 24.1572 25.9948C24.7471 25.9065 25.9739 25.2511 26.2299 24.5329C26.4864 23.8152 26.4864 23.2 26.4093 23.0714C26.3318 22.9424 26.1269 22.8665 25.8205 22.7116L25.8193 22.7143Z" fill="#194E80"/>
</g>
</svg>
