<svg width="41" height="41" viewBox="0 0 41 41" fill="none" xmlns="http://www.w3.org/2000/svg">
<rect x="0.823045" y="0.823045" width="38.6831" height="38.6831" rx="19.3416" stroke="#194E80" stroke-width="1.64609"/>
<mask id="mask0_580_455" style="mask-type:luminance" maskUnits="userSpaceOnUse" x="7" y="7" width="26" height="26">
<path d="M7.81885 7.81934H32.5102V32.5107H7.81885V7.81934Z" fill="white"/>
</mask>
<g mask="url(#mask0_580_455)">
<path d="M15.0485 7.90427C13.7351 7.96588 12.8384 8.17649 12.0545 8.48336C11.2428 8.79986 10.5555 9.22301 9.87171 9.91029C9.18673 10.598 8.76551 11.2864 8.45286 12.0992C8.14907 12.8854 7.94346 13.7822 7.88532 15.0963C7.8268 16.4119 7.81409 16.8316 7.81987 20.1837C7.82564 23.5343 7.84104 23.9555 7.9038 25.2719C7.96656 26.5849 8.17602 27.4805 8.48289 28.2656C8.79939 29.0772 9.22254 29.7637 9.90982 30.4487C10.5975 31.1337 11.2859 31.5533 12.0987 31.8675C12.8838 32.1709 13.7817 32.3781 15.0947 32.4351C16.4115 32.4932 16.8312 32.5059 20.1821 32.499C23.5338 32.4932 23.9539 32.4782 25.2703 32.4154C26.5833 32.3527 27.4789 32.1421 28.2639 31.836C29.0756 31.5187 29.7632 31.0963 30.4471 30.409C31.1309 29.7217 31.5517 29.0333 31.8659 28.2201C32.1693 27.435 32.3765 26.5371 32.4334 25.2253C32.4904 23.9089 32.5043 23.4877 32.4985 20.1371C32.4927 16.7862 32.4766 16.3665 32.415 15.0501C32.3522 13.7356 32.1427 12.84 31.8355 12.0553C31.5182 11.2433 31.0958 10.5571 30.4086 9.87217C29.7213 9.18836 29.0328 8.76598 28.2197 8.45333C27.4346 8.14954 26.5367 7.94278 25.2237 7.88579C23.9073 7.82765 23.4861 7.81456 20.1355 7.82034C16.7846 7.8265 16.3649 7.84151 15.0485 7.90427ZM15.1925 30.2127C13.99 30.1603 13.3362 29.9601 12.9 29.7926C12.3232 29.5693 11.9128 29.3017 11.4788 28.8728C11.0464 28.4411 10.7788 28.0307 10.5532 27.4562C10.3846 27.0211 10.1809 26.3685 10.1239 25.1649C10.0623 23.8646 10.0484 23.4738 10.0427 20.1791C10.0369 16.8852 10.0484 16.4943 10.1054 15.1929C10.1566 13.9905 10.3576 13.3367 10.5251 12.902C10.7484 12.3248 11.0149 11.9144 11.4453 11.4805C11.8766 11.0481 12.2874 10.7805 12.863 10.5548C13.2981 10.385 13.9504 10.1825 15.1528 10.1255C16.4546 10.0639 16.8439 10.0512 20.139 10.0443C23.4337 10.0374 23.8245 10.0489 25.1259 10.107C26.3288 10.1594 26.9822 10.3581 27.4172 10.5267C27.994 10.75 28.406 11.0153 28.8384 11.447C29.2712 11.8782 29.5399 12.2879 29.7644 12.8646C29.9342 13.2986 30.1363 13.952 30.1933 15.1533C30.2549 16.4551 30.2692 16.8459 30.275 20.1394C30.2807 23.4342 30.2692 23.825 30.2122 25.1252C30.1598 26.3281 29.9596 26.9826 29.7921 27.4177C29.5688 27.9933 29.3024 28.4053 28.8711 28.8377C28.4395 29.2693 28.0302 29.5381 27.4534 29.7637C27.0195 29.9335 26.3657 30.1357 25.1644 30.1926C23.863 30.2542 23.4734 30.2685 20.1775 30.2743C16.8835 30.28 16.4927 30.2685 15.1913 30.2115M25.253 13.5635C25.2541 14.3813 25.9191 15.0432 26.7357 15.0405C27.5532 15.0393 28.215 14.3755 28.2139 13.5577C28.2127 12.7403 27.5474 12.0784 26.73 12.0796C25.9122 12.0807 25.2507 12.7461 25.2518 13.5623M13.8225 20.1722C13.8295 23.6717 16.6718 26.5025 20.1702 26.4956C23.6701 26.4886 26.502 23.6471 26.4951 20.1475C26.4882 16.6491 23.6455 13.8172 20.1459 13.823C16.6475 13.8299 13.8156 16.6722 13.8225 20.1722ZM16.0449 20.1672C16.0415 17.8959 17.8792 16.05 20.1505 16.0466C22.4218 16.0419 24.2677 17.8797 24.2723 20.1522C24.2769 22.4235 22.4384 24.2693 20.1667 24.2728C17.8954 24.2774 16.0496 22.4389 16.0461 20.1672" fill="#194E80"/>
</g>
</svg>
