<svg width="41" height="41" viewBox="0 0 41 41" fill="none" xmlns="http://www.w3.org/2000/svg">
<rect x="0.823045" y="0.823045" width="38.6831" height="38.6831" rx="19.3416" stroke="#194E80" stroke-width="1.64609"/>
<mask id="mask0_580_456" style="mask-type:luminance" maskUnits="userSpaceOnUse" x="7" y="10" width="26" height="20">
<path d="M7.69482 10.6997H32.6343V29.6297H7.69482V10.6997Z" fill="white"/>
</mask>
<g mask="url(#mask0_580_456)">
<path d="M21.0309 20.0737C20.5367 20.5111 19.7922 20.5111 19.2984 20.0737L10.819 12.5544H29.5099L21.0309 20.0737ZM24.3381 20.7768L23.0755 22.1234L29.1316 27.8035H11.1289L16.877 22.1L15.5769 20.7893L9.5412 26.7781V13.8889L18.0735 21.4548C18.6502 21.9662 19.3927 22.2479 20.1647 22.2479C20.9366 22.2479 21.6792 21.9662 22.2555 21.4548L30.7881 13.8885V26.8262L24.3381 20.7768ZM29.8773 10.7085H10.4516C8.93164 10.7085 7.69531 11.9452 7.69531 13.4652V26.8931C7.69531 28.4131 8.93164 29.6494 10.4516 29.6494H29.8773C31.3973 29.6494 32.634 28.4131 32.634 26.8931V13.4652C32.634 11.9452 31.3973 10.7085 29.8773 10.7085Z" fill="#194E80"/>
</g>
</svg>
