<svg xmlns="http://www.w3.org/2000/svg" xmlns:xlink="http://www.w3.org/1999/xlink" width="512" zoomAndPan="magnify" viewBox="0 0 384 383.999986" height="512" preserveAspectRatio="xMidYMid meet" version="1.0"><path fill="#ffffff" d="M 96.640625 287.25 L 40.933594 231.539062 C 19.1875 209.792969 19.1875 174.203125 40.933594 152.457031 L 96.09375 97.296875 L 171.527344 172.722656 C 176.960938 178.167969 179.679688 185.351562 179.679688 192.546875 C 179.679688 199.746094 176.960938 206.929688 171.527344 212.371094 Z M 270.484375 304.121094 L 231.539062 343.066406 C 209.792969 364.8125 174.203125 364.8125 152.457031 343.066406 L 114.0625 304.667969 L 188.945312 229.792969 C 190.191406 228.539062 191.371094 227.242188 192.460938 225.902344 C 193.289062 226.851562 194.148438 227.785156 195.050781 228.6875 Z M 231.539062 40.933594 L 269.929688 79.328125 L 195.050781 154.207031 C 193.804688 155.449219 192.628906 156.75 191.535156 158.09375 C 190.707031 157.136719 189.851562 156.207031 188.945312 155.304688 L 113.511719 79.878906 L 152.457031 40.933594 C 174.203125 19.1875 209.792969 19.1875 231.539062 40.933594 Z M 287.347656 96.75 L 343.066406 152.457031 C 364.8125 174.203125 364.8125 209.792969 343.066406 231.539062 L 287.90625 286.699219 L 212.472656 211.265625 C 207.035156 205.832031 204.316406 198.640625 204.316406 191.441406 C 204.316406 184.253906 207.035156 177.0625 212.472656 171.625 Z M 287.347656 96.75 " fill-opacity="1" fill-rule="evenodd"/></svg>